<svg width="375" height="264" fill="none" xmlns="http://www.w3.org/2000/svg"><path fill="#F2F2F2" d="M0 0h375v192H0z"/><path fill-rule="evenodd" clip-rule="evenodd" d="M17.733 116.717a.732.732 0 11-.002-1.466.732.732 0 01.002 1.466zm0-6.979a.733.733 0 110-1.464.733.733 0 010 1.464zm0-6.976a.733.733 0 110-1.466.733.733 0 010 1.466zm0-6.98a.732.732 0 110-1.466.732.732 0 010 1.465zm0-6.98a.733.733 0 110-1.465.733.733 0 010 1.465zm0-6.978a.731.731 0 110-1.463.731.731 0 110 1.463zm0-6.978a.732.732 0 11-.001-1.466.732.732 0 01.001 1.466zm0-6.98a.733.733 0 110-1.465.733.733 0 010 1.466zm0-6.978a.733.733 0 110-1.465.733.733 0 010 1.465zm0-6.978a.733.733 0 110-1.465.733.733 0 010 1.465zM25.797 116.609c-.404 0-.733-.303-.733-.679 0-.374.329-.678.733-.678.404 0 .732.304.732.678 0 .376-.328.679-.732.679zm0-6.979c-.404 0-.733-.303-.733-.679 0-.374.329-.678.733-.678.404 0 .732.304.732.678 0 .376-.328.679-.732.679zm0-6.977c-.404 0-.733-.304-.733-.681 0-.373.329-.678.733-.678.404 0 .732.305.732.678 0 .377-.328.681-.732.681zm0-6.98c-.404 0-.733-.302-.733-.679 0-.374.329-.678.733-.678.404 0 .732.304.732.678 0 .377-.328.679-.732.679zm0-6.98c-.404 0-.733-.302-.733-.677 0-.375.329-.68.733-.68.404 0 .732.305.732.68 0 .375-.328.678-.732.678zm0-6.978c-.404 0-.733-.302-.733-.678 0-.374.329-.676.733-.676.404 0 .732.302.732.676 0 .376-.328.678-.732.678zm0-6.978c-.404 0-.733-.302-.733-.679 0-.373.329-.678.733-.678.404 0 .732.305.732.678 0 .377-.328.679-.732.679zm0-6.979c-.404 0-.733-.302-.733-.678 0-.374.329-.679.733-.679.404 0 .732.305.732.679 0 .376-.328.678-.732.678zm0-6.978c-.404 0-.733-.303-.733-.678 0-.375.329-.68.733-.68.404 0 .732.305.732.68 0 .375-.328.678-.732.678zm0-6.979c-.404 0-.733-.302-.733-.676 0-.376.329-.68.733-.68.404 0 .732.304.732.68 0 .374-.328.676-.732.676zM33.864 116.609c-.406 0-.733-.303-.733-.679 0-.374.327-.678.733-.678.405 0 .732.304.732.678 0 .376-.327.679-.732.679zm0-6.979c-.406 0-.733-.303-.733-.679 0-.374.327-.678.733-.678.405 0 .732.304.732.678 0 .376-.327.679-.732.679zm0-6.977c-.406 0-.733-.304-.733-.681 0-.373.327-.678.733-.678.405 0 .732.305.732.678 0 .377-.327.681-.732.681zm0-6.98c-.406 0-.733-.302-.733-.679 0-.374.327-.678.733-.678.405 0 .732.304.732.678 0 .377-.327.679-.732.679zm0-6.98c-.406 0-.733-.302-.733-.677 0-.375.327-.68.733-.68.405 0 .732.305.732.68 0 .375-.327.678-.732.678zm0-6.978c-.406 0-.733-.302-.733-.678 0-.374.327-.676.733-.676.405 0 .732.302.732.676 0 .376-.327.678-.732.678zm0-6.978c-.406 0-.733-.302-.733-.679 0-.373.327-.678.733-.678.405 0 .732.305.732.678 0 .377-.327.679-.732.679zm0-6.979c-.406 0-.733-.302-.733-.678 0-.374.327-.679.733-.679.405 0 .732.305.732.679 0 .376-.327.678-.732.678zm0-6.978c-.406 0-.733-.303-.733-.678 0-.375.327-.68.733-.68.405 0 .732.305.732.68 0 .375-.327.678-.732.678zm0-6.979c-.406 0-.733-.302-.733-.676 0-.376.327-.68.734-.68.404 0 .731.304.731.68 0 .374-.327.676-.731.676zM41.91 116.717a.732.732 0 110-1.465.733.733 0 010 1.465zm0-6.979a.731.731 0 110-1.465.733.733 0 010 1.465zm0-6.976a.733.733 0 110-1.467.733.733 0 010 1.467zm0-6.98a.732.732 0 11-.001-1.465.732.732 0 01.001 1.464zm0-6.98a.733.733 0 110-1.465.733.733 0 010 1.465zm0-6.978a.731.731 0 110-1.463.731.731 0 110 1.463zm0-6.979a.733.733 0 110-1.465.733.733 0 010 1.465zm0-6.979a.733.733 0 110-1.465.733.733 0 010 1.465zm0-6.978a.733.733 0 110-1.465.733.733 0 010 1.465zm0-6.978a.733.733 0 110-1.464.733.733 0 010 1.464zM49.974 116.608c-.404 0-.732-.302-.732-.678 0-.375.328-.679.732-.679.404 0 .733.304.733.679 0 .376-.329.678-.733.678zm0-6.979c-.404 0-.732-.302-.732-.678 0-.374.328-.679.732-.679.404 0 .733.305.733.679 0 .376-.329.678-.733.678zm0-6.976c-.404 0-.732-.304-.732-.681 0-.374.328-.678.732-.678.404 0 .733.304.733.678 0 .377-.329.681-.733.681zm0-6.98c-.404 0-.732-.303-.732-.68 0-.373.328-.677.732-.677.404 0 .733.304.733.678 0 .376-.329.678-.733.678zm0-6.98c-.404 0-.732-.302-.732-.678 0-.374.328-.678.732-.678.404 0 .733.304.733.678 0 .376-.329.679-.733.679zm0-6.978c-.404 0-.732-.302-.732-.679 0-.373.328-.676.732-.676.404 0 .733.303.733.676 0 .377-.329.68-.733.68zm0-6.978c-.404 0-.732-.302-.732-.679 0-.374.328-.678.732-.678.404 0 .733.304.733.678 0 .376-.329.679-.733.679zm0-6.98c-.404 0-.732-.302-.732-.677 0-.375.328-.68.732-.68.404 0 .733.305.733.68 0 .376-.329.678-.733.678zm0-6.978c-.404 0-.732-.302-.732-.678 0-.374.328-.678.732-.678.404 0 .733.304.733.678 0 .376-.329.678-.733.678zm0-6.978c-.403 0-.732-.302-.732-.676 0-.376.329-.68.733-.68.404 0 .732.304.732.68 0 .374-.328.676-.732.676zM58.042 116.608c-.407 0-.734-.302-.734-.678 0-.375.327-.679.734-.679.404 0 .731.304.731.679 0 .376-.327.678-.731.678zm0-6.979c-.407 0-.734-.302-.734-.678 0-.374.327-.679.734-.679.404 0 .731.305.731.679 0 .376-.327.678-.731.678zm0-6.976c-.407 0-.734-.304-.734-.681 0-.374.327-.678.734-.678.404 0 .731.304.731.678 0 .377-.327.681-.731.681zm0-6.98c-.407 0-.734-.303-.734-.68 0-.373.327-.677.734-.677.404 0 .731.304.731.678 0 .376-.327.678-.731.678zm0-6.98c-.407 0-.734-.302-.734-.678 0-.374.327-.678.734-.678.404 0 .731.304.731.678 0 .376-.327.679-.731.679zm0-6.978c-.407 0-.734-.302-.734-.679 0-.373.327-.676.734-.676.404 0 .731.303.731.676 0 .377-.327.68-.731.68zm0-6.978c-.407 0-.734-.302-.734-.679 0-.374.327-.678.734-.678.404 0 .731.304.731.678 0 .376-.327.679-.731.679zm0-6.98c-.407 0-.734-.302-.734-.677 0-.375.327-.68.734-.68.404 0 .731.305.731.68 0 .376-.327.678-.731.678zm0-6.978c-.407 0-.734-.302-.734-.678 0-.374.327-.678.734-.678.404 0 .731.304.731.678 0 .376-.327.678-.731.678zm0-6.978c-.406 0-.733-.302-.733-.676 0-.376.327-.68.733-.68.405 0 .732.304.732.68 0 .374-.327.676-.732.676zM352.475 254.663a.732.732 0 11-1.466.002.732.732 0 011.466-.002zm-6.979 0a.733.733 0 11-1.464 0 .733.733 0 011.464 0zm-6.976 0a.733.733 0 11-1.466 0 .733.733 0 011.466 0zm-6.981 0a.733.733 0 11-1.464 0 .733.733 0 011.464 0zm-6.978 0a.733.733 0 11-1.466 0 .733.733 0 011.466 0zm-6.98 0a.73.73 0 11-1.463 0 .731.731 0 111.463 0zm-6.978 0a.733.733 0 11-1.465 0 .733.733 0 011.465 0zm-6.979 0a.733.733 0 11-1.464 0 .733.733 0 011.464 0zm-6.978 0a.733.733 0 11-1.464 0 .733.733 0 011.464 0zm-6.978 0a.733.733 0 11-1.464-.002.733.733 0 011.464.002zM352.367 246.599c0 .404-.302.733-.679.733-.374 0-.678-.329-.678-.733 0-.404.304-.733.678-.733.377 0 .679.329.679.733zm-6.979 0c0 .404-.302.733-.678.733-.374 0-.679-.329-.679-.733 0-.404.305-.733.679-.733.376 0 .678.329.678.733zm-6.976 0c0 .404-.305.733-.681.733-.374 0-.678-.329-.678-.733 0-.404.304-.733.678-.733.376 0 .681.329.681.733zm-6.981 0c0 .404-.302.733-.678.733-.374 0-.679-.329-.679-.733 0-.404.305-.733.679-.733.376 0 .678.329.678.733zm-6.979 0c0 .404-.302.733-.678.733-.374 0-.679-.329-.679-.733 0-.404.305-.733.679-.733.376 0 .678.329.678.733zm-6.979 0c0 .404-.302.733-.678.733-.374 0-.676-.329-.676-.733 0-.404.302-.733.676-.733.376 0 .678.329.678.733zm-6.978 0c0 .404-.302.733-.679.733-.373 0-.678-.329-.678-.733 0-.404.305-.733.678-.733.377 0 .679.329.679.733zm-6.979 0c0 .404-.302.733-.678.733-.374 0-.679-.329-.679-.733 0-.404.305-.733.679-.733.376 0 .678.329.678.733zm-6.978 0c0 .404-.302.733-.678.733-.374 0-.679-.329-.679-.733 0-.404.305-.733.679-.733.376 0 .678.329.678.733zm-6.979 0c0 .404-.302.733-.676.733-.376 0-.681-.329-.681-.733 0-.404.305-.733.681-.733.374 0 .676.329.676.733zM352.367 238.532c0 .406-.302.733-.679.733-.374 0-.678-.327-.678-.733 0-.405.304-.732.678-.732.377 0 .679.327.679.732zm-6.979 0c0 .406-.302.733-.678.733-.374 0-.679-.327-.679-.733 0-.405.305-.732.679-.732.376 0 .678.327.678.732zm-6.976 0c0 .406-.305.733-.681.733-.374 0-.678-.327-.678-.733 0-.405.304-.732.678-.732.376 0 .681.327.681.732zm-6.981 0c0 .406-.302.733-.678.733-.374 0-.679-.327-.679-.733 0-.405.305-.732.679-.732.376 0 .678.327.678.732zm-6.979 0c0 .406-.302.733-.678.733-.374 0-.679-.327-.679-.733 0-.405.305-.732.679-.732.376 0 .678.327.678.732zm-6.979 0c0 .406-.302.733-.678.733-.374 0-.676-.327-.676-.733 0-.405.302-.732.676-.732.376 0 .678.327.678.732zm-6.978 0c0 .406-.302.733-.679.733-.373 0-.678-.327-.678-.733 0-.405.305-.732.678-.732.377 0 .679.327.679.732zm-6.979 0c0 .406-.302.733-.678.733-.374 0-.679-.327-.679-.733 0-.405.305-.732.679-.732.376 0 .678.327.678.732zm-6.978 0c0 .406-.302.733-.678.733-.374 0-.679-.327-.679-.733 0-.405.305-.732.679-.732.376 0 .678.327.678.732zm-6.979-.001c0 .407-.302.734-.676.734-.376 0-.681-.327-.681-.734 0-.404.305-.731.681-.731.374 0 .676.327.676.731zM352.475 230.486a.732.732 0 11-1.466.002.732.732 0 011.466-.002zm-6.979 0a.733.733 0 11-1.464 0 .733.733 0 011.464 0zm-6.976 0a.733.733 0 11-1.466 0 .733.733 0 011.466 0zm-6.981 0a.733.733 0 11-1.464 0 .733.733 0 011.464 0zm-6.978 0a.733.733 0 11-1.466 0 .733.733 0 011.466 0zm-6.98 0a.73.73 0 11-1.463 0 .731.731 0 111.463 0zm-6.978 0a.733.733 0 11-1.465 0 .733.733 0 011.465 0zm-6.979 0a.733.733 0 11-1.464 0 .733.733 0 011.464 0zm-6.978 0a.733.733 0 11-1.464 0 .733.733 0 011.464 0zm-6.978 0a.732.732 0 11-1.465.001.732.732 0 011.465-.001zM352.367 222.422c0 .404-.302.733-.679.733-.374 0-.678-.329-.678-.733 0-.404.304-.732.678-.732.377 0 .679.328.679.732zm-6.979 0c0 .404-.302.733-.678.733-.374 0-.679-.329-.679-.733 0-.404.305-.732.679-.732.376 0 .678.328.678.732zm-6.976 0c0 .404-.305.733-.681.733-.374 0-.678-.329-.678-.733 0-.404.304-.732.678-.732.376 0 .681.328.681.732zm-6.981 0c0 .404-.302.733-.678.733-.374 0-.679-.329-.679-.733 0-.404.305-.732.679-.732.376 0 .678.328.678.732zm-6.979 0c0 .404-.302.733-.678.733-.374 0-.679-.329-.679-.733 0-.404.305-.732.679-.732.376 0 .678.328.678.732zm-6.979 0c0 .404-.302.733-.678.733-.374 0-.676-.329-.676-.733 0-.404.302-.732.676-.732.376 0 .678.328.678.732zm-6.978 0c0 .404-.302.733-.679.733-.373 0-.678-.329-.678-.733 0-.404.305-.732.678-.732.377 0 .679.328.679.732zm-6.979 0c0 .404-.302.733-.678.733-.374 0-.679-.329-.679-.733 0-.404.305-.732.679-.732.376 0 .678.328.678.732zm-6.978 0c0 .404-.302.733-.678.733-.374 0-.679-.329-.679-.733 0-.404.305-.732.679-.732.376 0 .678.328.678.732zm-6.979 0c0 .404-.302.733-.676.733-.376 0-.681-.329-.681-.733 0-.404.305-.733.681-.733.374 0 .676.329.676.733zM352.367 214.355c0 .406-.302.733-.679.733-.374 0-.678-.327-.678-.733 0-.405.304-.732.678-.732.377 0 .679.327.679.732zm-6.979 0c0 .406-.302.733-.678.733-.374 0-.679-.327-.679-.733 0-.405.305-.732.679-.732.376 0 .678.327.678.732zm-6.976 0c0 .406-.305.733-.681.733-.374 0-.678-.327-.678-.733 0-.405.304-.732.678-.732.376 0 .681.327.681.732zm-6.981 0c0 .406-.302.733-.678.733-.374 0-.679-.327-.679-.733 0-.405.305-.732.679-.732.376 0 .678.327.678.732zm-6.979 0c0 .406-.302.733-.678.733-.374 0-.679-.327-.679-.733 0-.405.305-.732.679-.732.376 0 .678.327.678.732zm-6.979 0c0 .406-.302.733-.678.733-.374 0-.676-.327-.676-.733 0-.405.302-.732.676-.732.376 0 .678.327.678.732zm-6.978 0c0 .406-.302.733-.679.733-.373 0-.678-.327-.678-.733 0-.405.305-.732.678-.732.377 0 .679.327.679.732zm-6.979 0c0 .406-.302.733-.678.733-.374 0-.679-.327-.679-.733 0-.405.305-.732.679-.732.376 0 .678.327.678.732zm-6.978 0c0 .406-.302.733-.678.733-.374 0-.679-.327-.679-.733 0-.405.305-.732.679-.732.376 0 .678.327.678.732zm-6.979-.001c0 .407-.302.734-.676.734-.376 0-.681-.327-.681-.734 0-.404.305-.731.681-.731.374 0 .676.327.676.731z" fill="#121212"/><g filter="url(#filter0_d)"><path d="M33 47.52a2 2 0 012-2h306a2 2 0 012 2V237c0 .795-.373 1.557-1.036 2.119-.664.563-1.564.879-2.503.881H36.546c-.94 0-1.843-.316-2.507-.879C33.374 238.559 33 237.796 33 237V47.52z" fill="#fff"/></g><path fill="#F8F9FA" d="M51.015 63.541H343V240H51.015z"/><path fill="#fff" d="M33 44.769h310v18.772H33z"/><g clip-path="url(#clip0)"><path d="M315.227 52.855a1.878 1.878 0 10.003 3.756 1.878 1.878 0 00-.003-3.755zm.188 3.192h-.375v-.376h.375v.376zm.388-1.455l-.168.173c-.136.137-.22.25-.22.53h-.375v-.093c0-.206.084-.394.219-.531l.233-.237a.37.37 0 00.111-.264.377.377 0 00-.376-.376.376.376 0 00-.375.376h-.375a.75.75 0 111.501 0 .598.598 0 01-.175.422z" fill="#161616"/></g><g clip-path="url(#clip1)"><path d="M323.109 55.499a.545.545 0 00-.368.144l-1.338-.779a.64.64 0 00.017-.131.64.64 0 00-.017-.132l1.323-.771a.563.563 0 10-.163-.28l-1.323.772a.562.562 0 100 .822l1.336.78a.549.549 0 10.533-.426z" fill="#161616"/></g><path stroke="#F3F3F3" stroke-width=".5" d="M332.741 52.48v4.506M325.986 52.48v4.506M319.23 52.48v4.506"/><g clip-path="url(#clip2)"><path d="M328.176 56.234h2.627v-.375h-2.627v.375zm2.627-2.065h-.751v-1.126h-1.126v1.127h-.75l1.313 1.314 1.314-1.315z" fill="#161616"/></g><path d="M43.508 57.306a5.556 5.556 0 01-1.422.228c-1.61 0-2.33-.604-2.33-3.348 0-2.745.862-3.41 2.414-3.41.453 0 .903.07 1.338.207l-.134.957a3.882 3.882 0 00-1.11-.178c-.952 0-1.357.33-1.357 2.386s.384 2.397 1.357 2.397c.377-.009.75-.074 1.11-.195l.134.956z" fill="#040F21"/><path d="M42.001 60.537a6.003 6.003 0 01-5.543-3.712 6.009 6.009 0 014.38-8.187 6.003 6.003 0 017.174 5.892 6.014 6.014 0 01-6.01 6.007zm0-10.676a4.666 4.666 0 00-4.313 2.882 4.672 4.672 0 003.402 6.367 4.667 4.667 0 005.58-4.58A4.674 4.674 0 0042 49.86z" fill="#FFBC0B"/><path d="M337.502 54.925a1.48 1.48 0 00-.002-.385l.415-.323a.1.1 0 00.025-.125l-.393-.68c-.024-.044-.075-.059-.12-.044l-.489.196a1.453 1.453 0 00-.331-.192l-.074-.52a.099.099 0 00-.098-.084h-.786c-.049 0-.087.035-.096.084l-.073.52c-.121.049-.231.117-.332.192l-.488-.196a.098.098 0 00-.121.045l-.39.679c-.025.043-.017.096.024.125l.415.323a1.228 1.228 0 00-.004.385l-.415.323a.1.1 0 00-.025.125l.393.679a.1.1 0 00.121.045l.488-.197c.103.078.211.144.332.193l.073.52c.011.048.049.083.098.083h.786c.049 0 .09-.035.096-.084l.073-.52c.121-.048.232-.114.332-.192l.488.197c.045.016.097 0 .121-.045l.393-.68c.024-.044.014-.096-.025-.124l-.411-.323zm-1.46.544a.738.738 0 01-.736-.737c0-.405.331-.736.736-.736.405 0 .736.331.736.736a.738.738 0 01-.736.737zM35.658 29h304.684c.349 0 .695.05 1.017.147.323.098.616.24.862.42.247.18.443.393.577.628a1.5 1.5 0 01.202.741V44.77H33V30.937c0-.255.069-.507.202-.742.134-.235.33-.448.576-.628.247-.18.54-.322.863-.42A3.536 3.536 0 0135.658 29z" fill="#161616"/><path d="M33 44.769h310v.75H33v-.75z" fill="#F3F3F3"/><path d="M55.518 112.349h198.16v.751H55.518v-.751z" fill="#E2E2E2"/><path d="M33 63.54h310v.376H33v-.375z" fill="#F3F3F3"/><path d="M44.215 40.434c1.458 0 2.64-1.204 2.64-2.689s-1.182-2.689-2.64-2.689c-1.459 0-2.641 1.204-2.641 2.689s1.182 2.689 2.64 2.689z" fill="#DF463F"/><path d="M53.45 40.434c1.458 0 2.64-1.204 2.64-2.689s-1.182-2.689-2.64-2.689c-1.459 0-2.64 1.204-2.64 2.689s1.181 2.689 2.64 2.689z" fill="#F3B323"/><path d="M62.685 40.434c1.459 0 2.641-1.204 2.641-2.689s-1.182-2.689-2.64-2.689c-1.46 0-2.642 1.204-2.642 2.689s1.183 2.689 2.641 2.689z" fill="#8BCE22"/><path fill="#fff" fill-opacity=".1" d="M33 63.541h18.015V240H33z"/><path d="M41.257 155.149l-3.003 1.366v2.048c0 1.894 1.281 3.665 3.003 4.095 1.721-.43 3.002-2.201 3.002-4.095v-2.048l-3.002-1.366zm0 3.751h2.335c-.177 1.407-1.094 2.659-2.335 3.052v-3.048h-2.335v-1.946l2.335-1.061v3.003zM41.048 131.735h-1.46c-.32 0-.583.277-.583.614v4.301c0 .338.263.614.584.614h1.46v.615h.583v-6.758h-.584v.614zm0 4.608h-1.46l1.46-1.843v1.843zm2.627-4.608h-1.46v.614h1.46v3.994l-1.46-1.843v2.764h1.46c.321 0 .584-.276.584-.614v-4.301c0-.337-.263-.614-.584-.614zM40.134 147.265h-2.63v.751h2.63v1.127l1.498-1.502-1.498-1.502v1.126zm2.245-.375v-1.126h2.63v-.751h-2.63v-1.127l-1.498 1.502 1.498 1.502zM44.635 122.11H38.63a.377.377 0 00-.376.376v2.252c0 .207.17.376.376.376h6.005a.377.377 0 00.375-.376v-2.252a.377.377 0 00-.375-.376zm-4.88 2.253a.753.753 0 01-.75-.751c0-.413.338-.751.75-.751.413 0 .751.338.751.751a.753.753 0 01-.75.751zm4.88-6.007H38.63a.376.376 0 00-.376.375v2.253c0 .206.17.375.376.375h6.005a.376.376 0 00.375-.375v-2.253a.376.376 0 00-.375-.375zm-4.88 2.252a.753.753 0 01-.75-.751c0-.412.338-.75.75-.75.413 0 .751.338.751.75a.753.753 0 01-.75.751zM41.632 170.922a.37.37 0 00-.371.372.37.37 0 00.371.371.37.37 0 00.372-.371.37.37 0 00-.372-.372zm0-3.007a3.38 3.38 0 000 6.758 3.38 3.38 0 000-6.758zm.74 4.119l-2.767 1.287 1.287-2.767 2.767-1.288-1.287 2.768zM43.133 109.345c.623 0 1.122-.503 1.122-1.126a1.125 1.125 0 10-2.248 0c0 .623.503 1.126 1.126 1.126zm-3.003 0c.623 0 1.123-.503 1.123-1.126a1.124 1.124 0 10-2.248 0c0 .623.502 1.126 1.125 1.126zm0 .751c-.874 0-2.627.439-2.627 1.314v.939h5.255v-.939c0-.875-1.753-1.314-2.628-1.314zm3.003 0c-.109 0-.233.008-.364.019.435.315.74.74.74 1.295v.939h2.251v-.939c0-.875-1.753-1.314-2.627-1.314zM41.793 93.577c-1.777 0-3.217 1.513-3.217 3.379h-1.073l1.39 1.46.026.053 1.444-1.513H39.29c0-1.453 1.118-2.628 2.502-2.628 1.383 0 2.502 1.175 2.502 2.628s-1.12 2.628-2.502 2.628c-.69 0-1.316-.297-1.766-.773l-.508.533a3.126 3.126 0 002.274.991c1.776 0 3.217-1.513 3.217-3.38 0-1.865-1.441-3.378-3.217-3.378zm-.358 1.877v1.877l1.53.954.257-.454-1.25-.781v-1.596h-.537zM44.165 82.22h-2.627l-.656-.658h-1.97a.659.659 0 00-.658.657v3.943c0 .36.296.657.657.657h5.254a.659.659 0 00.657-.657v-3.286a.659.659 0 00-.657-.657zm-.676 3.613l-.965-.565-.966.565.256-1.094-.85-.736 1.12-.095.44-1.032.44 1.032 1.12.095-.851.736.256 1.094zM42.289 68.046h-2.627a.666.666 0 00-.654.676l-.003 5.406c0 .372.292.676.653.676h3.944a.668.668 0 00.657-.676v-4.055l-1.97-2.027zm.657 4.73h-.986v1.014h-.656v-1.013h-.986V72.1h.986v-1.014h.656v1.014h.986v.676zm-.986-2.365v-1.858l1.806 1.858H41.96z" fill="#161616"/><path fill="#fff" stroke="#F3F3F3" stroke-width=".5" d="M55.768 69.047h281.727V239.75H55.768z"/><ellipse cx="213.896" cy="212.968" rx="6.005" ry="6.007" fill="#FFD157"/><ellipse cx="79.538" cy="212.968" rx="6.005" ry="6.007" fill="#FFBC0B"/><path d="M55.518 112.349h198.16v.375H55.518v-.375z" fill="#F3F3F3"/><path stroke="#F3F3F3" stroke-width=".5" d="M51.265 63.541V240"/><ellipse cx="196.632" cy="124.362" rx="42.034" ry="42.05" fill="#008D40"/><ellipse cx="196.632" cy="124.363" rx="38.281" ry="37.544" fill="#fff"/><path d="M171.321 123.12c0-1.04.2-2.01.6-2.91.4-.9.94-1.68 1.62-2.34.7-.68 1.52-1.21 2.46-1.59.96-.38 1.99-.57 3.09-.57 1.2 0 2.28.22 3.24.66.98.44 1.81 1.08 2.49 1.92.68.84 1.2 1.87 1.56 3.09.38 1.2.57 2.57.57 4.11 0 1.94-.2 3.66-.6 5.16-.38 1.48-.93 2.72-1.65 3.72-.7 1.02-1.56 1.79-2.58 2.31s-2.16.78-3.42.78c-1.34 0-2.58-.29-3.72-.87a7.987 7.987 0 01-2.88-2.49l2.31-2.52a5.063 5.063 0 004.35 2.4c1.34 0 2.4-.53 3.18-1.59.8-1.06 1.22-2.56 1.26-4.5-.4.72-.99 1.29-1.77 1.71-.78.42-1.68.63-2.7.63-1.06 0-2.04-.18-2.94-.54-.9-.36-1.68-.86-2.34-1.5a7.096 7.096 0 01-1.56-2.25c-.38-.88-.57-1.82-.57-2.82zm7.77-4.02c-.54 0-1.05.11-1.53.33-.46.2-.87.49-1.23.87-.36.36-.65.79-.87 1.29-.2.48-.3.99-.3 1.53s.1 1.05.3 1.53c.22.46.5.87.84 1.23a3.938 3.938 0 002.79 1.14c.54 0 1.05-.1 1.53-.3.48-.2.89-.48 1.23-.84.36-.36.64-.77.84-1.23.22-.48.33-.99.33-1.53s-.11-1.05-.33-1.53c-.2-.5-.48-.93-.84-1.29s-.78-.65-1.26-.87c-.46-.22-.96-.33-1.5-.33zm9.896 4.02c0-1.04.2-2.01.6-2.91.4-.9.94-1.68 1.62-2.34.7-.68 1.52-1.21 2.46-1.59.96-.38 1.99-.57 3.09-.57 1.2 0 2.28.22 3.24.66.98.44 1.81 1.08 2.49 1.92.68.84 1.2 1.87 1.56 3.09.38 1.2.57 2.57.57 4.11 0 1.94-.2 3.66-.6 5.16-.38 1.48-.93 2.72-1.65 3.72-.7 1.02-1.56 1.79-2.58 2.31s-2.16.78-3.42.78c-1.34 0-2.58-.29-3.72-.87a7.987 7.987 0 01-2.88-2.49l2.31-2.52a5.063 5.063 0 004.35 2.4c1.34 0 2.4-.53 3.18-1.59.8-1.06 1.22-2.56 1.26-4.5-.4.72-.99 1.29-1.77 1.71-.78.42-1.68.63-2.7.63-1.06 0-2.04-.18-2.94-.54-.9-.36-1.68-.86-2.34-1.5a7.096 7.096 0 01-1.56-2.25c-.38-.88-.57-1.82-.57-2.82zm7.77-4.02c-.54 0-1.05.11-1.53.33-.46.2-.87.49-1.23.87-.36.36-.65.79-.87 1.29-.2.48-.3.99-.3 1.53s.1 1.05.3 1.53c.22.46.5.87.84 1.23a3.938 3.938 0 002.79 1.14c.54 0 1.05-.1 1.53-.3.48-.2.89-.48 1.23-.84.36-.36.64-.77.84-1.23.22-.48.33-.99.33-1.53s-.11-1.05-.33-1.53c-.2-.5-.48-.93-.84-1.29s-.78-.65-1.26-.87c-.46-.22-.96-.33-1.5-.33zm14.936 1.23a5.202 5.202 0 01-3.51-1.32c-.44-.42-.79-.9-1.05-1.44-.26-.56-.39-1.16-.39-1.8 0-.62.13-1.21.39-1.77s.61-1.04 1.05-1.44a5.202 5.202 0 013.51-1.32c.68 0 1.32.12 1.92.36.62.24 1.15.56 1.59.96.44.4.79.88 1.05 1.44.26.56.39 1.15.39 1.77 0 .64-.13 1.24-.39 1.8-.26.54-.61 1.02-1.05 1.44-.44.4-.97.72-1.59.96-.6.24-1.24.36-1.92.36zm0-2.01c.3 0 .57-.07.81-.21.26-.14.49-.32.69-.54.2-.24.35-.51.45-.81.12-.32.18-.65.18-.99 0-.7-.21-1.29-.63-1.77-.42-.5-.92-.75-1.5-.75-.3 0-.58.07-.84.21-.24.14-.46.33-.66.57-.2.22-.36.48-.48.78-.1.3-.15.62-.15.96 0 .7.21 1.3.63 1.8.42.5.92.75 1.5.75zm11.58 14.82a5.202 5.202 0 01-3.51-1.32c-.44-.4-.79-.87-1.05-1.41-.26-.56-.39-1.16-.39-1.8 0-.64.13-1.23.39-1.77.26-.56.61-1.04 1.05-1.44.44-.42.96-.75 1.56-.99.6-.24 1.25-.36 1.95-.36s1.35.12 1.95.36c.6.24 1.12.57 1.56.99.46.4.81.88 1.05 1.44.26.54.39 1.13.39 1.77 0 .64-.13 1.24-.39 1.8a4.01 4.01 0 01-1.05 1.41 5.202 5.202 0 01-3.51 1.32zm0-2.01c.3 0 .57-.07.81-.21.26-.14.49-.32.69-.54.2-.24.35-.51.45-.81.12-.3.18-.62.18-.96 0-.36-.06-.69-.18-.99-.12-.32-.28-.59-.48-.81-.18-.24-.4-.42-.66-.54-.26-.14-.53-.21-.81-.21-.3 0-.58.07-.84.21-.24.14-.46.33-.66.57-.2.22-.36.49-.48.81-.1.3-.15.62-.15.96 0 .7.21 1.3.63 1.8.42.48.92.72 1.5.72zm-14.85.3l8.46-9.87 7.8-10.26 1.83 1.62-8.19 9.69-8.07 10.44-1.83-1.62zM170.732 186.061c.588 0 1.08-.12 1.476-.36.408-.24.732-.552.972-.936.252-.384.426-.822.522-1.314.108-.504.162-1.02.162-1.548v-6.516h2.466v6.516c0 .876-.108 1.698-.324 2.466a5.466 5.466 0 01-.99 2.016 4.664 4.664 0 01-1.728 1.368c-.708.336-1.554.504-2.538.504-1.02 0-1.89-.174-2.61-.522a5.006 5.006 0 01-1.728-1.404 5.812 5.812 0 01-.972-2.034 9.834 9.834 0 01-.288-2.394v-6.516h2.484v6.516c0 .54.048 1.062.144 1.566.108.492.282.93.522 1.314.252.384.576.696.972.936.396.228.882.342 1.458.342zm16.632 2.106h-2.412v-5.292c0-.756-.132-1.308-.396-1.656-.264-.348-.63-.522-1.098-.522-.24 0-.486.048-.738.144a2.727 2.727 0 00-.72.414 3.204 3.204 0 00-.594.612c-.18.24-.312.504-.396.792v5.508h-2.412v-9.432h2.178v1.746c.348-.6.852-1.068 1.512-1.404.66-.336 1.404-.504 2.232-.504.588 0 1.068.108 1.44.324.372.216.66.498.864.846.204.348.342.744.414 1.188.084.444.126.894.126 1.35v5.886zm2.097 0v-9.432h2.412v9.432h-2.412zm0-10.746v-2.394h2.412v2.394h-2.412zm8.152 10.926a3.65 3.65 0 01-1.656-.378 4.31 4.31 0 01-1.314-1.062 5.073 5.073 0 01-.846-1.548 5.944 5.944 0 01-.306-1.926c0-.684.108-1.32.324-1.908.228-.588.54-1.098.936-1.53a4.297 4.297 0 011.404-1.044 4.077 4.077 0 011.746-.378c.72 0 1.356.168 1.908.504a3.985 3.985 0 011.35 1.296v-1.638h2.106v10.368c0 .264.048.444.144.54.096.108.264.168.504.18v2.052c-.204.036-.426.06-.666.072-.24.024-.456.036-.648.036a1.87 1.87 0 01-.684-.126 1.797 1.797 0 01-.54-.342 1.668 1.668 0 01-.378-.522 1.429 1.429 0 01-.144-.648v-3.834c-.348.612-.798 1.074-1.35 1.386-.552.3-1.182.45-1.89.45zm.9-2.052c.516 0 .966-.144 1.35-.432.384-.288.714-.66.99-1.116v-2.232a2.221 2.221 0 00-.36-.738 2.626 2.626 0 00-.558-.594 2.46 2.46 0 00-.702-.414 2.11 2.11 0 00-.756-.144c-.372 0-.714.078-1.026.234-.3.156-.564.372-.792.648-.216.264-.39.57-.522.918a3.29 3.29 0 00-.18 1.08c0 .396.06.762.18 1.098.132.336.306.63.522.882.228.252.498.45.81.594.312.144.66.216 1.044.216zm9.824 2.052c-.972 0-1.71-.312-2.214-.936-.504-.624-.756-1.548-.756-2.772v-5.904h2.412v5.382c0 1.452.522 2.178 1.566 2.178.468 0 .918-.138 1.35-.414.444-.288.804-.72 1.08-1.296v-5.85h2.412v6.66c0 .252.042.432.126.54.096.108.246.168.45.18v2.052a5.034 5.034 0 01-1.044.108c-.432 0-.786-.096-1.062-.288a1.213 1.213 0 01-.468-.828l-.054-.756a4.02 4.02 0 01-1.62 1.458 4.875 4.875 0 01-2.178.486zm12.621 0c-.756 0-1.44-.126-2.052-.378a4.819 4.819 0 01-1.566-1.062 4.795 4.795 0 01-1.008-1.548 5.083 5.083 0 01-.342-1.854c0-.672.114-1.302.342-1.89a4.52 4.52 0 01.99-1.566 4.683 4.683 0 011.566-1.08c.624-.264 1.32-.396 2.088-.396s1.452.132 2.052.396a4.616 4.616 0 011.548 1.062c.432.444.756.96.972 1.548.228.588.342 1.2.342 1.836 0 .156-.006.306-.018.45 0 .144-.012.264-.036.36h-7.29c.036.372.126.702.27.99a2.43 2.43 0 001.332 1.206c.288.108.588.162.9.162.48 0 .93-.114 1.35-.342.432-.24.726-.552.882-.936l2.07.576c-.348.72-.906 1.314-1.674 1.782-.756.456-1.662.684-2.718.684zm2.448-5.688c-.06-.708-.324-1.272-.792-1.692-.456-.432-1.014-.648-1.674-.648-.324 0-.63.06-.918.18a2.27 2.27 0 00-.738.468c-.216.204-.396.45-.54.738a2.72 2.72 0 00-.234.954h4.896zM225.747 214.96v-5.68h2.064c.464 0 .87.075 1.216.224a2.5 2.5 0 01.88.608c.235.256.411.558.528.904.118.342.176.707.176 1.096 0 .432-.066.824-.2 1.176a2.485 2.485 0 01-.56.896 2.582 2.582 0 01-.888.576c-.341.134-.725.2-1.152.2h-2.064zm3.752-2.848a2.41 2.41 0 00-.112-.752 1.68 1.68 0 00-.328-.592 1.455 1.455 0 00-.536-.384 1.776 1.776 0 00-.712-.136h-.96v3.744h.96c.272 0 .512-.048.72-.144.214-.096.39-.226.528-.392.144-.17.254-.37.328-.6.075-.229.112-.477.112-.744zm1.871 2.848v-4.192h1.072v4.192h-1.072zm0-4.776v-1.064h1.072v1.064h-1.072zm4.535 1.512c-.325.006-.616.07-.872.192-.256.118-.44.296-.552.536v2.536h-1.072v-4.192h.984v.896c.075-.144.163-.272.264-.384a1.99 1.99 0 01.328-.304c.117-.085.235-.149.352-.192a.967.967 0 01.352-.072h.128a.48.48 0 01.088.008v.976zm2.331 3.344c-.336 0-.64-.056-.912-.168a2.11 2.11 0 01-1.296-1.984c0-.298.05-.578.152-.84.101-.266.248-.498.44-.696a2.1 2.1 0 01.696-.48c.277-.117.586-.176.928-.176.341 0 .645.059.912.176.272.118.501.275.688.472.192.198.336.427.432.688a2.25 2.25 0 01.144 1.016.706.706 0 01-.016.16h-3.24c.016.166.056.312.12.44a1.069 1.069 0 00.592.536c.128.048.261.072.4.072.213 0 .413-.05.6-.152a.84.84 0 00.392-.416l.92.256c-.155.32-.403.584-.744.792-.336.203-.739.304-1.208.304zm1.088-2.528c-.027-.314-.144-.565-.352-.752a1.042 1.042 0 00-.744-.288c-.144 0-.28.027-.408.08a1.016 1.016 0 00-.328.208c-.096.091-.176.2-.24.328a1.19 1.19 0 00-.104.424h2.176zm1.493.352c0-.293.05-.57.152-.832a2.03 2.03 0 01.44-.688c.192-.197.424-.354.696-.472.272-.117.578-.176.92-.176.458 0 .848.099 1.168.296.325.198.568.456.728.776l-1.048.32a.988.988 0 00-.856-.48.983.983 0 00-.432.096 1.026 1.026 0 00-.352.256 1.23 1.23 0 00-.232.392c-.054.155-.08.326-.08.512 0 .187.029.358.088.512.058.155.136.288.232.4.101.112.218.2.352.264.133.059.274.088.424.088.192 0 .368-.048.528-.144a.806.806 0 00.344-.352l1.048.32c-.144.32-.382.582-.712.784-.331.203-.728.304-1.192.304-.342 0-.648-.058-.92-.176a2.126 2.126 0 01-.696-.472 2.199 2.199 0 01-.448-.696 2.306 2.306 0 01-.152-.832zm7.291 1.88c-.144.064-.32.128-.528.192a2.215 2.215 0 01-.656.096c-.149 0-.29-.018-.424-.056a1.002 1.002 0 01-.344-.176.953.953 0 01-.232-.32 1.196 1.196 0 01-.088-.48v-2.408h-.552v-.824h.552v-1.36h1.072v1.36h.88v.824h-.88v2.048c0 .15.038.256.112.32.08.059.176.088.288.088a.967.967 0 00.328-.056c.107-.037.192-.069.256-.096l.216.848zm4.993.296c-.331 0-.619-.072-.864-.216a1.58 1.58 0 01-.576-.6v2.44h-1.072v-5.896h.936v.72a1.671 1.671 0 011.448-.792c.282 0 .544.059.784.176.24.112.445.267.616.464.176.192.312.422.408.688.101.262.152.539.152.832 0 .304-.046.59-.136.856a2.153 2.153 0 01-.384.696c-.16.198-.352.352-.576.464-.224.112-.47.168-.736.168zm-.36-.912c.16 0 .306-.034.44-.104.138-.069.256-.162.352-.28a1.32 1.32 0 00.224-.408c.053-.154.08-.314.08-.48 0-.176-.03-.338-.088-.488a1.2 1.2 0 00-.248-.4 1.089 1.089 0 00-.368-.264 1.077 1.077 0 00-.456-.096.944.944 0 00-.312.056c-.107.032-.206.08-.296.144a1.385 1.385 0 00-.248.224.967.967 0 00-.16.28v.984c.096.24.242.44.44.6.197.155.41.232.64.232zm2.91-5.008h1.072v4.496c0 .155.037.275.112.36.075.086.181.128.32.128.064 0 .133-.01.208-.032.08-.021.155-.048.224-.08l.144.816a2.03 2.03 0 01-.504.16 2.693 2.693 0 01-.52.056c-.336 0-.597-.088-.784-.264-.181-.181-.272-.437-.272-.768v-4.872zm3.691 5.92c-.203 0-.392-.032-.568-.096a1.44 1.44 0 01-.456-.28 1.403 1.403 0 01-.304-.424 1.32 1.32 0 01-.104-.528c0-.197.043-.378.128-.544.091-.17.213-.314.368-.432.16-.117.349-.208.568-.272.219-.069.459-.104.72-.104.187 0 .368.016.544.048.181.032.341.078.48.136v-.24c0-.277-.08-.49-.24-.64-.155-.149-.387-.224-.696-.224-.224 0-.443.04-.656.12-.213.08-.432.198-.656.352l-.328-.68a3.098 3.098 0 011.744-.536c.603 0 1.069.15 1.4.448.336.294.504.72.504 1.28v1.304c0 .112.019.192.056.24.043.048.109.075.2.08v.912a2.338 2.338 0 01-.472.056c-.203 0-.36-.045-.472-.136a.589.589 0 01-.2-.36l-.024-.232a1.849 1.849 0 01-.68.56 1.954 1.954 0 01-.856.192zm.304-.784c.181 0 .352-.032.512-.096a.935.935 0 00.384-.256c.117-.09.176-.192.176-.304v-.48a2.407 2.407 0 00-.416-.112 2.056 2.056 0 00-.432-.048c-.277 0-.504.064-.68.192-.176.123-.264.28-.264.472 0 .182.069.334.208.456a.762.762 0 00.512.176zm4.786.728c-.283 0-.539-.056-.768-.168a1.912 1.912 0 01-.6-.456 2.153 2.153 0 01-.384-.68 2.418 2.418 0 01-.136-.816c0-.304.048-.586.144-.848.096-.261.229-.49.4-.688a1.823 1.823 0 011.408-.632c.325 0 .61.075.856.224.245.144.448.339.608.584v-.736h.936v3.992c0 .31-.059.587-.176.832-.118.246-.28.454-.488.624a2.098 2.098 0 01-.736.392 3.016 3.016 0 01-.928.136c-.459 0-.846-.077-1.16-.232a2.294 2.294 0 01-.8-.64l.584-.568c.16.198.36.352.6.464.245.112.504.168.776.168.165 0 .322-.024.472-.072.154-.042.29-.112.408-.208a.948.948 0 00.272-.368c.069-.149.104-.325.104-.528v-.528c-.139.24-.334.427-.584.56-.251.128-.52.192-.808.192zm.36-.856a.996.996 0 00.336-.056 1.201 1.201 0 00.536-.376c.069-.085.122-.176.16-.272v-1a1.296 1.296 0 00-.456-.592 1.065 1.065 0 00-.64-.224.905.905 0 00-.448.112c-.134.07-.248.166-.344.288a1.322 1.322 0 00-.224.408 1.613 1.613 0 00-.072.48 1.292 1.292 0 00.328.872c.106.112.229.2.368.264.138.064.29.096.456.096zm3.07.832v-4.192h1.072v4.192h-1.072zm0-4.776v-1.064h1.072v1.064h-1.072zm3.183 4.856c-.203 0-.392-.032-.568-.096a1.44 1.44 0 01-.456-.28 1.403 1.403 0 01-.304-.424 1.32 1.32 0 01-.104-.528c0-.197.043-.378.128-.544.091-.17.213-.314.368-.432.16-.117.349-.208.568-.272.219-.069.459-.104.72-.104.187 0 .368.016.544.048.181.032.341.078.48.136v-.24c0-.277-.08-.49-.24-.64-.155-.149-.387-.224-.696-.224-.224 0-.443.04-.656.12-.213.08-.432.198-.656.352l-.328-.68a3.098 3.098 0 011.744-.536c.603 0 1.069.15 1.4.448.336.294.504.72.504 1.28v1.304c0 .112.019.192.056.24.043.048.109.075.2.08v.912a2.338 2.338 0 01-.472.056c-.203 0-.36-.045-.472-.136a.589.589 0 01-.2-.36l-.024-.232a1.849 1.849 0 01-.68.56 1.954 1.954 0 01-.856.192zm.304-.784c.181 0 .352-.032.512-.096a.935.935 0 00.384-.256c.117-.09.176-.192.176-.304v-.48a2.407 2.407 0 00-.416-.112 2.056 2.056 0 00-.432-.048c-.277 0-.504.064-.68.192-.176.123-.264.28-.264.472 0 .182.069.334.208.456a.762.762 0 00.512.176zm5.642-2.56c-.325.006-.616.07-.872.192-.256.118-.44.296-.552.536v2.536h-1.072v-4.192h.984v.896c.075-.144.163-.272.264-.384a1.99 1.99 0 01.328-.304c.117-.085.235-.149.352-.192a.967.967 0 01.352-.072h.128a.48.48 0 01.088.008v.976zm.598 3.264v-4.192h1.072v4.192h-1.072zm0-4.776v-1.064h1.072v1.064h-1.072zm3.623 4.856c-.352 0-.696-.056-1.032-.168a2.517 2.517 0 01-.864-.48l.4-.672c.256.182.504.32.744.416.245.091.488.136.728.136.213 0 .381-.04.504-.12a.387.387 0 00.184-.344c0-.149-.072-.258-.216-.328a4.756 4.756 0 00-.704-.24 8.846 8.846 0 01-.696-.216 1.836 1.836 0 01-.464-.232.834.834 0 01-.256-.304.987.987 0 01-.08-.416c0-.213.04-.405.12-.576a1.26 1.26 0 01.352-.432c.149-.122.322-.216.52-.28.202-.064.421-.096.656-.096.314 0 .608.046.88.136.277.091.53.238.76.44l-.432.648a2.516 2.516 0 00-.624-.352 1.681 1.681 0 00-.592-.112.866.866 0 00-.456.112c-.123.075-.184.195-.184.36 0 .075.013.136.04.184.032.048.08.091.144.128.064.038.146.075.248.112.106.032.237.067.392.104.288.075.533.15.736.224.208.075.376.16.504.256a.86.86 0 01.288.336.96.96 0 01.096.448c0 .411-.152.736-.456.976-.304.235-.718.352-1.24.352zm8.904-.08h-1.072v-2.352c0-.336-.058-.581-.176-.736a.55.55 0 00-.472-.232.894.894 0 00-.6.248c-.186.16-.32.371-.4.632v2.44h-1.072v-2.352c0-.336-.058-.581-.176-.736a.55.55 0 00-.472-.232c-.208 0-.408.08-.6.24-.186.16-.32.371-.4.632v2.448h-1.072v-4.192h.968v.776c.155-.272.366-.48.632-.624.272-.149.582-.224.928-.224.352 0 .624.086.816.256.192.171.315.382.368.632a1.734 1.734 0 011.544-.888c.256 0 .467.048.632.144.166.096.294.222.384.376.091.155.152.331.184.528.038.198.056.398.056.6v2.616zm2.831-1.712v-.968h2.424v.968h-2.424zm9.322-.632c0 .352-.053.678-.16.976-.101.294-.245.55-.432.768a1.893 1.893 0 01-1.472.68 1.91 1.91 0 01-.824-.176 2.059 2.059 0 01-.656-.504 2.56 2.56 0 01-.432-.768 3.026 3.026 0 01-.152-.976c0-.352.051-.674.152-.968.107-.298.251-.554.432-.768.187-.218.405-.389.656-.512.251-.122.525-.184.824-.184.293 0 .565.062.816.184.256.123.475.294.656.512.187.214.331.47.432.768.107.294.16.616.16.968zm-1.08 0c0-.213-.024-.408-.072-.584a1.423 1.423 0 00-.208-.464.916.916 0 00-.312-.296.82.82 0 00-.8 0c-.117.07-.221.168-.312.296a1.555 1.555 0 00-.2.464 2.219 2.219 0 00-.072.584c0 .214.024.408.072.584.048.176.115.328.2.456.091.128.195.227.312.296a.81.81 0 00.408.104.749.749 0 00.392-.104.907.907 0 00.312-.296c.091-.128.16-.28.208-.456.048-.176.072-.37.072-.584zm3.074-.992a1.386 1.386 0 01-.936-.352 1.317 1.317 0 01-.28-.384 1.129 1.129 0 010-.952c.069-.149.163-.277.28-.384a1.374 1.374 0 01.936-.352c.181 0 .352.032.512.096.165.064.307.15.424.256.117.107.211.235.28.384a1.129 1.129 0 010 .952 1.317 1.317 0 01-.28.384 1.337 1.337 0 01-.424.256c-.16.064-.331.096-.512.096zm0-.536c.08 0 .152-.018.216-.056a.674.674 0 00.184-.144.673.673 0 00.12-.216.743.743 0 00.048-.264.693.693 0 00-.168-.472.508.508 0 00-.4-.2.468.468 0 00-.224.056.675.675 0 00-.176.152.693.693 0 00-.128.208.798.798 0 00-.04.256.72.72 0 00.168.48c.112.134.245.2.4.2zm3.088 3.952a1.386 1.386 0 01-.936-.352 1.129 1.129 0 01-.384-.856c0-.17.035-.328.104-.472.069-.149.163-.277.28-.384.117-.112.256-.2.416-.264.16-.064.333-.096.52-.096s.36.032.52.096c.16.064.299.152.416.264.123.107.216.235.28.384.069.144.104.302.104.472a1.129 1.129 0 01-.384.856 1.386 1.386 0 01-.936.352zm0-.536c.08 0 .152-.018.216-.056a.674.674 0 00.184-.144.673.673 0 00.12-.216.682.682 0 00.048-.256.705.705 0 00-.048-.264.676.676 0 00-.128-.216.46.46 0 00-.176-.144.452.452 0 00-.44 0 .675.675 0 00-.176.152.676.676 0 00-.168.472.72.72 0 00.168.48.514.514 0 00.4.192zm-3.96.08l2.256-2.632 2.08-2.736.488.432-2.184 2.584-2.152 2.784-.488-.432zM96.02 214.96v-3.76l-1.463 2.8h-.6l-1.464-2.8v3.76h-1.104v-5.68h1.184l1.68 3.232 1.696-3.232h1.176v5.68H96.02zm4.068.08a2.29 2.29 0 01-.92-.176 2.126 2.126 0 01-.696-.472 2.166 2.166 0 01-.432-.696 2.257 2.257 0 01-.152-.824c0-.293.05-.57.152-.832.101-.261.245-.49.432-.688a2.1 2.1 0 01.696-.48c.272-.117.579-.176.92-.176.341 0 .645.059.912.176.272.118.501.278.688.48.192.198.339.427.44.688.101.262.152.539.152.832 0 .288-.051.563-.152.824a2.156 2.156 0 01-.432.696 2.04 2.04 0 01-.688.472 2.29 2.29 0 01-.92.176zm-1.096-2.168c0 .187.027.358.08.512.059.15.136.28.232.392.101.112.219.2.352.264.133.059.277.088.432.088.155 0 .299-.029.432-.088.133-.064.248-.152.344-.264.101-.112.179-.245.232-.4.059-.154.088-.325.088-.512 0-.181-.029-.349-.088-.504a1.15 1.15 0 00-.232-.4.96.96 0 00-.344-.256.983.983 0 00-.432-.096.985.985 0 00-.432.096 1.13 1.13 0 00-.352.264 1.343 1.343 0 00-.232.4c-.053.155-.08.323-.08.504zm5.596 2.168c-.352 0-.696-.056-1.032-.168a2.517 2.517 0 01-.864-.48l.4-.672c.256.182.504.32.744.416.245.091.488.136.728.136.213 0 .381-.04.504-.12a.387.387 0 00.184-.344c0-.149-.072-.258-.216-.328a4.756 4.756 0 00-.704-.24 8.846 8.846 0 01-.696-.216 1.836 1.836 0 01-.464-.232.834.834 0 01-.256-.304.987.987 0 01-.08-.416c0-.213.04-.405.12-.576a1.26 1.26 0 01.352-.432c.149-.122.322-.216.52-.28.202-.064.421-.096.656-.096.314 0 .608.046.88.136.277.091.53.238.76.44l-.432.648a2.516 2.516 0 00-.624-.352 1.681 1.681 0 00-.592-.112.866.866 0 00-.456.112c-.123.075-.184.195-.184.36 0 .075.013.136.04.184.032.048.08.091.144.128.064.038.146.075.248.112.106.032.237.067.392.104.288.075.533.15.736.224.208.075.376.16.504.256a.86.86 0 01.288.336.96.96 0 01.096.448c0 .411-.152.736-.456.976-.304.235-.718.352-1.24.352zm3.536 0c-.202 0-.392-.032-.568-.096a1.44 1.44 0 01-.456-.28 1.403 1.403 0 01-.304-.424 1.32 1.32 0 01-.104-.528c0-.197.043-.378.128-.544a1.33 1.33 0 01.368-.432c.16-.117.35-.208.568-.272.219-.069.459-.104.72-.104.187 0 .368.016.544.048.182.032.342.078.48.136v-.24c0-.277-.08-.49-.24-.64-.154-.149-.386-.224-.696-.224-.224 0-.442.04-.656.12-.213.08-.432.198-.656.352l-.328-.68a3.098 3.098 0 011.744-.536c.603 0 1.07.15 1.4.448.336.294.504.72.504 1.28v1.304c0 .112.019.192.056.24.043.048.11.075.2.08v.912a2.33 2.33 0 01-.472.056c-.202 0-.36-.045-.472-.136a.594.594 0 01-.2-.36l-.024-.232a1.84 1.84 0 01-.68.56 1.95 1.95 0 01-.856.192zm.304-.784c.182 0 .352-.032.512-.096a.922.922 0 00.384-.256c.118-.09.176-.192.176-.304v-.48a2.383 2.383 0 00-.416-.112 2.056 2.056 0 00-.432-.048c-.277 0-.504.064-.68.192-.176.123-.264.28-.264.472 0 .182.07.334.208.456.139.118.31.176.512.176zm3.146.704v-4.192h1.072v4.192h-1.072zm0-4.776v-1.064h1.072v1.064h-1.072zm1.775 2.68c0-.293.051-.57.152-.832a2.03 2.03 0 01.44-.688c.192-.197.424-.354.696-.472.272-.117.579-.176.92-.176.459 0 .848.099 1.168.296.325.198.568.456.728.776l-1.048.32a.985.985 0 00-.856-.48.983.983 0 00-.432.096 1.035 1.035 0 00-.352.256 1.249 1.249 0 00-.232.392c-.053.155-.08.326-.08.512 0 .187.029.358.088.512.059.155.136.288.232.4.101.112.219.2.352.264.133.059.275.088.424.088.192 0 .368-.048.528-.144a.806.806 0 00.344-.352l1.048.32c-.144.32-.381.582-.712.784-.331.203-.728.304-1.192.304a2.29 2.29 0 01-.92-.176 2.126 2.126 0 01-.696-.472 2.216 2.216 0 01-.448-.696 2.327 2.327 0 01-.152-.832zm9.214 2.176c-.331 0-.619-.072-.864-.216a1.58 1.58 0 01-.576-.6v2.44h-1.072v-5.896h.936v.72a1.671 1.671 0 011.448-.792c.282 0 .544.059.784.176.24.112.445.267.616.464.176.192.312.422.408.688.101.262.152.539.152.832 0 .304-.046.59-.136.856a2.153 2.153 0 01-.384.696c-.16.198-.352.352-.576.464-.224.112-.47.168-.736.168zm-.36-.912c.16 0 .306-.034.44-.104.138-.069.256-.162.352-.28a1.32 1.32 0 00.224-.408c.053-.154.08-.314.08-.48 0-.176-.03-.338-.088-.488a1.2 1.2 0 00-.248-.4 1.089 1.089 0 00-.368-.264 1.077 1.077 0 00-.456-.096.944.944 0 00-.312.056c-.107.032-.206.08-.296.144a1.385 1.385 0 00-.248.224.967.967 0 00-.16.28v.984c.096.24.242.44.439.6.198.155.411.232.641.232zm2.91-5.008h1.072v4.496c0 .155.037.275.112.36.074.086.181.128.32.128.064 0 .133-.01.208-.032.08-.021.154-.048.224-.08l.144.816a2.03 2.03 0 01-.504.16 2.701 2.701 0 01-.52.056c-.336 0-.598-.088-.784-.264-.182-.181-.272-.437-.272-.768v-4.872zm3.691 5.92c-.203 0-.392-.032-.568-.096a1.44 1.44 0 01-.456-.28 1.403 1.403 0 01-.304-.424 1.32 1.32 0 01-.104-.528c0-.197.043-.378.128-.544.091-.17.213-.314.368-.432.16-.117.349-.208.568-.272.219-.069.459-.104.72-.104.187 0 .368.016.544.048.181.032.341.078.48.136v-.24c0-.277-.08-.49-.24-.64-.155-.149-.387-.224-.696-.224-.224 0-.443.04-.656.12-.213.08-.432.198-.656.352l-.328-.68a3.098 3.098 0 011.744-.536c.603 0 1.069.15 1.4.448.336.294.504.72.504 1.28v1.304c0 .112.019.192.056.24.043.048.109.075.2.08v.912a2.338 2.338 0 01-.472.056c-.203 0-.36-.045-.472-.136a.589.589 0 01-.2-.36l-.024-.232a1.849 1.849 0 01-.68.56 1.954 1.954 0 01-.856.192zm.304-.784c.181 0 .352-.032.512-.096a.935.935 0 00.384-.256c.117-.09.176-.192.176-.304v-.48a2.407 2.407 0 00-.416-.112 2.056 2.056 0 00-.432-.048c-.277 0-.504.064-.68.192-.176.123-.264.28-.264.472 0 .182.069.334.208.456a.762.762 0 00.512.176zm4.786.728c-.283 0-.539-.056-.768-.168a1.912 1.912 0 01-.6-.456 2.153 2.153 0 01-.384-.68 2.418 2.418 0 01-.136-.816c0-.304.048-.586.144-.848.096-.261.229-.49.4-.688a1.823 1.823 0 011.408-.632c.325 0 .61.075.856.224.245.144.448.339.608.584v-.736h.936v3.992c0 .31-.059.587-.176.832-.118.246-.28.454-.488.624a2.098 2.098 0 01-.736.392 3.016 3.016 0 01-.928.136c-.459 0-.846-.077-1.16-.232a2.294 2.294 0 01-.8-.64l.584-.568c.16.198.36.352.6.464.245.112.504.168.776.168.165 0 .322-.024.472-.072.154-.042.29-.112.408-.208a.948.948 0 00.272-.368c.069-.149.104-.325.104-.528v-.528c-.139.24-.334.427-.584.56-.251.128-.52.192-.808.192zm.36-.856a.996.996 0 00.336-.056 1.201 1.201 0 00.536-.376c.069-.085.122-.176.16-.272v-1a1.296 1.296 0 00-.456-.592 1.065 1.065 0 00-.64-.224.905.905 0 00-.448.112c-.134.07-.248.166-.344.288a1.322 1.322 0 00-.224.408 1.613 1.613 0 00-.072.48 1.292 1.292 0 00.328.872c.106.112.229.2.368.264.138.064.29.096.456.096zm3.07.832v-4.192h1.072v4.192h-1.072zm0-4.776v-1.064h1.072v1.064h-1.072zm3.183 4.856c-.203 0-.392-.032-.568-.096a1.44 1.44 0 01-.456-.28 1.403 1.403 0 01-.304-.424 1.32 1.32 0 01-.104-.528c0-.197.043-.378.128-.544.091-.17.213-.314.368-.432.16-.117.349-.208.568-.272.219-.069.459-.104.72-.104.187 0 .368.016.544.048.181.032.341.078.48.136v-.24c0-.277-.08-.49-.24-.64-.155-.149-.387-.224-.696-.224-.224 0-.443.04-.656.12-.213.08-.432.198-.656.352l-.328-.68a3.098 3.098 0 011.744-.536c.603 0 1.069.15 1.4.448.336.294.504.72.504 1.28v1.304c0 .112.019.192.056.24.043.048.109.075.2.08v.912a2.338 2.338 0 01-.472.056c-.203 0-.36-.045-.472-.136a.589.589 0 01-.2-.36l-.024-.232a1.849 1.849 0 01-.68.56 1.954 1.954 0 01-.856.192zm.304-.784c.181 0 .352-.032.512-.096a.935.935 0 00.384-.256c.117-.09.176-.192.176-.304v-.48a2.407 2.407 0 00-.416-.112 2.056 2.056 0 00-.432-.048c-.277 0-.504.064-.68.192-.176.123-.264.28-.264.472 0 .182.069.334.208.456a.762.762 0 00.512.176zm5.642-2.56c-.326.006-.616.07-.872.192-.256.118-.44.296-.552.536v2.536h-1.072v-4.192h.984v.896c.074-.144.162-.272.264-.384a1.95 1.95 0 01.328-.304 1.44 1.44 0 01.352-.192.963.963 0 01.352-.072h.128a.48.48 0 01.088.008v.976zm.598 3.264v-4.192h1.072v4.192h-1.072zm0-4.776v-1.064h1.072v1.064h-1.072zm3.623 4.856c-.352 0-.696-.056-1.032-.168a2.517 2.517 0 01-.864-.48l.4-.672c.256.182.504.32.744.416.245.091.488.136.728.136.213 0 .381-.04.504-.12a.387.387 0 00.184-.344c0-.149-.072-.258-.216-.328a4.756 4.756 0 00-.704-.24 8.846 8.846 0 01-.696-.216 1.836 1.836 0 01-.464-.232.834.834 0 01-.256-.304.987.987 0 01-.08-.416c0-.213.04-.405.12-.576a1.26 1.26 0 01.352-.432c.149-.122.322-.216.52-.28.202-.064.421-.096.656-.096.314 0 .608.046.88.136.277.091.53.238.76.44l-.432.648a2.516 2.516 0 00-.624-.352 1.681 1.681 0 00-.592-.112.866.866 0 00-.456.112c-.123.075-.184.195-.184.36 0 .075.013.136.04.184.032.048.08.091.144.128.064.038.146.075.248.112.106.032.237.067.392.104.288.075.533.15.736.224.208.075.376.16.504.256a.86.86 0 01.288.336.96.96 0 01.096.448c0 .411-.152.736-.456.976-.304.235-.718.352-1.24.352zm8.904-.08h-1.072v-2.352c0-.336-.059-.581-.176-.736a.55.55 0 00-.472-.232.894.894 0 00-.6.248c-.187.16-.32.371-.4.632v2.44h-1.072v-2.352c0-.336-.059-.581-.176-.736a.55.55 0 00-.472-.232c-.208 0-.408.08-.6.24-.187.16-.32.371-.4.632v2.448h-1.072v-4.192h.968v.776a1.58 1.58 0 01.632-.624c.272-.149.581-.224.928-.224.352 0 .624.086.816.256.192.171.315.382.368.632a1.731 1.731 0 011.544-.888c.256 0 .467.048.632.144.165.096.293.222.384.376.091.155.152.331.184.528.037.198.056.398.056.6v2.616zm2.831-1.712v-.968h2.424v.968h-2.424zm8.562.744v.968h-3.248v-.968h1.136v-2.424a.895.895 0 01-.232.2 3.09 3.09 0 01-.336.184 2.33 2.33 0 01-.384.144 1.221 1.221 0 01-.344.056v-1a.934.934 0 00.352-.088 3.26 3.26 0 00.408-.224c.133-.085.248-.168.344-.248a.888.888 0 00.192-.2h1.096v3.6h1.016zm1.793-2.368a1.386 1.386 0 01-.936-.352 1.317 1.317 0 01-.28-.384 1.129 1.129 0 010-.952c.069-.149.163-.277.28-.384a1.374 1.374 0 01.936-.352c.181 0 .352.032.512.096.165.064.307.15.424.256.117.107.211.235.28.384a1.129 1.129 0 010 .952 1.317 1.317 0 01-.28.384 1.337 1.337 0 01-.424.256c-.16.064-.331.096-.512.096zm0-.536c.08 0 .152-.018.216-.056a.674.674 0 00.184-.144.673.673 0 00.12-.216.743.743 0 00.048-.264.693.693 0 00-.168-.472.508.508 0 00-.4-.2.468.468 0 00-.224.056.675.675 0 00-.176.152.693.693 0 00-.128.208.798.798 0 00-.04.256.72.72 0 00.168.48c.112.134.245.2.4.2zm3.088 3.952a1.386 1.386 0 01-.936-.352 1.129 1.129 0 01-.384-.856c0-.17.035-.328.104-.472.069-.149.163-.277.28-.384.117-.112.256-.2.416-.264.16-.064.333-.096.52-.096s.36.032.52.096c.16.064.299.152.416.264.123.107.216.235.28.384.069.144.104.302.104.472a1.129 1.129 0 01-.384.856 1.386 1.386 0 01-.936.352zm0-.536c.08 0 .152-.018.216-.056a.674.674 0 00.184-.144.673.673 0 00.12-.216.682.682 0 00.048-.256.705.705 0 00-.048-.264.676.676 0 00-.128-.216.46.46 0 00-.176-.144.452.452 0 00-.44 0 .675.675 0 00-.176.152.676.676 0 00-.168.472.72.72 0 00.168.48.514.514 0 00.4.192zm-3.96.08l2.256-2.632 2.08-2.736.488.432-2.184 2.584-2.152 2.784-.488-.432z" fill="#000"/><path fill="#F3F3F3" d="M90.797 221.978h97.579v5.256H90.797z"/><path fill="#fff" d="M195.882 80.06h3.002v12.014h-3.002z"/><defs><clipPath id="clip0"><path fill="#fff" transform="translate(312.976 52.48)" d="M0 0h4.504v4.505H0z"/></clipPath><clipPath id="clip1"><path fill="#fff" transform="translate(319.731 52.48)" d="M0 0h4.504v4.505H0z"/></clipPath><clipPath id="clip2"><path fill="#fff" transform="translate(327.237 52.48)" d="M0 0h4.504v4.505H0z"/></clipPath><filter id="filter0_d" x="13" y="29.519" width="350" height="234.48" filterUnits="userSpaceOnUse" color-interpolation-filters="sRGB"><feFlood flood-opacity="0" result="BackgroundImageFix"/><feColorMatrix in="SourceAlpha" values="0 0 0 0 0 0 0 0 0 0 0 0 0 0 0 0 0 0 127 0" result="hardAlpha"/><feOffset dy="4"/><feGaussianBlur stdDeviation="10"/><feColorMatrix values="0 0 0 0 0 0 0 0 0 0 0 0 0 0 0 0 0 0 0.1 0"/><feBlend in2="BackgroundImageFix" result="effect1_dropShadow"/><feBlend in="SourceGraphic" in2="effect1_dropShadow" result="shape"/></filter></defs></svg>