<svg width="238" height="178" fill="none" xmlns="http://www.w3.org/2000/svg"><path fill-rule="evenodd" clip-rule="evenodd" d="M83.015 154.605c-1.483.08-2.977.121-4.48.121C35.16 154.726 0 120.761 0 78.863 0 36.965 35.161 3 78.534 3c25.542 0 48.235 11.778 62.578 30.019 9.2-5.493 19.956-8.65 31.45-8.65C206.493 24.37 234 51.878 234 85.81c0 33.931-27.507 61.438-61.438 61.438a61.398 61.398 0 0 1-18.911-2.966c-1.985 18.487-17.637 32.883-36.651 32.883-15.287 0-28.4-9.304-33.985-22.559Z" fill="#E9E9E9"/><path fill-rule="evenodd" clip-rule="evenodd" d="M181 128.728a1 1 0 1 1 1-1c0 .555-.448 1-1 1m0-9.526a1 1 0 1 1 0-2 1 1 0 0 1 0 2m0-9.521a1 1 0 0 1-1-1.004 1 1 0 1 1 2 0c0 .555-.448 1.004-1 1.004m0-9.529a1 1 0 1 1-.001-2 1 1 0 0 1 .001 2m0-9.526a1 1 0 1 1 0-2 1 1 0 0 1 0 2m0-9.525a.998.998 0 1 1 0-1.997.998.998 0 1 1 0 1.997m0-9.525a1 1 0 1 1-.001-2.001 1 1 0 0 1 .001 2.001m0-9.526a1 1 0 1 1 0-2 1 1 0 0 1 0 2m0-9.525a1 1 0 1 1 0-2 1 1 0 0 1 0 2M181 43a1 1 0 1 1 0-2 1 1 0 0 1 0 2M192.007 128.58c-.551 0-1-.412-1-.926 0-.511.449-.926 1-.926.552 0 1 .415 1 .926 0 .514-.448.926-1 .926m0-9.525c-.551 0-1-.413-1-.926 0-.511.449-.927 1-.927.552 0 1 .416 1 .927 0 .513-.448.926-1 .926m0-9.522c-.551 0-1-.416-1-.93 0-.51.449-.926 1-.926.552 0 1 .416 1 .926 0 .514-.448.93-1 .93m0-9.529c-.551 0-1-.412-1-.926 0-.51.449-.926 1-.926.552 0 1 .416 1 .926 0 .514-.448.926-1 .926m0-9.526c-.551 0-1-.412-1-.925 0-.511.449-.927 1-.927.552 0 1 .416 1 .927 0 .513-.448.925-1 .925m0-9.525c-.551 0-1-.412-1-.926 0-.51.449-.923 1-.923.552 0 1 .413 1 .923 0 .514-.448.926-1 .926m0-9.525c-.551 0-1-.412-1-.926 0-.51.449-.926 1-.926.552 0 1 .416 1 .926 0 .514-.448.926-1 .926m0-9.525c-.551 0-1-.413-1-.926 0-.511.449-.927 1-.927.552 0 1 .416 1 .927 0 .513-.448.926-1 .926m0-9.526c-.551 0-1-.412-1-.925 0-.511.449-.927 1-.927.552 0 1 .416 1 .927 0 .513-.448.925-1 .925m0-9.525c-.551 0-1-.412-1-.923 0-.513.449-.929 1-.929.552 0 1 .416 1 .929 0 .51-.448.923-1 .923M203.019 128.58c-.555 0-1.001-.412-1.001-.926 0-.511.446-.926 1.001-.926.552 0 .999.415.999.926 0 .514-.447.926-.999.926m0-9.525c-.555 0-1.001-.413-1.001-.926 0-.511.446-.927 1.001-.927.552 0 .999.416.999.927 0 .513-.447.926-.999.926m0-9.522c-.555 0-1.001-.416-1.001-.93 0-.51.446-.926 1.001-.926.552 0 .999.416.999.926 0 .514-.447.93-.999.93m0-9.529c-.555 0-1.001-.412-1.001-.926 0-.51.446-.926 1.001-.926.552 0 .999.416.999.926 0 .514-.447.926-.999.926m0-9.526c-.555 0-1.001-.412-1.001-.925 0-.511.446-.927 1.001-.927.552 0 .999.416.999.927 0 .513-.447.925-.999.925m0-9.525c-.555 0-1.001-.412-1.001-.926 0-.51.446-.923 1.001-.923.552 0 .999.413.999.923 0 .514-.447.926-.999.926m0-9.525c-.555 0-1.001-.412-1.001-.926 0-.51.446-.926 1.001-.926.552 0 .999.416.999.926 0 .514-.447.926-.999.926m0-9.525c-.555 0-1.001-.413-1.001-.926 0-.511.446-.927 1.001-.927.552 0 .999.416.999.927 0 .513-.447.926-.999.926m0-9.526c-.555 0-1.001-.412-1.001-.925 0-.511.446-.927 1.001-.927.552 0 .999.416.999.927 0 .513-.447.925-.999.925m0-9.525c-.555 0-1.001-.412-1.001-.923 0-.513.446-.929 1.001-.929.552 0 .999.416.999.929 0 .51-.447.923-.999.923M214 128.728a1 1 0 1 1 1-1c0 .555-.448 1-1 1m0-9.526a1 1 0 1 1 0-2 1 1 0 0 1 0 2m0-9.521a1 1 0 0 1-1-1.004 1 1 0 1 1 2 0c0 .555-.448 1.004-1 1.004m0-9.529a1 1 0 1 1-.001-2 1 1 0 0 1 .001 2m0-9.526a1 1 0 1 1 0-2 1 1 0 0 1 0 2m0-9.525a.998.998 0 1 1 0-1.997.998.998 0 1 1 0 1.997m0-9.525a1 1 0 1 1-.001-2.001 1 1 0 0 1 .001 2.001m0-9.526a1 1 0 1 1 0-2 1 1 0 0 1 0 2m0-9.525a1 1 0 1 1 0-2 1 1 0 0 1 0 2M214 43a1 1 0 1 1 0-2 1 1 0 0 1 0 2M225.007 128.58c-.551 0-1-.412-1-.926 0-.511.449-.926 1-.926.552 0 1 .415 1 .926 0 .514-.448.926-1 .926m0-9.525c-.551 0-1-.413-1-.926 0-.511.449-.927 1-.927.552 0 1 .416 1 .927 0 .513-.448.926-1 .926m0-9.522c-.551 0-1-.416-1-.93 0-.51.449-.926 1-.926.552 0 1 .416 1 .926 0 .514-.448.93-1 .93m0-9.529c-.551 0-1-.412-1-.926 0-.51.449-.926 1-.926.552 0 1 .416 1 .926 0 .514-.448.926-1 .926m0-9.526c-.551 0-1-.412-1-.925 0-.511.449-.927 1-.927.552 0 1 .416 1 .927 0 .513-.448.925-1 .925m0-9.525c-.551 0-1-.412-1-.926 0-.51.449-.923 1-.923.552 0 1 .413 1 .923 0 .514-.448.926-1 .926m0-9.525c-.551 0-1-.412-1-.926 0-.51.449-.926 1-.926.552 0 1 .416 1 .926 0 .514-.448.926-1 .926m0-9.525c-.551 0-1-.413-1-.926 0-.511.449-.927 1-.927.552 0 1 .416 1 .927 0 .513-.448.926-1 .926m0-9.526c-.551 0-1-.412-1-.925 0-.511.449-.927 1-.927.552 0 1 .416 1 .927 0 .513-.448.925-1 .925m0-9.525c-.551 0-1-.412-1-.923 0-.513.449-.929 1-.929.552 0 1 .416 1 .929 0 .51-.448.923-1 .923M236.019 128.58c-.555 0-1.001-.412-1.001-.926 0-.511.446-.926 1.001-.926.552 0 .999.415.999.926 0 .514-.447.926-.999.926m0-9.525c-.555 0-1.001-.413-1.001-.926 0-.511.446-.927 1.001-.927.552 0 .999.416.999.927 0 .513-.447.926-.999.926m0-9.522c-.555 0-1.001-.416-1.001-.93 0-.51.446-.926 1.001-.926.552 0 .999.416.999.926 0 .514-.447.93-.999.93m0-9.529c-.555 0-1.001-.412-1.001-.926 0-.51.446-.926 1.001-.926.552 0 .999.416.999.926 0 .514-.447.926-.999.926m0-9.526c-.555 0-1.001-.412-1.001-.925 0-.511.446-.927 1.001-.927.552 0 .999.416.999.927 0 .513-.447.925-.999.925m0-9.525c-.555 0-1.001-.412-1.001-.926 0-.51.446-.923 1.001-.923.552 0 .999.413.999.923 0 .514-.447.926-.999.926m0-9.525c-.555 0-1.001-.412-1.001-.926 0-.51.446-.926 1.001-.926.552 0 .999.416.999.926 0 .514-.447.926-.999.926m0-9.525c-.555 0-1.001-.413-1.001-.926 0-.511.446-.927 1.001-.927.552 0 .999.416.999.927 0 .513-.447.926-.999.926m0-9.526c-.555 0-1.001-.412-1.001-.925 0-.511.446-.927 1.001-.927.552 0 .999.416.999.927 0 .513-.447.925-.999.925m0-9.525c-.555 0-1.001-.412-1.001-.923 0-.513.446-.929 1.001-.929.552 0 .999.416.999.929 0 .51-.447.923-.999.923" fill="#121212"/><path d="M141.589 23.178c1.352-5.207 3.882-19.002-13.525-19.002-17.406 0-13.322 6.762-20.842 1.352C99.702.118 94.55-2.167 90.046 2.58c-4.504 4.747 1.501 14.255-1.732 14.255-3.232 0-5.152-4.977-9.873 0-4.72 4.977 2.462 7.344 0 9.94-2.461 2.598-4.774 15.717 4.234 22.614a4.19 4.19 0 0 1 .716-.135 48.04 48.04 0 0 1 1.515-15.31C89.14 19.067 97.43 11.466 110.915 11.52c9.778 0 17.244 6.154 20.977 15.296a31.088 31.088 0 0 1 2.001 9.319c.331 4.39.331 8.797 0 13.187.865.133 1.68.487 2.367 1.028a2.58 2.58 0 0 0 1.136-.325c1.826-1.92 8.25-7.79 8.25-13.66s-5.342-7.98-4.057-13.187Z" fill="#211915"/><path d="M138.749 51.378a5.098 5.098 0 0 0-4.315-3.68 80.692 80.692 0 0 0-.108-13.524 27.042 27.042 0 0 0-2.272-8.791 24.347 24.347 0 0 0-22.073-13.917c-12.28 0-20.693 7.276-24.966 21.477a42.186 42.186 0 0 0-1.596 12.565 2.704 2.704 0 0 1-1.745 2.529 5.195 5.195 0 0 0-2.178 1.84c-2.136 3.205.393 7.546 4.234 7.83l1.176.081c1.556 6.763 4.193 12.673 7.371 16.122l-.865 41.927c9.697 11.05 26.116 11.807 35.692.365l-1.353-42.251a52.073 52.073 0 0 0 7.047-16.122l1.204-.081a4.988 4.988 0 0 0 4.861-4.096 5.01 5.01 0 0 0-.114-2.274v0Z" fill="#fff" stroke="#211915" stroke-width="1.4" stroke-miterlimit="10" stroke-linecap="round"/><path d="M125.386 73.896c-9.305 8.967-19.192 6.492-24.345 4.95a22.088 22.088 0 0 1-9.143-5.707v9.914l.23.067a37.87 37.87 0 0 0 9.576 1.272 33.626 33.626 0 0 0 23.925-10.103l1.055-1.515s-.094-.663-.378-.244c-.622.934-.798 1.245-.92 1.366Z" fill="#211915"/><path d="M84.19 54.786c-.22-.596-.491-1.17-.812-1.718a2.07 2.07 0 0 0-1.15-1.028c-.42-.108-1.136 0-1.271.365-.136.365.108 1.069.419 1.61a.121.121 0 0 1 0 .162.122.122 0 0 1-.135 0 3.03 3.03 0 0 1-.69-.798 1.499 1.499 0 0 1-.23-1.19 1.474 1.474 0 0 1 .92-.92 2.164 2.164 0 0 1 1.217-.135 2.475 2.475 0 0 1 1.718 1.555c.281.648.415 1.35.392 2.056a.163.163 0 0 1-.176.162.163.163 0 0 1-.149-.094l-.054-.027ZM132.986 54.732a4.966 4.966 0 0 1 .352-2.002 2.496 2.496 0 0 1 1.717-1.555 2.152 2.152 0 0 1 1.218.135 1.462 1.462 0 0 1 .933.92c.08.411-.003.838-.23 1.19a3.067 3.067 0 0 1-.74.825.107.107 0 0 1-.089 0 .117.117 0 0 1-.037-.027.173.173 0 0 1 0-.136c.311-.54.595-1.244.42-1.61-.176-.364-.852-.472-1.272-.364a2.055 2.055 0 0 0-1.136 1.028 10.612 10.612 0 0 0-.825 1.717.164.164 0 0 1-.196.129.166.166 0 0 1-.128-.196l.013-.054Z" fill="#1D1D1B"/><path d="M123.75 75.357a10.955 10.955 0 0 0 2.705-3.11l-.839 2.042-1.866 1.068ZM99.148 44.034c0 1.109-.663 2.015-1.488 2.015s-1.501-.906-1.501-2.015c0-1.11.676-2.015 1.5-2.015.826 0 1.489.892 1.489 2.015ZM120.653 44.034c0 1.109-.663 2.015-1.488 2.015s-1.501-.906-1.501-2.015c0-1.11.676-2.015 1.501-2.015.825 0 1.488.906 1.488 2.015Z" fill="#211915"/><path d="M90.68 34.702a12.064 12.064 0 0 1 7.953-4.234 7.721 7.721 0 0 1 4.504 1.353 9.144 9.144 0 0 1 3.179 3.476c.379.716.626 1.495.73 2.299.095.784.122 1.542.149 2.299v4.558c0 3.03-.163 6.059-.325 9.089l-.203-.217c1.488 0 2.976.108 4.463.203-1.487.095-2.975.149-4.463.217h-.203v-.23l-.108-9.076c0-1.5 0-3.016-.122-4.517 0-.744-.094-1.501-.162-2.231a5.702 5.702 0 0 0-.608-2.016 8.114 8.114 0 0 0-6.871-4.517 9.615 9.615 0 0 0-4.233 1.068 16.446 16.446 0 0 0-3.68 2.476ZM129.2 34.701a11.218 11.218 0 0 0-3.733-1.798 14.765 14.765 0 0 0-4.057-.569c-2.786-.08-5.521.751-7.791 2.367a8.12 8.12 0 0 1 3.49-2.515 11.43 11.43 0 0 1 4.301-.785c1.467.004 2.92.279 4.287.812 1.37.5 2.58 1.36 3.503 2.488ZM101.649 60.615a17.595 17.595 0 0 0 3.408 2.218 9.19 9.19 0 0 0 3.76 1.015 7.005 7.005 0 0 0 3.733-.866 11.813 11.813 0 0 0 1.704-1.055c.541-.392 1.015-.893 1.583-1.352a21.615 21.615 0 0 1-1.285 1.65 8.33 8.33 0 0 1-1.637 1.352 6.841 6.841 0 0 1-4.138 1.163 8.29 8.29 0 0 1-4.058-1.352 10.439 10.439 0 0 1-3.07-2.773Z" fill="#211915"/><path d="M97.66 54.083c0 2.069-2.218 3.732-4.95 3.732s-4.95-1.663-4.95-3.732c0-2.07 2.205-3.733 4.95-3.733 2.746 0 4.95 1.677 4.95 3.733ZM129.065 54.083c0 2.069-2.218 3.732-4.95 3.732-2.733 0-4.951-1.663-4.951-3.732 0-2.07 2.218-3.733 4.951-3.733 2.732 0 4.95 1.677 4.95 3.733Z" fill="#F9CED9"/><path d="M94.833 18.54a5.153 5.153 0 0 1 8.115-2.192c4.342 3.544 10.685 7.655 16.23 7.195 9.616-.798 11.144-3.651 10.035 2.394-1.109 6.046 2.097 6.763 3.341 11.97 1.244 5.207-1.772 12.43 1.853 9.805 3.625-2.623 6.925-25.426-4.125-31.229-11.05-5.802-21.424-9.765-32.609-4.963-11.185 4.801-19.367 25.548-16.027 36.517 0 0 2.908.622 3.774-4.558.865-5.18-2.935-10.752 3.354-14.715 3.07-1.88 3.828-4.341 6.06-10.225Z" fill="#211915"/><path d="M126.197 100.365c-15.675 7.195-34.57.081-34.758 0-19.666 4.125-37.424 15.391-39.439 34.88V165h113.19l.689-28.754c-1.663-19.949-19.665-31.661-39.682-35.881Z" fill="#fff"/><path d="M126.197 100.365c-15.675 7.195-34.57.081-34.758 0-19.666 4.125-37.424 15.391-39.439 34.88V165h113.19l.689-28.754c-1.663-19.949-19.665-31.661-39.682-35.881Z" stroke="#211915" stroke-width="1.4" stroke-miterlimit="10" stroke-linecap="round"/><path d="M79.482 141.223v23.709M139.587 141.223v23.709" stroke="#000" stroke-width="1.4" stroke-miterlimit="10" stroke-linecap="round"/><path d="M134.205 44.725h-1.894c-.826-4.558-5.082-8.044-10.206-8.044-5.058 0-9.292 3.313-10.273 7.705-.844-.654-1.806-1.002-2.821-1.002-1.014 0-1.976.348-2.819 1.002-.97-4.392-5.152-7.705-10.15-7.705-5.487 0-9.997 3.902-10.443 8.849h-1.782c-.48 0-.869.36-.869.804 0 .444.388.804.869.804h1.782c.446 4.947 4.956 8.849 10.443 8.849 5.618 0 10.196-4.189 10.348-9.389.741-1.033 1.663-1.605 2.621-1.605.957 0 1.88.573 2.621 1.605.154 5.2 4.788 9.389 10.473 9.389 5.714 0 10.362-4.33 10.362-9.653h1.738c.48 0 .869-.36.869-.805 0-.444-.389-.804-.869-.804Zm-38.163 9.653c-4.824 0-8.75-3.609-8.75-8.044 0-4.436 3.926-8.044 8.75-8.044 4.837 0 8.625 3.534 8.625 8.044 0 4.51-3.788 8.044-8.625 8.044Zm26.063 0c-4.824 0-8.75-3.609-8.75-8.044 0-4.436 3.926-8.044 8.75-8.044 4.837 0 8.625 3.534 8.625 8.044 0 4.51-3.788 8.044-8.625 8.044Z" fill="#211915"/><path d="m71.935 31.833-4.705-2.265 1.68 5.164 15.507 18.044c.624.37 2.074.915 2.88.142.807-.773 1.04-1.642 1.057-1.98l-16.42-19.105Z" fill="#FAFAFB"/><path d="M87.848 53.107c.974-.97 1.026-2.707.111-3.732l-16.124-18.08a.473.473 0 0 0-.158-.115l-4.729-2.165a.458.458 0 0 0-.52.096.524.524 0 0 0-.12.542l1.764 5.112c.04.11.112.203.206.262.36.332 2.986 3.191 16.02 17.973a2.414 2.414 0 0 0 1.745.835c.67.022 1.31-.234 1.805-.728Zm-2.846-.798C72.827 38.504 69.82 35.16 68.949 34.349l-1.359-3.937 3.614 1.654L87.262 50.07c.564.633.539 1.697-.076 2.31a1.483 1.483 0 0 1-2.184-.07Z" fill="#000"/><path d="m69.316 35.478 2.964-2.947a.526.526 0 0 0 .021-.715.462.462 0 0 0-.677-.02l-2.964 2.947a.522.522 0 0 0-.021.715.462.462 0 0 0 .677.02ZM82.304 50.033l2.964-2.948a.526.526 0 0 0 .021-.715.462.462 0 0 0-.677-.02l-2.964 2.948a.524.524 0 0 0-.02.715c.18.203.484.212.676.02Z" fill="#000"/></svg>