<svg width="229" height="190" fill="none" xmlns="http://www.w3.org/2000/svg"><path fill-rule="evenodd" clip-rule="evenodd" d="M97.424 40.066a76.929 76.929 0 0 0-14.412-2.302C42.21 35.153 7.09 64.988 4.568 104.402c-2.522 39.414 28.51 73.483 69.312 76.094 20.155 1.289 38.924-5.338 53.063-17.127 8.764 5.943 19.181 9.696 30.513 10.421 33.862 2.167 63.069-23.527 65.236-57.389 1.698-26.528-13.703-50.199-36.735-60.25-4.191-20.962-22.022-37.344-44.368-38.773-18.392-1.177-35.041 8.08-44.164 22.688Z" fill="#E9E9E9"/><path fill-rule="evenodd" clip-rule="evenodd" d="M87.132 129.016a1 1 0 1 0 .002-2.001 1 1 0 0 0-.002 2.001m0-9.526a1 1 0 1 0 0-2 1 1 0 0 0 0 2m0-9.522a1 1 0 0 0 1-1.003 1 1 0 0 0-2 0 1 1 0 0 0 1 1.003m0-9.528a1 1 0 1 0 .001-2 1 1 0 0 0-.001 2m0-9.526a1 1 0 1 0 0-2 1 1 0 0 0 0 2m0-9.526a.998.998 0 1 0 0-1.996.998.998 0 1 0 0 1.996m0-9.524a1 1 0 1 0 .001-2 1 1 0 0 0-.001 2m0-9.526a1 1 0 1 0 0-2 1 1 0 0 0 0 2m0-9.525a1 1 0 1 0 0-2 1 1 0 0 0 0 2m0-9.525a1 1 0 1 0 0-1.999 1 1 0 0 0 0 1.999M76.125 128.868c.552 0 1-.413 1-.926 0-.511-.448-.926-1-.926-.551 0-1 .415-1 .926 0 .513.449.926 1 .926m0-9.526c.552 0 1-.412 1-.926 0-.51-.448-.926-1-.926-.551 0-1 .416-1 .926 0 .514.449.926 1 .926m0-9.522c.552 0 1-.415 1-.929 0-.51-.448-.926-1-.926-.551 0-1 .416-1 .926 0 .514.449.929 1 .929m0-9.528c.552 0 1-.413 1-.926 0-.51-.448-.926-1-.926-.551 0-1 .416-1 .926 0 .513.449.926 1 .926m0-9.526c.552 0 1-.413 1-.925 0-.511-.448-.927-1-.927-.551 0-1 .416-1 .927 0 .513.449.925 1 .925m0-9.525c.552 0 1-.413 1-.927 0-.51-.448-.922-1-.922-.551 0-1 .412-1 .922 0 .514.449.927 1 .927m0-9.525c.552 0 1-.413 1-.927 0-.51-.448-.925-1-.925-.551 0-1 .415-1 .925 0 .514.449.927 1 .927m0-9.526c.552 0 1-.412 1-.926 0-.51-.448-.926-1-.926-.551 0-1 .416-1 .926 0 .514.449.926 1 .926m0-9.525c.552 0 1-.413 1-.926 0-.51-.448-.926-1-.926-.551 0-1 .415-1 .926 0 .513.449.926 1 .926m0-9.525c.552 0 1-.413 1-.924 0-.513-.448-.928-1-.928-.551 0-1 .415-1 .928 0 .511.449.924 1 .924M65.114 128.868c.554 0 1-.413 1-.926 0-.511-.446-.926-1-.926-.553 0-1 .415-1 .926 0 .513.447.926 1 .926m0-9.526c.554 0 1-.412 1-.926 0-.51-.446-.926-1-.926-.553 0-1 .416-1 .926 0 .514.447.926 1 .926m0-9.522c.554 0 1-.415 1-.929 0-.51-.446-.926-1-.926-.553 0-1 .416-1 .926 0 .514.447.929 1 .929m0-9.528c.554 0 1-.413 1-.926 0-.51-.446-.926-1-.926-.553 0-1 .416-1 .926 0 .513.447.926 1 .926m0-9.526c.554 0 1-.413 1-.925 0-.511-.446-.927-1-.927-.553 0-1 .416-1 .927 0 .513.447.925 1 .925m0-9.525c.554 0 1-.413 1-.927 0-.51-.446-.922-1-.922-.553 0-1 .412-1 .922 0 .514.447.927 1 .927m0-9.525c.554 0 1-.413 1-.927 0-.51-.446-.925-1-.925-.553 0-1 .415-1 .925 0 .514.447.927 1 .927m0-9.526c.554 0 1-.412 1-.926 0-.51-.446-.926-1-.926-.553 0-1 .416-1 .926 0 .514.447.926 1 .926m0-9.525c.554 0 1-.413 1-.926 0-.51-.446-.926-1-.926-.553 0-1 .415-1 .926 0 .513.447.926 1 .926m0-9.525c.554 0 1-.413 1-.924 0-.513-.446-.928-1-.928-.553 0-1 .415-1 .928 0 .511.447.924 1 .924M54.132 129.016a1 1 0 1 0 .002-2.001 1 1 0 0 0-.002 2.001m0-9.526a1 1 0 1 0 0-2 1 1 0 0 0 0 2m0-9.522a1 1 0 0 0 1-1.003 1 1 0 0 0-2 0 1 1 0 0 0 1 1.003m0-9.528a1 1 0 1 0 .001-2 1 1 0 0 0-.001 2m0-9.526a1 1 0 1 0 0-2 1 1 0 0 0 0 2m0-9.526a.998.998 0 1 0 0-1.996.998.998 0 1 0 0 1.996m0-9.524a1 1 0 1 0 .001-2 1 1 0 0 0-.001 2m0-9.526a1 1 0 1 0 0-2 1 1 0 0 0 0 2m0-9.525a1 1 0 1 0 0-2 1 1 0 0 0 0 2m0-9.525a1 1 0 1 0 0-1.999 1 1 0 0 0 0 1.999M43.125 128.868c.552 0 1-.413 1-.926 0-.511-.448-.926-1-.926-.551 0-1 .415-1 .926 0 .513.449.926 1 .926m0-9.526c.552 0 1-.412 1-.926 0-.51-.448-.926-1-.926-.551 0-1 .416-1 .926 0 .514.449.926 1 .926m0-9.522c.552 0 1-.415 1-.929 0-.51-.448-.926-1-.926-.551 0-1 .416-1 .926 0 .514.449.929 1 .929m0-9.528c.552 0 1-.413 1-.926 0-.51-.448-.926-1-.926-.551 0-1 .416-1 .926 0 .513.449.926 1 .926m0-9.526c.552 0 1-.413 1-.925 0-.511-.448-.927-1-.927-.551 0-1 .416-1 .927 0 .513.449.925 1 .925m0-9.525c.552 0 1-.413 1-.927 0-.51-.448-.922-1-.922-.551 0-1 .412-1 .922 0 .514.449.927 1 .927m0-9.525c.552 0 1-.413 1-.927 0-.51-.448-.925-1-.925-.551 0-1 .415-1 .925 0 .514.449.927 1 .927m0-9.526c.552 0 1-.412 1-.926 0-.51-.448-.926-1-.926-.551 0-1 .416-1 .926 0 .514.449.926 1 .926m0-9.525c.552 0 1-.413 1-.926 0-.51-.448-.926-1-.926-.551 0-1 .415-1 .926 0 .513.449.926 1 .926m0-9.525c.552 0 1-.413 1-.924 0-.513-.448-.928-1-.928-.551 0-1 .415-1 .928 0 .511.449.924 1 .924M32.114 128.868c.554 0 1-.413 1-.926 0-.511-.446-.926-1-.926-.553 0-1 .415-1 .926 0 .513.447.926 1 .926m0-9.526c.554 0 1-.412 1-.926 0-.51-.446-.926-1-.926-.553 0-1 .416-1 .926 0 .514.447.926 1 .926m0-9.522c.554 0 1-.415 1-.929 0-.51-.446-.926-1-.926-.553 0-1 .416-1 .926 0 .514.447.929 1 .929m0-9.528c.554 0 1-.413 1-.926 0-.51-.446-.926-1-.926-.553 0-1 .416-1 .926 0 .513.447.926 1 .926m0-9.526c.554 0 1-.413 1-.925 0-.511-.446-.927-1-.927-.553 0-1 .416-1 .927 0 .513.447.925 1 .925m0-9.525c.554 0 1-.413 1-.927 0-.51-.446-.922-1-.922-.553 0-1 .412-1 .922 0 .514.447.927 1 .927m0-9.525c.554 0 1-.413 1-.927 0-.51-.446-.925-1-.925-.553 0-1 .415-1 .925 0 .514.447.927 1 .927m0-9.526c.554 0 1-.412 1-.926 0-.51-.446-.926-1-.926-.553 0-1 .416-1 .926 0 .514.447.926 1 .926m0-9.525c.554 0 1-.413 1-.926 0-.51-.446-.926-1-.926-.553 0-1 .415-1 .926 0 .513.447.926 1 .926m0-9.525c.555 0 1-.413 1-.924 0-.513-.445-.928-1-.928-.553 0-1 .415-1 .928 0 .511.447.924 1 .924" fill="#121212"/><mask id="a" style="mask-type:alpha" maskUnits="userSpaceOnUse" x="59" y="2" width="135" height="135"><circle cx="126.039" cy="69.206" r="67.039" fill="#C4C4C4"/></mask><g mask="url(#a)"><path d="M155.551 62.55a4.964 4.964 0 0 0-4.181-3.54c.337-4.351.302-8.722-.104-13.066a26.149 26.149 0 0 0-2.182-8.493 23.523 23.523 0 0 0-21.336-13.444c-11.864 0-19.991 7.029-24.119 20.748a40.741 40.741 0 0 0-1.542 12.137 2.611 2.611 0 0 1-1.672 2.444 4.95 4.95 0 0 0-2.117 1.777c-2.064 3.096.392 7.29 4.103 7.564l1.123.079c1.503 6.533 4.051 12.242 7.134 15.574l-.849 40.503c9.368 10.674 25.229 11.406 34.493.353l-1.307-40.817a50.684 50.684 0 0 0 6.82-15.574l1.15-.091a4.835 4.835 0 0 0 4.586-6.154Z" fill="#fff" stroke="#211915" stroke-width="1.4" stroke-miterlimit="10" stroke-linecap="round"/><path d="M142.682 84.265c-8.989 8.662-18.553 6.271-23.518 4.782a21.34 21.34 0 0 1-8.832-5.514v9.577l.222.065a36.51 36.51 0 0 0 9.237 1.228 32.48 32.48 0 0 0 23.113-9.76l1.019-1.463s-.078-.64-.352-.248c-.614.954-.771 1.254-.889 1.333Z" fill="#211915"/><path d="M102.884 65.842a10.765 10.765 0 0 0-.797-1.66 1.908 1.908 0 0 0-1.11-.992 1.308 1.308 0 0 0-1.228.353 2.142 2.142 0 0 0 .432 1.58.121.121 0 0 1 0 .092.14.14 0 0 1-.027.04.145.145 0 0 1-.144 0 3.15 3.15 0 0 1-.666-.772 1.516 1.516 0 0 1-.222-1.15 1.41 1.41 0 0 1 .901-.888c.37-.16.778-.21 1.176-.144a2.439 2.439 0 0 1 1.646 1.503c.27.631.404 1.312.392 1.999a.18.18 0 0 1-.062.113.18.18 0 0 1-.121.044.156.156 0 0 1-.143-.105l-.027-.013ZM150.012 65.79a4.884 4.884 0 0 1 .392-1.999 2.45 2.45 0 0 1 1.646-1.502 2.129 2.129 0 0 1 1.189.143 1.42 1.42 0 0 1 .889.889 1.52 1.52 0 0 1-.222 1.15 3.144 3.144 0 0 1-.667.77.12.12 0 0 1-.038.027.121.121 0 0 1-.093 0 .124.124 0 0 1-.039-.027.15.15 0 0 1-.019-.072.15.15 0 0 1 .019-.071c.301-.51.575-1.19.406-1.542-.17-.353-.824-.457-1.229-.353a1.92 1.92 0 0 0-1.11.993c-.312.53-.579 1.085-.797 1.66a.164.164 0 0 1-.034.058.156.156 0 0 1-.188.033.206.206 0 0 1-.073-.065.2.2 0 0 1-.032-.092Z" fill="#1D1D1B"/><path d="M141.088 85.715a10.438 10.438 0 0 0 2.613-3.005l-.823 1.973-1.79 1.032ZM109.143 46.44a10.17 10.17 0 0 1 7.84-3.005c1.47.033 2.917.376 4.246 1.006a6.847 6.847 0 0 1 3.214 3.044c.323.691.518 1.435.575 2.196.065.718.091 1.424.104 2.142v4.26c0 2.835-.156 5.67-.3 8.505l-.209-.209c1.45.066 2.887.105 4.325.196-1.438.092-2.875.144-4.325.21h-.196v-.21l-.092-8.492c0-1.411 0-2.823-.104-4.234a11.454 11.454 0 0 0-.601-3.985 5.945 5.945 0 0 0-2.796-2.717 10.857 10.857 0 0 0-3.92-1.072 10.598 10.598 0 0 0-7.761 2.365ZM119.752 71.474a16.555 16.555 0 0 0 3.293 2.142 8.965 8.965 0 0 0 3.619.98 6.86 6.86 0 0 0 3.606-.836 11.474 11.474 0 0 0 1.646-1.019c.536-.392.993-.862 1.529-1.306a19.847 19.847 0 0 1-1.228 1.593 9.06 9.06 0 0 1-1.594 1.307 6.6 6.6 0 0 1-3.985 1.124 7.92 7.92 0 0 1-3.92-1.307 9.93 9.93 0 0 1-2.966-2.678Z" fill="#211915"/><path d="M115.884 65.163c0 1.986-2.142 3.606-4.782 3.606-2.639 0-4.782-1.62-4.782-3.606 0-1.986 2.143-3.606 4.782-3.606 2.64 0 4.782 1.607 4.782 3.606ZM146.235 65.163c0 1.986-2.142 3.606-4.782 3.606-2.639 0-4.782-1.62-4.782-3.606 0-1.986 2.143-3.606 4.782-3.606 2.64 0 4.782 1.607 4.782 3.606Z" fill="#F9CED9"/><path d="M102.088 55.52s1.541 11.093 7.055 16.62c1.96 1.947 4.939 2.13 5.749.927 1.777-2.613 5.513-6.963 9.838-5.226a5.331 5.331 0 0 0 3.763 0 7.302 7.302 0 0 1 4.873 0c2.705.85 3.789 3.515 4.913 6.102.64 1.502 3.776 1.306 5.67-.732 3.175-3.332 5.671-10.557 7.513-15.47 0 0 1.62 33.213-24.824 33.226-26.837.013-24.55-35.446-24.55-35.446Z" fill="#A1A1A1"/><path d="M119.752 71.474a16.555 16.555 0 0 0 3.293 2.142 8.965 8.965 0 0 0 3.619.98 6.86 6.86 0 0 0 3.606-.836 11.474 11.474 0 0 0 1.646-1.019c.536-.392.993-.862 1.529-1.306a19.847 19.847 0 0 1-1.228 1.593 9.06 9.06 0 0 1-1.594 1.307 6.6 6.6 0 0 1-3.985 1.124 7.92 7.92 0 0 1-3.92-1.307 9.93 9.93 0 0 1-2.966-2.678ZM108.397 47.154v-1.765l7.939-4.41 6.174.882 1.764 4.41-15.877.883Z" fill="#fff"/><path d="M129.942 46.278a11.674 11.674 0 0 0-.986 2.089c-.281.819-.422 1.69-.053 2.226.704 1.016 9.997 1.1 13.766 1.01.517.001 1.034-.026 1.549-.081.573-.16-1.142-3.802-1.142-3.802s-7.926-.111-10.05-.508c-1.128-.214-3.084-.934-3.084-.934Z" fill="#A1A1A1"/><path d="m131.78 53.006.09.02c.765.167 1.543.264 2.325.292-.126.252-.193.53-.195.811a1.734 1.734 0 1 0 3.464 0v-.024c.884.462 1.732.99 2.534 1.583a12.991 12.991 0 0 0-2.23-2.561 6.897 6.897 0 0 0-1.632-1.082c-1.316-.597-4.356.96-4.356.96Z" fill="#171932"/><path d="M106.751 51.515c.128.035.908.07 2.053.091 4.03.072 12.599-.046 13.269-1.02.859-1.252-1.046-4.315-1.046-4.315s-1.956.727-3.082.937c-1.626.304-6.64.439-8.909.487l-1.143.02s-1.719 3.64-1.142 3.8Z" fill="#A1A1A1"/><path d="M111.555 55.27a18.608 18.608 0 0 1 1.946-1.165v.024a1.734 1.734 0 1 0 3.464 0 1.827 1.827 0 0 0-.194-.811 12.747 12.747 0 0 0 2.414-.313s-3.042-1.557-4.356-.955c-1.6.726-2.905 2.313-3.503 3.13-.225.306-.359.513-.359.513s.226-.176.588-.422Z" fill="#171932"/><path d="M149.914 55.386h-1.795c-.783-4.165-4.816-7.35-9.672-7.35-4.793 0-8.806 3.027-9.735 7.04-.8-.598-1.712-.915-2.673-.915-.961 0-1.873.317-2.672.915-.919-4.014-4.882-7.04-9.618-7.04-5.2 0-9.474 3.565-9.897 8.085h-1.689c-.455 0-.823.33-.823.735 0 .406.368.735.823.735h1.689c.423 4.52 4.697 8.086 9.897 8.086 5.324 0 9.662-3.827 9.806-8.579.702-.944 1.576-1.467 2.484-1.467.907 0 1.781.523 2.483 1.467.147 4.752 4.537 8.58 9.925 8.58 5.415 0 9.82-3.958 9.82-8.822h1.647c.455 0 .823-.329.823-.735 0-.406-.368-.735-.823-.735Zm-36.165 8.821c-4.572 0-8.293-3.297-8.293-7.35 0-4.054 3.721-7.351 8.293-7.351 4.584 0 8.173 3.229 8.173 7.35 0 4.122-3.589 7.351-8.173 7.351Zm24.698 0c-4.572 0-8.292-3.297-8.292-7.35 0-4.054 3.72-7.351 8.292-7.351 4.584 0 8.174 3.229 8.174 7.35 0 4.122-3.59 7.351-8.174 7.351Z" fill="#211915"/></g><path d="M157.084 35.763c1.305-4.68 3.746-17.075-13.053-17.075-16.8 0-12.858 6.076-20.115 1.215-7.258-4.861-11.464-3.143-15.811 1.123-4.346 4.266.682 9.037-2.438 9.037s-4.973-4.472-9.529 0 2.376 6.6 0 8.933-4.608 14.121 4.086 20.32c.226-.06.458-.1.692-.122a40.31 40.31 0 0 1 1.462-13.757c4.085-13.369 12.087-20.199 25.101-20.15 9.438 0 16.643 5.53 20.246 13.745a26.311 26.311 0 0 1 1.932 8.374c.319 3.944 1.083 7.958.764 11.902.834.12 1.953.093 2.616.579-.336.175.385-.017 0 0 1.763-1.726 7.963-7 7.963-12.275 0-5.274-5.156-7.17-3.916-11.85Z" fill="#A1A1A1"/><path d="M113.139 31.365a4.725 4.725 0 0 1 1.294-1.853 4.967 4.967 0 0 1 2.034-1.074 5.098 5.098 0 0 1 2.319-.056c.766.16 1.482.493 2.087.974 4.137 3.25 10.182 7.02 15.466 6.598 9.164-.732 10.621-3.349 9.564 2.196-1.057 5.544 1.998 6.201 3.184 10.976 1.185 4.776-.157 12.8 3.297 10.395 3.455-2.407 5.067-24.72-5.463-30.041-10.53-5.321-20.416-8.955-31.075-4.552-10.659 4.403-18.3 24.534-15.117 34.593 0 0 2.615-.534 3.44-5.285.825-4.75-1.689-9.874 3.196-13.494 2.926-1.724 3.648-3.982 5.774-9.377Z" fill="#A1A1A1"/><path d="m117.074 16.183 40.512 15.424.005.055c.021.226.048.55.072.94.049.779.087 1.81.045 2.834-.043 1.034-.166 2.015-.417 2.715-.261.726-.566.929-.868.914-.569-.028-1.314-.256-2.343-.617-.206-.072-.421-.15-.647-.23-.875-.312-1.897-.677-3.073-1.027-2.968-.882-6.929-1.67-12.217-1.364-.789.045-1.589.097-2.396.149-4.57.294-9.4.605-13.988-.032-5.374-.747-10.357-2.79-14.111-7.67-1.865-2.424-2.128-4.312-1.634-5.783.506-1.509 1.853-2.73 3.53-3.695 1.665-.958 3.577-1.619 5.086-2.04a30.086 30.086 0 0 1 2.389-.563c.02-.004.038-.008.055-.01Z" fill="#868382" stroke="#000"/><path d="m188.839 32.276-.648 1.016-52.172-3.15-48.093-28.37.538-.845 50.521 4.332 49.854 27.017Z" fill="#868382" stroke="#211915"/><path d="M171.656 59.708c-.112-.285-.335-.539-.643-.73a2.46 2.46 0 0 0-1.087-.345c-.4-.033-.806.021-1.164.157a1.893 1.893 0 0 0-.85.605 1.178 1.178 0 0 0-.248.85c.033.295.185.576.436.808.251.231.59.403.974.493.384.09.796.095 1.184.014.519-.11.958-.367 1.22-.714s.326-.756.178-1.138Z" fill="#211915"/><path d="M169.902 60.122c2.109-.12 2.596 13.969 2.596 13.969s-1.376.475-2.051.364c-.675-.112-1.022-2.015-1.022-2.015l-.064 1.995s-2.315.06-3.116-.354c0 0 .314-13.767 3.651-13.959h.006Z" fill="#211915"/><path d="m170.592 60.439-.382-30.78-.271-.15-27.47-14.917-.986.981 27.196 14.768.613 30.045 1.3.053Z" fill="#211915"/><path d="M144.197 104c-15.675 7.195-34.569.081-34.759 0-19.665 4.125-37.423 15.391-39.438 34.88v29.755h113.19l.689-28.754c-1.663-19.949-19.665-31.661-39.682-35.881Z" fill="#fff"/><path d="M144.197 104c-15.675 7.195-34.569.081-34.759 0-19.665 4.125-37.423 15.391-39.438 34.88v29.755h113.19l.689-28.754c-1.663-19.949-19.665-31.661-39.682-35.881Z" stroke="#211915" stroke-width="1.4" stroke-miterlimit="10" stroke-linecap="round"/><path d="M97.482 144.858v23.709M157.587 144.858v23.709" stroke="#000" stroke-width="1.4" stroke-miterlimit="10" stroke-linecap="round"/><path d="m187.476 168.767 4.165 5.156-4.807-.578-1.202 4.049-4.206-5.206-.019-.024a18.278 18.278 0 0 1 2.723-2.18 19.138 19.138 0 0 1 3.346-1.217ZM168.165 168.767c1.154.301 2.274.707 3.346 1.215.979.64 1.89 1.37 2.723 2.179l-4.225 5.232-1.202-4.049-4.807.579 4.165-5.156Z" fill="#211915"/><path d="M165.202 159.461c0-2.423-1.569-5.275-.393-7.23 1.214-2.02 4.605-2.123 6.702-3.291 2.033-1.134 3.792-3.94 6.31-3.94 2.517 0 4.276 2.806 6.309 3.939 2.098 1.168 5.489 1.272 6.702 3.29 1.176 1.957-.393 4.809-.393 7.232 0 2.424 1.569 5.276.393 7.231-1.213 2.02-4.605 2.123-6.702 3.291-2.033 1.134-3.792 3.94-6.309 3.94-2.518 0-4.277-2.807-6.31-3.939-2.098-1.168-5.488-1.272-6.702-3.29-1.176-1.957.393-4.809.393-7.233Z" fill="#211915"/><path d="M177.82 169.296c-5.641 0-10.215-4.403-10.215-9.834s4.574-9.834 10.215-9.834c5.642 0 10.216 4.403 10.216 9.834s-4.574 9.834-10.216 9.834Z" fill="#fff"/><path d="M171.859 157.147h4.117l1.273-3.769a.607.607 0 0 1 1.142 0l1.274 3.769h4.118a.59.59 0 0 1 .601.579.572.572 0 0 1-.248.468l-3.331 2.33 1.272 3.771a.574.574 0 0 1-.385.729.62.62 0 0 1-.539-.083l-3.332-2.33-3.332 2.33a.616.616 0 0 1-.839-.128.563.563 0 0 1-.086-.519l1.273-3.77-3.331-2.331a.565.565 0 0 1-.132-.808.612.612 0 0 1 .485-.238Z" fill="#211915"/></svg>