<svg width="235" height="195" fill="none" xmlns="http://www.w3.org/2000/svg"><path fill-rule="evenodd" clip-rule="evenodd" d="M137.826 34.411c2.877-.499 5.812-.849 8.796-1.04 43.285-2.77 80.543 28.883 83.219 70.699 2.675 41.817-30.245 77.961-73.529 80.731-23.554 1.507-45.323-7.178-60.707-22.148-7.375 3.852-15.656 6.26-24.494 6.825-33.862 2.167-63.07-23.529-65.236-57.394-1.92-29.997 18.02-56.341 46.134-63.475 5.633-18.85 22.508-33.11 43.288-34.44 17.342-1.11 33.134 7.06 42.529 20.242Z" fill="#E9E9E9"/><path fill-rule="evenodd" clip-rule="evenodd" d="M30 124.7a1 1 0 1 1-.002-2.002 1 1 0 0 1 .003 2.002m0-9.527a1 1 0 1 1 0-2 1 1 0 0 1 0 2m0-9.523a1 1 0 0 1-1-1.003 1 1 0 0 1 2 0 1 1 0 0 1-1 1.003m0-9.529a1 1 0 1 1-.001-2 1 1 0 0 1 0 2m0-9.526a1 1 0 1 1 0-2 1 1 0 0 1 0 2m0-9.527a.998.998 0 1 1 0-1.997.998.998 0 1 1 0 1.997m0-9.526a1 1 0 1 1-.001-2 1 1 0 0 1 .002 2m0-9.526a1 1 0 1 1 0-2 1 1 0 0 1 0 2m0-9.527a1 1 0 1 1 0-2 1 1 0 0 1 0 2m0-9.525a1 1 0 1 1 0-2 1 1 0 0 1 0 2M41.007 124.552c-.551 0-1-.413-1-.927 0-.51.449-.925 1-.925.552 0 1 .415 1 .925 0 .514-.448.927-1 .927m0-9.527c-.551 0-1-.413-1-.926 0-.511.449-.926 1-.926.552 0 1 .415 1 .926 0 .513-.448.926-1 .926m0-9.523c-.551 0-1-.415-1-.929 0-.51.449-.926 1-.926.552 0 1 .416 1 .926 0 .514-.448.929-1 .929m0-9.529c-.551 0-1-.412-1-.926 0-.51.449-.926 1-.926.552 0 1 .416 1 .926 0 .514-.448.926-1 .926m0-9.526c-.551 0-1-.413-1-.926 0-.51.449-.927 1-.927.552 0 1 .416 1 .927 0 .513-.448.926-1 .926m0-9.527c-.551 0-1-.412-1-.926 0-.51.449-.923 1-.923.552 0 1 .413 1 .923 0 .514-.448.926-1 .926m0-9.526c-.551 0-1-.412-1-.926 0-.51.449-.926 1-.926.552 0 1 .416 1 .926 0 .514-.448.926-1 .926m0-9.526c-.551 0-1-.413-1-.926 0-.51.449-.926 1-.926.552 0 1 .415 1 .926 0 .513-.448.926-1 .926m0-9.527c-.551 0-1-.413-1-.926 0-.51.449-.926 1-.926.552 0 1 .416 1 .926 0 .513-.448.926-1 .926m0-9.525c-.551 0-1-.413-1-.924 0-.513.449-.928 1-.928.552 0 1 .415 1 .928 0 .511-.448.924-1 .924M52.019 124.552c-.555 0-1.001-.413-1.001-.927 0-.51.446-.925 1.001-.925.553 0 .999.415.999.925 0 .514-.447.927-.999.927m0-9.527c-.555 0-1.001-.413-1.001-.926 0-.511.446-.926 1.001-.926.553 0 .999.415.999.926 0 .513-.447.926-.999.926m0-9.523c-.555 0-1.001-.415-1.001-.929 0-.51.446-.926 1.001-.926.553 0 .999.416.999.926 0 .514-.447.929-.999.929m0-9.529c-.555 0-1.001-.412-1.001-.926 0-.51.446-.926 1.001-.926.553 0 .999.416.999.926 0 .514-.447.926-.999.926m0-9.526c-.555 0-1.001-.413-1.001-.926 0-.51.446-.927 1.001-.927.553 0 .999.416.999.927 0 .513-.447.926-.999.926m0-9.527c-.555 0-1.001-.412-1.001-.926 0-.51.446-.923 1.001-.923.553 0 .999.413.999.923 0 .514-.447.926-.999.926m0-9.526c-.555 0-1.001-.412-1.001-.926 0-.51.446-.926 1.001-.926.553 0 .999.416.999.926 0 .514-.447.926-.999.926m0-9.526c-.555 0-1.001-.413-1.001-.926 0-.51.446-.926 1.001-.926.553 0 .999.415.999.926 0 .513-.447.926-.999.926m0-9.527c-.555 0-1.001-.413-1.001-.926 0-.51.446-.926 1.001-.926.553 0 .999.416.999.926 0 .513-.447.926-.999.926m0-9.525c-.555 0-1.001-.413-1.001-.924 0-.513.446-.928 1.001-.928.553 0 .999.415.999.928 0 .511-.447.924-.999.924M63 124.7a1 1 0 1 1-.002-2.002 1 1 0 0 1 .003 2.002m0-9.527a1 1 0 1 1 0-2 1 1 0 0 1 0 2m0-9.523a1 1 0 0 1-1-1.003 1 1 0 0 1 2 0 1 1 0 0 1-1 1.003m0-9.529a1 1 0 1 1-.001-2 1 1 0 0 1 0 2m0-9.526a1 1 0 1 1 0-2 1 1 0 0 1 0 2m0-9.527a.998.998 0 1 1 0-1.997.998.998 0 1 1 0 1.997m0-9.526a1 1 0 1 1-.001-2 1 1 0 0 1 .002 2m0-9.526a1 1 0 1 1 0-2 1 1 0 0 1 0 2m0-9.527a1 1 0 1 1 0-2 1 1 0 0 1 0 2m0-9.525a1 1 0 1 1 0-2 1 1 0 0 1 0 2M74.007 124.552c-.551 0-1-.413-1-.927 0-.51.449-.925 1-.925.552 0 1 .415 1 .925 0 .514-.448.927-1 .927m0-9.527c-.551 0-1-.413-1-.926 0-.511.449-.926 1-.926.552 0 1 .415 1 .926 0 .513-.448.926-1 .926m0-9.523c-.551 0-1-.415-1-.929 0-.51.449-.926 1-.926.552 0 1 .416 1 .926 0 .514-.448.929-1 .929m0-9.529c-.551 0-1-.412-1-.926 0-.51.449-.926 1-.926.552 0 1 .416 1 .926 0 .514-.448.926-1 .926m0-9.526c-.551 0-1-.413-1-.926 0-.51.449-.927 1-.927.552 0 1 .416 1 .927 0 .513-.448.926-1 .926m0-9.527c-.551 0-1-.412-1-.926 0-.51.449-.923 1-.923.552 0 1 .413 1 .923 0 .514-.448.926-1 .926m0-9.526c-.551 0-1-.412-1-.926 0-.51.449-.926 1-.926.552 0 1 .416 1 .926 0 .514-.448.926-1 .926m0-9.526c-.551 0-1-.413-1-.926 0-.51.449-.926 1-.926.552 0 1 .415 1 .926 0 .513-.448.926-1 .926m0-9.527c-.551 0-1-.413-1-.926 0-.51.449-.926 1-.926.552 0 1 .416 1 .926 0 .513-.448.926-1 .926m0-9.525c-.551 0-1-.413-1-.924 0-.513.449-.928 1-.928.552 0 1 .415 1 .928 0 .511-.448.924-1 .924M85.019 124.552c-.555 0-1.001-.413-1.001-.927 0-.51.446-.925 1.001-.925.552 0 .999.415.999.925 0 .514-.447.927-.999.927m0-9.527c-.555 0-1.001-.413-1.001-.926 0-.511.446-.926 1.001-.926.552 0 .999.415.999.926 0 .513-.447.926-.999.926m0-9.523c-.555 0-1.001-.415-1.001-.929 0-.51.446-.926 1.001-.926.552 0 .999.416.999.926 0 .514-.447.929-.999.929m0-9.529c-.555 0-1.001-.412-1.001-.926 0-.51.446-.926 1.001-.926.552 0 .999.416.999.926 0 .514-.447.926-.999.926m0-9.526c-.555 0-1.001-.413-1.001-.926 0-.51.446-.927 1.001-.927.552 0 .999.416.999.927 0 .513-.447.926-.999.926m0-9.527c-.555 0-1.001-.412-1.001-.926 0-.51.446-.923 1.001-.923.552 0 .999.413.999.923 0 .514-.447.926-.999.926m0-9.526c-.555 0-1.001-.412-1.001-.926 0-.51.446-.926 1.001-.926.552 0 .999.416.999.926 0 .514-.447.926-.999.926m0-9.526c-.555 0-1.001-.413-1.001-.926 0-.51.446-.926 1.001-.926.552 0 .999.415.999.926 0 .513-.447.926-.999.926m0-9.527c-.555 0-1.001-.413-1.001-.926 0-.51.446-.926 1.001-.926.552 0 .999.416.999.926 0 .513-.447.926-.999.926m0-9.525c-.555 0-1.001-.413-1.001-.924 0-.513.446-.928 1.001-.928.552 0 .999.415.999.928 0 .511-.447.924-.999.924" fill="#121212"/><mask id="a" style="mask-type:alpha" maskUnits="userSpaceOnUse" x="51" y="0" width="128" height="128"><ellipse cx="115.5" cy="63.528" rx="63.5" ry="63.494" fill="#C4C4C4"/></mask><g mask="url(#a)"><path d="M96.341 22.571S88.147 39.563 90.87 52.82l10.917-29.052-5.446-1.197Z" fill="#211915"/><path d="M144.691 58.514a4.99 4.99 0 0 0-4.208-3.564 77.118 77.118 0 0 0-.106-13.151 26.303 26.303 0 0 0-2.196-8.549 23.673 23.673 0 0 0-21.479-13.533c-11.943 0-20.124 7.076-24.28 20.885A41.018 41.018 0 0 0 90.87 52.82a2.63 2.63 0 0 1-1.684 2.46 4.986 4.986 0 0 0-2.13 1.788c-2.079 3.117.394 7.338 4.13 7.615l1.13.078c1.513 6.576 4.078 12.323 7.182 15.677l-.855 40.77c9.431 10.745 25.398 11.481 34.724.355l-1.315-41.085a51.056 51.056 0 0 0 6.865-15.677l1.158-.092a4.868 4.868 0 0 0 4.616-6.195v0Z" fill="#fff" stroke="#211915" stroke-width="1.4" stroke-miterlimit="10" stroke-linecap="round"/><path d="M131.736 80.373c-9.049 8.719-18.677 6.312-23.675 4.813a21.475 21.475 0 0 1-8.892-5.55v9.64l.224.066a36.75 36.75 0 0 0 9.299 1.236 32.705 32.705 0 0 0 23.268-9.824l1.025-1.473s-.078-.645-.355-.25c-.618.96-.776 1.262-.894 1.341Z" fill="#211915"/><path d="M91.672 61.829a10.919 10.919 0 0 0-.802-1.67 1.932 1.932 0 0 0-1.118-1 1.316 1.316 0 0 0-1.236.355 2.157 2.157 0 0 0 .435 1.591.12.12 0 0 1-.027.132.145.145 0 0 1-.145 0 3.17 3.17 0 0 1-.67-.776 1.525 1.525 0 0 1-.224-1.157 1.42 1.42 0 0 1 .907-.895 2.09 2.09 0 0 1 1.184-.145 2.46 2.46 0 0 1 1.657 1.513c.272.636.406 1.321.395 2.012a.184.184 0 0 1-.184.158.158.158 0 0 1-.145-.105l-.026-.013ZM139.115 61.776a4.915 4.915 0 0 1 .395-2.012 2.456 2.456 0 0 1 1.657-1.513c.405-.067.82-.017 1.197.145a1.43 1.43 0 0 1 .894.895 1.521 1.521 0 0 1-.223 1.157c-.18.293-.407.555-.671.776a.121.121 0 0 1-.132.027.114.114 0 0 1-.039-.027.142.142 0 0 1-.019-.072c0-.026.006-.05.019-.073.302-.513.579-1.197.408-1.552-.171-.355-.829-.46-1.237-.355a1.94 1.94 0 0 0-1.118 1 10.983 10.983 0 0 0-.802 1.67.165.165 0 0 1-.034.06.163.163 0 0 1-.056.038.161.161 0 0 1-.134-.006.195.195 0 0 1-.072-.065.193.193 0 0 1-.033-.093Z" fill="#1D1D1B"/><path d="M130.131 81.833a10.52 10.52 0 0 0 2.631-3.025l-.829 1.986-1.802 1.039ZM106.206 51.36c0 1.092-.644 1.96-1.447 1.96-.802 0-1.447-.868-1.447-1.96 0-1.091.645-1.96 1.447-1.96.803 0 1.447.882 1.447 1.96ZM127.132 51.44c0 1.078-.657 1.959-1.46 1.959-.802 0-1.446-.881-1.446-1.96 0-1.078.644-1.96 1.446-1.96.803 0 1.46.803 1.46 1.96Z" fill="#211915"/><path d="M97.973 42.299a10.234 10.234 0 0 1 7.891-3.025c1.481.033 2.937.378 4.275 1.012a6.896 6.896 0 0 1 3.236 3.065c.325.695.521 1.444.578 2.21.066.723.092 1.433.106 2.156v4.288c0 2.853-.158 5.707-.303 8.561l-.21-.21c1.46.066 2.906.105 4.353.197-1.447.092-2.893.145-4.353.21h-.198v-.21l-.092-8.548c0-1.42 0-2.841-.105-4.262a11.533 11.533 0 0 0-.605-4.01 5.986 5.986 0 0 0-2.815-2.736 10.926 10.926 0 0 0-3.946-1.079 10.669 10.669 0 0 0-7.812 2.38ZM135.445 42.3a11.12 11.12 0 0 0-3.643-1.763 14.806 14.806 0 0 0-3.946-.54 12.326 12.326 0 0 0-7.563 2.302 7.89 7.89 0 0 1 3.393-2.446 11.026 11.026 0 0 1 4.183-.763c1.427.004 2.84.272 4.169.789a7.976 7.976 0 0 1 3.407 2.42ZM108.653 67.497a16.655 16.655 0 0 0 3.314 2.157 9.027 9.027 0 0 0 3.644.987 6.905 6.905 0 0 0 3.63-.842 11.51 11.51 0 0 0 1.657-1.026c.539-.394 1-.868 1.539-1.315-.385.555-.797 1.09-1.236 1.604a9.11 9.11 0 0 1-1.605 1.316 6.643 6.643 0 0 1-4.012 1.13 7.967 7.967 0 0 1-3.945-1.314 9.99 9.99 0 0 1-2.986-2.697Z" fill="#211915"/><path d="M104.759 61.145c0 2-2.157 3.63-4.814 3.63s-4.814-1.63-4.814-3.63c0-1.999 2.157-3.63 4.814-3.63s4.814 1.618 4.814 3.63ZM135.313 61.145c0 2-2.157 3.63-4.814 3.63s-4.814-1.63-4.814-3.63c0-1.999 2.157-3.63 4.814-3.63s4.814 1.618 4.814 3.63Z" fill="#F9CED9"/><path d="M90.87 51.439s1.552 11.166 7.102 16.729c1.973 1.96 4.972 2.143 5.788.933 1.788-2.63 5.55-7.01 9.904-5.26 1.22.46 2.567.46 3.788 0a7.354 7.354 0 0 1 4.906 0c2.722.855 3.814 3.538 4.945 6.142.645 1.512 3.801 1.315 5.709-.737 3.196-3.353 5.708-10.626 7.563-15.571 0 0 1.631 33.431-24.991 33.444-27.016.013-24.714-35.68-24.714-35.68Z" fill="#1D1D1B"/><path d="M108.653 67.497a16.655 16.655 0 0 0 3.314 2.157 9.027 9.027 0 0 0 3.644.987 6.905 6.905 0 0 0 3.63-.842 11.51 11.51 0 0 0 1.657-1.026c.539-.394 1-.868 1.539-1.315-.385.555-.797 1.09-1.236 1.604a9.11 9.11 0 0 1-1.605 1.316 6.643 6.643 0 0 1-4.012 1.13 7.967 7.967 0 0 1-3.945-1.314 9.99 9.99 0 0 1-2.986-2.697Z" fill="#fff"/><path d="M140.482 54.951c1.697-7.667.448-22.594-.421-26.303-1.223-5.26-4.787-9.956-9.285-13.888-5.459-4.774-12.785-8.246-21.505-5.26-6.195 2.13-4.749 6.036-4.749 6.036s-13.692-1.315-7.51 11.547c4.064 8.43 20.676 2.21 26.871-1.315 4.38-2.446 8.129.25 11.562 3.235 5.129 4.537 5.037 25.948 5.037 25.948Z" fill="#211915"/></g><path d="m103.664 15.007 38.351 14.6.003.035c.02.215.045.522.068.89.047.738.082 1.714.043 2.682-.041.978-.157 1.904-.394 2.563-.246.686-.528.862-.796.849-.534-.026-1.236-.241-2.212-.583l-.612-.218a54.543 54.543 0 0 0-2.912-.973c-2.814-.836-6.569-1.583-11.582-1.293-.747.043-1.505.092-2.27.14-4.329.28-8.901.574-13.243-.03-5.086-.706-9.799-2.639-13.35-7.253-1.763-2.292-2.007-4.07-1.543-5.453.476-1.42 1.746-2.573 3.331-3.485 1.575-.906 3.384-1.531 4.813-1.93a28.267 28.267 0 0 1 2.26-.533l.045-.008Z" fill="#868382" stroke="#000"/><path d="m171.605 30.231-.59.925-49.396-2.98L76.094 1.321l.486-.764 47.833 4.102 47.192 25.571Z" fill="#868382" stroke="#211915"/><path d="M155.367 56.203c-.106-.27-.318-.51-.609-.69a2.333 2.333 0 0 0-1.029-.327c-.38-.032-.764.02-1.103.148a1.79 1.79 0 0 0-.805.573 1.121 1.121 0 0 0-.236.805c.032.28.176.545.414.765.238.22.559.382.922.468.364.085.754.09 1.122.012.492-.104.907-.347 1.156-.676.248-.328.308-.716.168-1.078Z" fill="#211915"/><path d="M153.705 56.596c1.998-.114 2.459 13.23 2.459 13.23s-1.303.45-1.942.344c-.64-.105-.969-1.908-.969-1.908l-.06 1.89s-2.193.056-2.951-.336c0 0 .297-13.038 3.458-13.22h.005Z" fill="#211915"/><path d="m154.359 56.896-.361-29.152-.258-.142-26.019-14.129-.934.93 25.76 13.986.58 28.457 1.232.05Z" fill="#211915"/><path d="M133.197 108.024c-15.675 7.194-34.57.081-34.759 0-19.665 4.124-37.423 15.389-39.438 34.877v29.752h113.189l.69-28.752c-1.663-19.947-19.665-31.658-39.682-35.877Z" fill="#fff"/><path d="M133.197 108.024c-15.675 7.194-34.57.081-34.759 0-19.665 4.124-37.423 15.389-39.438 34.877v29.752h113.189l.69-28.752c-1.663-19.947-19.665-31.658-39.682-35.877Z" stroke="#211915" stroke-width="1.4" stroke-miterlimit="10" stroke-linecap="round"/><path d="M86.482 148.878v23.707M146.586 148.878v23.707" stroke="#000" stroke-width="1.4" stroke-miterlimit="10" stroke-linecap="round"/></svg>