<svg width="101" height="23" fill="none" xmlns="http://www.w3.org/2000/svg"><path d="M6.732 17.22c-.968 0-1.84-.154-2.618-.462a6.086 6.086 0 01-1.958-1.298 5.623 5.623 0 01-1.21-1.87 6.153 6.153 0 01-.418-2.244c0-.836.14-1.62.418-2.354.279-.748.682-1.4 1.21-1.958a5.672 5.672 0 011.936-1.32c.777-.323 1.657-.484 2.64-.484.983 0 1.855.161 2.618.484a5.672 5.672 0 011.936 1.32 5.305 5.305 0 011.188 1.892c.279.719.418 1.474.418 2.266 0 .205-.007.41-.022.616-.015.19-.037.36-.066.506H4.268c.059.777.337 1.371.836 1.782a2.772 2.772 0 001.738.594 3.1 3.1 0 001.474-.374c.484-.25.807-.587.968-1.012l2.992.836c-.455.91-1.159 1.65-2.112 2.222-.953.572-2.097.858-3.432.858zm2.442-7.084c-.073-.733-.337-1.313-.792-1.738-.455-.425-1.02-.638-1.694-.638-.69 0-1.261.22-1.716.66-.44.425-.697.997-.77 1.716h4.972zm10.109 7.084a5.456 5.456 0 01-2.2-.44 5.251 5.251 0 01-1.716-1.276 6.156 6.156 0 01-1.144-1.892 7.03 7.03 0 01-.396-2.398c0-.836.125-1.62.374-2.354a5.652 5.652 0 011.056-1.892 4.99 4.99 0 011.606-1.276 4.649 4.649 0 012.068-.462c.807 0 1.533.19 2.178.572.66.381 1.166.895 1.518 1.54V.94h3.52v12.1c0 .352.052.601.154.748.118.132.316.213.594.242V17a5.35 5.35 0 01-.836.132c-.234.03-.454.044-.66.044-.616 0-1.114-.125-1.496-.374-.38-.264-.6-.638-.66-1.122l-.066-.594a3.918 3.918 0 01-1.672 1.606 4.815 4.815 0 01-2.222.528zm.946-2.97c.484 0 .946-.14 1.386-.418a2.8 2.8 0 001.034-1.188v-2.42a3.078 3.078 0 00-1.078-1.43c-.484-.381-.99-.572-1.518-.572a2.17 2.17 0 00-1.056.264 2.685 2.685 0 00-.814.66 3.138 3.138 0 00-.55.968 3.805 3.805 0 00-.176 1.166c0 .425.066.821.198 1.188.147.367.338.682.572.946.25.264.543.47.88.616.352.147.726.22 1.122.22zm12.151 2.97c-1.188 0-2.09-.367-2.706-1.1-.601-.748-.902-1.84-.902-3.278V5.45h3.52v6.622c0 .704.14 1.247.418 1.628.279.367.675.55 1.188.55.47 0 .924-.125 1.364-.374.44-.25.829-.682 1.166-1.298V5.45h3.52v7.59c0 .352.051.601.154.748.117.132.315.213.594.242V17a5.867 5.867 0 01-.858.132c-.235.03-.447.044-.638.044-1.261 0-1.98-.491-2.156-1.474l-.066-.704c-.528.763-1.188 1.327-1.98 1.694-.777.352-1.65.528-2.618.528zm9.613-6.006c0-.792.14-1.547.418-2.266a5.526 5.526 0 011.21-1.914 5.672 5.672 0 011.936-1.32c.777-.323 1.657-.484 2.64-.484 1.335 0 2.457.286 3.366.858.91.557 1.591 1.29 2.046 2.2l-3.432 1.034c-.455-.733-1.122-1.1-2.002-1.1a2.41 2.41 0 00-1.848.814c-.484.543-.726 1.269-.726 2.178 0 .455.066.873.198 1.254.132.367.315.682.55.946.235.264.506.47.814.616.323.147.66.22 1.012.22.44 0 .843-.103 1.21-.308.367-.22.638-.499.814-.836l3.432 1.056c-.425.895-1.107 1.628-2.046 2.2-.924.572-2.053.858-3.388.858-.968 0-1.84-.161-2.618-.484a6.39 6.39 0 01-1.958-1.32 5.811 5.811 0 01-1.21-1.914 6.389 6.389 0 01-.418-2.288zM55.222 17V5.45h3.52V17h-3.52zm0-12.87V.94h3.52v3.19h-3.52zm12.86 13.09c-.88 0-1.65-.183-2.31-.55a4.154 4.154 0 01-1.563-1.584V17h-3.058V.94h3.52v6.402a4.135 4.135 0 011.518-1.54c.646-.381 1.401-.572 2.267-.572.733 0 1.407.161 2.023.484a4.76 4.76 0 011.585 1.276c.44.543.784 1.188 1.034 1.936.249.733.374 1.518.374 2.354 0 .836-.14 1.62-.418 2.354a5.831 5.831 0 01-1.123 1.892 5.402 5.402 0 01-1.715 1.254c-.66.293-1.372.44-2.134.44zm-.99-2.97c.41 0 .784-.073 1.121-.22a2.68 2.68 0 00.859-.638c.249-.264.44-.572.572-.924.146-.367.22-.763.22-1.188 0-.41-.067-.8-.199-1.166a3.086 3.086 0 00-.55-.99 2.378 2.378 0 00-.813-.66 2.281 2.281 0 00-1.035-.242c-.557 0-1.07.19-1.54.572a3.834 3.834 0 00-1.056 1.43v2.42c.235.499.572.895 1.012 1.188a2.66 2.66 0 001.408.418zM75.18.94h3.52v11.946c0 .88.374 1.32 1.122 1.32.176 0 .366-.022.572-.066.22-.059.418-.14.594-.242l.462 2.64a6.83 6.83 0 01-1.518.484 8.01 8.01 0 01-1.606.176c-1.012 0-1.79-.264-2.332-.792-.543-.528-.814-1.29-.814-2.288V.94zm7.265 17.798c.293.103.564.176.814.22.264.044.498.066.704.066.425 0 .755-.147.99-.44.234-.293.447-.821.638-1.584l-4.4-11.55h3.63l2.684 8.536 2.31-8.536h3.3l-4.4 13.42a4.539 4.539 0 01-1.65 2.31c-.792.601-1.731.902-2.816.902-.294 0-.594-.03-.902-.088a4.342 4.342 0 01-.902-.242v-3.014z" fill="#121212"/><circle cx="97.5" cy="13.5" r="3.5" fill="#FFBC0B"/></svg>