<svg width="375" height="264" fill="none" xmlns="http://www.w3.org/2000/svg"><path fill="#F2F2F2" d="M0 0h375v192H0z"/><path fill-rule="evenodd" clip-rule="evenodd" d="M18 209.354a.75.75 0 11-.001-1.5.75.75 0 010 1.5zm0-7.144a.749.749 0 110-1.5.75.75 0 010 1.5zm0-7.142a.75.75 0 110-1.5.75.75 0 010 1.5zm0-7.146a.75.75 0 110-1.5.75.75 0 010 1.5zm0-7.144a.75.75 0 110-1.5.75.75 0 010 1.5zm0-7.144a.75.75 0 11-.003-1.498.75.75 0 01.003 1.498zm0-7.144a.75.75 0 11-.001-1.5.75.75 0 010 1.5zm0-7.144a.75.75 0 11-.001-1.5.75.75 0 010 1.5zm0-7.144a.75.75 0 11-.001-1.5.75.75 0 010 1.5zm0-7.144a.75.75 0 110-1.5.75.75 0 010 1.5zM26.255 209.244c-.414 0-.75-.309-.75-.695 0-.383.336-.694.75-.694s.75.311.75.694c0 .386-.336.695-.75.695zm0-7.145c-.414 0-.75-.309-.75-.694 0-.383.336-.695.75-.695s.75.312.75.695c0 .385-.336.694-.75.694zm0-7.141c-.414 0-.75-.312-.75-.697 0-.382.336-.694.75-.694s.75.312.75.694c0 .385-.336.697-.75.697zm0-7.146c-.414 0-.75-.31-.75-.695 0-.383.336-.694.75-.694s.75.311.75.694c0 .385-.336.695-.75.695zm0-7.144c-.414 0-.75-.31-.75-.694 0-.384.336-.695.75-.695s.75.311.75.695c0 .384-.336.694-.75.694zm0-7.145c-.414 0-.75-.309-.75-.694 0-.383.336-.692.75-.692s.75.309.75.692c0 .385-.336.694-.75.694zm0-7.143c-.414 0-.75-.31-.75-.695 0-.383.336-.694.75-.694s.75.311.75.694c0 .385-.336.695-.75.695zm0-7.144c-.414 0-.75-.31-.75-.695 0-.383.336-.694.75-.694s.75.311.75.694c0 .385-.336.695-.75.695zm0-7.144c-.414 0-.75-.31-.75-.695 0-.383.336-.695.75-.695s.75.312.75.695c0 .385-.336.695-.75.695zm0-7.144c-.413 0-.75-.31-.75-.693 0-.385.337-.696.75-.696.414 0 .75.311.75.696 0 .383-.336.693-.75.693zM34.513 209.244c-.416 0-.75-.309-.75-.695 0-.383.334-.694.75-.694.415 0 .75.311.75.694 0 .386-.335.695-.75.695zm0-7.145c-.416 0-.75-.309-.75-.694 0-.383.334-.695.75-.695.415 0 .75.312.75.695 0 .385-.335.694-.75.694zm0-7.141c-.416 0-.75-.312-.75-.697 0-.382.334-.694.75-.694.415 0 .75.312.75.694 0 .385-.335.697-.75.697zm0-7.146c-.416 0-.75-.31-.75-.695 0-.383.334-.694.75-.694.415 0 .75.311.75.694 0 .385-.335.695-.75.695zm0-7.144c-.416 0-.75-.31-.75-.694 0-.384.334-.695.75-.695.415 0 .75.311.75.695 0 .384-.335.694-.75.694zm0-7.145c-.416 0-.75-.309-.75-.694 0-.383.334-.692.75-.692.415 0 .75.309.75.692 0 .385-.335.694-.75.694zm0-7.143c-.416 0-.75-.31-.75-.695 0-.383.334-.694.75-.694.415 0 .75.311.75.694 0 .385-.335.695-.75.695zm0-7.144c-.416 0-.75-.31-.75-.695 0-.383.334-.694.75-.694.415 0 .75.311.75.694 0 .385-.335.695-.75.695zm0-7.144c-.416 0-.75-.31-.75-.695 0-.383.334-.695.75-.695.415 0 .75.312.75.695 0 .385-.335.695-.75.695zm0-7.144c-.416 0-.75-.31-.75-.693 0-.385.334-.696.75-.696.415 0 .75.311.75.696 0 .383-.335.693-.75.693zM42.749 209.355a.75.75 0 11-.002-1.501.75.75 0 01.002 1.501zm0-7.145a.75.75 0 110-1.5.75.75 0 010 1.5zm0-7.141a.75.75 0 110-1.502.75.75 0 010 1.502zm0-7.146a.75.75 0 11-.003-1.498.75.75 0 01.003 1.498zm0-7.145a.75.75 0 110-1.5.75.75 0 010 1.5zm0-7.144a.748.748 0 110-1.498.75.75 0 110 1.498zm0-7.144a.75.75 0 110-1.5.75.75 0 010 1.5zm0-7.144a.75.75 0 110-1.5.75.75 0 010 1.5zm0-7.144a.75.75 0 110-1.5.75.75 0 010 1.5zm0-7.143a.75.75 0 110-1.5.75.75 0 010 1.5zM51.004 209.244c-.414 0-.75-.31-.75-.695 0-.383.336-.694.75-.694.413 0 .75.311.75.694 0 .385-.337.695-.75.695zm0-7.145c-.414 0-.75-.309-.75-.694 0-.383.336-.695.75-.695.413 0 .75.312.75.695 0 .385-.337.694-.75.694zm0-7.141c-.414 0-.75-.312-.75-.697 0-.383.336-.695.75-.695.413 0 .75.312.75.695 0 .385-.337.697-.75.697zm0-7.147c-.414 0-.75-.309-.75-.694 0-.383.336-.695.75-.695.413 0 .75.312.75.695 0 .385-.337.694-.75.694zm0-7.144c-.414 0-.75-.309-.75-.694 0-.383.336-.695.75-.695.413 0 .75.312.75.695 0 .385-.337.694-.75.694zm0-7.144c-.414 0-.75-.309-.75-.695 0-.382.336-.692.75-.692.413 0 .75.31.75.692 0 .386-.337.695-.75.695zm0-7.144c-.414 0-.75-.309-.75-.695 0-.382.336-.694.75-.694.413 0 .75.312.75.694 0 .386-.337.695-.75.695zm0-7.144c-.414 0-.75-.309-.75-.694 0-.383.336-.695.75-.695.413 0 .75.312.75.695 0 .385-.337.694-.75.694zm0-7.144c-.414 0-.75-.309-.75-.694 0-.383.336-.695.75-.695.413 0 .75.312.75.695 0 .385-.337.694-.75.694zm0-7.144c-.414 0-.75-.309-.75-.692 0-.385.336-.697.75-.697.413 0 .75.312.75.697 0 .383-.337.692-.75.692zM59.263 209.244c-.417 0-.751-.31-.751-.695 0-.383.334-.694.75-.694.415 0 .75.311.75.694 0 .385-.335.695-.75.695zm0-7.145c-.417 0-.751-.309-.751-.694 0-.383.334-.695.75-.695.415 0 .75.312.75.695 0 .385-.335.694-.75.694zm0-7.141c-.417 0-.751-.312-.751-.697 0-.383.334-.695.75-.695.415 0 .75.312.75.695 0 .385-.335.697-.75.697zm0-7.147c-.417 0-.751-.309-.751-.694 0-.383.334-.695.75-.695.415 0 .75.312.75.695 0 .385-.335.694-.75.694zm0-7.144c-.417 0-.751-.309-.751-.694 0-.383.334-.695.75-.695.415 0 .75.312.75.695 0 .385-.335.694-.75.694zm0-7.144c-.417 0-.751-.309-.751-.695 0-.382.334-.692.75-.692.415 0 .75.31.75.692 0 .386-.335.695-.75.695zm0-7.144c-.417 0-.751-.309-.751-.695 0-.382.334-.694.75-.694.415 0 .75.312.75.694 0 .386-.335.695-.75.695zm0-7.144c-.417 0-.751-.309-.751-.694 0-.383.334-.695.75-.695.415 0 .75.312.75.695 0 .385-.335.694-.75.694zm0-7.144c-.417 0-.751-.309-.751-.694 0-.383.334-.695.75-.695.415 0 .75.312.75.695 0 .385-.335.694-.75.694zm0-7.144c-.416 0-.751-.309-.751-.692 0-.385.334-.697.75-.697.415 0 .75.312.75.697 0 .383-.335.692-.75.692zM357.046 56.57a.75.75 0 11-1.5.001.75.75 0 011.5 0zm-7.144 0a.75.75 0 11-1.5.001.75.75 0 011.5 0zm-7.141 0a.75.75 0 11-1.502 0 .75.75 0 011.502 0zm-7.147 0a.75.75 0 11-1.5 0 .75.75 0 011.5 0zm-7.145 0a.75.75 0 11-1.5 0 .75.75 0 011.5 0zm-7.143 0a.75.75 0 11-1.498.003.75.75 0 011.498-.002zm-7.144 0a.75.75 0 11-1.5 0 .75.75 0 011.5 0zm-7.145 0a.75.75 0 11-1.5 0 .75.75 0 011.5 0zm-7.143 0a.75.75 0 11-1.5 0 .75.75 0 011.5 0zm-7.144 0a.75.75 0 11-1.499 0 .75.75 0 011.499 0zM356.935 48.315c0 .414-.309.75-.694.75-.384 0-.695-.336-.695-.75 0-.413.311-.75.695-.75.385 0 .694.337.694.75zm-7.144 0c0 .414-.31.75-.694.75-.384 0-.695-.336-.695-.75 0-.413.311-.75.695-.75.384 0 .694.337.694.75zm-7.141 0c0 .414-.312.75-.697.75-.383 0-.694-.336-.694-.75 0-.413.311-.75.694-.75.385 0 .697.337.697.75zm-7.147 0c0 .414-.309.75-.695.75-.382 0-.694-.336-.694-.75 0-.413.312-.75.694-.75.386 0 .695.337.695.75zm-7.144 0c0 .414-.31.75-.695.75-.383 0-.695-.336-.695-.75 0-.413.312-.75.695-.75.385 0 .695.337.695.75zm-7.144 0c0 .414-.31.75-.695.75-.383 0-.692-.336-.692-.75 0-.413.309-.75.692-.75.385 0 .695.337.695.75zm-7.144 0c0 .414-.309.75-.694.75-.383 0-.695-.336-.695-.75 0-.413.312-.75.695-.75.385 0 .694.337.694.75zm-7.145 0c0 .414-.309.75-.694.75-.383 0-.695-.336-.695-.75 0-.413.312-.75.695-.75.385 0 .694.337.694.75zm-7.143 0c0 .414-.309.75-.694.75-.383 0-.695-.336-.695-.75 0-.413.312-.75.695-.75.385 0 .694.337.694.75zm-7.144 0c0 .414-.309.75-.693.75-.384 0-.696-.336-.696-.75 0-.413.312-.75.696-.75.384 0 .693.337.693.75zM356.935 40.057c0 .416-.309.751-.694.751-.384 0-.695-.335-.695-.75s.311-.75.695-.75c.385 0 .694.335.694.75zm-7.144 0c0 .416-.31.751-.694.751-.384 0-.695-.335-.695-.75s.311-.75.695-.75c.384 0 .694.335.694.75zm-7.141 0c0 .416-.312.751-.697.751-.383 0-.694-.335-.694-.75s.311-.75.694-.75c.385 0 .697.335.697.75zm-7.147 0c0 .416-.309.751-.695.751-.382 0-.694-.335-.694-.75s.312-.75.694-.75c.386 0 .695.335.695.75zm-7.144 0c0 .416-.31.751-.695.751-.383 0-.695-.335-.695-.75s.312-.75.695-.75c.385 0 .695.335.695.75zm-7.144 0c0 .416-.31.751-.695.751-.383 0-.692-.335-.692-.75s.309-.75.692-.75c.385 0 .695.335.695.75zm-7.144 0c0 .416-.309.751-.694.751-.383 0-.695-.335-.695-.75s.312-.75.695-.75c.385 0 .694.335.694.75zm-7.145 0c0 .416-.309.751-.694.751-.383 0-.695-.335-.695-.75s.312-.75.695-.75c.385 0 .694.335.694.75zm-7.143 0c0 .416-.309.751-.694.751-.383 0-.695-.335-.695-.75s.312-.75.695-.75c.385 0 .694.335.694.75zm-7.144 0c0 .416-.309.75-.693.75-.384 0-.696-.334-.696-.75 0-.415.312-.75.696-.75.384 0 .693.335.693.75zM357.047 31.82a.75.75 0 11-1.501.002.75.75 0 011.501-.002zm-7.145 0a.75.75 0 11-1.5 0 .75.75 0 011.5 0zm-7.141 0a.75.75 0 11-1.502 0 .75.75 0 011.502 0zm-7.146 0a.75.75 0 11-1.498.003.75.75 0 011.498-.003zm-7.145 0a.75.75 0 11-1.5 0 .75.75 0 011.5 0zm-7.144 0a.75.75 0 11-1.498.003.75.75 0 011.498-.003zm-7.144 0a.75.75 0 11-1.5 0 .75.75 0 011.5 0zm-7.144 0a.75.75 0 11-1.5.001.75.75 0 011.5 0zm-7.144 0a.75.75 0 11-1.5 0 .75.75 0 011.5 0zm-7.144 0a.75.75 0 11-1.5 0 .75.75 0 011.5 0zM356.935 23.565c0 .414-.309.75-.694.75-.384 0-.695-.336-.695-.75 0-.413.311-.75.695-.75.385 0 .694.337.694.75zm-7.144 0c0 .414-.31.75-.694.75-.384 0-.695-.336-.695-.75 0-.413.311-.75.695-.75.384 0 .694.337.694.75zm-7.141 0c0 .414-.312.75-.697.75-.383 0-.694-.336-.694-.75 0-.413.311-.75.694-.75.385 0 .697.337.697.75zm-7.147 0c0 .414-.309.75-.695.75-.382 0-.694-.336-.694-.75 0-.413.312-.75.694-.75.386 0 .695.337.695.75zm-7.144 0c0 .414-.31.75-.695.75-.383 0-.695-.336-.695-.75 0-.413.312-.75.695-.75.385 0 .695.337.695.75zm-7.144 0c0 .414-.31.75-.695.75-.383 0-.692-.336-.692-.75 0-.413.309-.75.692-.75.385 0 .695.337.695.75zm-7.144 0c0 .414-.309.75-.694.75-.383 0-.695-.336-.695-.75 0-.413.312-.75.695-.75.385 0 .694.337.694.75zm-7.145 0c0 .414-.309.75-.694.75-.383 0-.695-.336-.695-.75 0-.413.312-.75.695-.75.385 0 .694.337.694.75zm-7.143 0c0 .414-.309.75-.694.75-.383 0-.695-.336-.695-.75 0-.413.312-.75.695-.75.385 0 .694.337.694.75zm-7.144 0c0 .414-.309.75-.693.75-.384 0-.696-.336-.696-.75 0-.413.312-.75.696-.75.384 0 .693.337.693.75zM356.936 15.307c0 .416-.31.75-.695.75-.383 0-.694-.334-.694-.75 0-.415.311-.75.694-.75.385 0 .695.335.695.75zm-7.145 0c0 .416-.309.75-.694.75-.383 0-.695-.334-.695-.75 0-.415.312-.75.695-.75.385 0 .694.335.694.75zm-7.141 0c0 .416-.312.75-.697.75-.383 0-.694-.334-.694-.75 0-.415.311-.75.694-.75.385 0 .697.335.697.75zm-7.146 0c0 .416-.31.75-.695.75-.383 0-.694-.334-.694-.75 0-.415.311-.75.694-.75.385 0 .695.335.695.75zm-7.145 0c0 .416-.309.75-.694.75-.383 0-.695-.334-.695-.75 0-.415.312-.75.695-.75.385 0 .694.335.694.75zm-7.144 0c0 .416-.31.75-.695.75-.383 0-.692-.334-.692-.75 0-.415.309-.75.692-.75.385 0 .695.335.695.75zm-7.144 0c0 .416-.309.75-.694.75-.383 0-.695-.334-.695-.75 0-.415.312-.75.695-.75.385 0 .694.335.694.75zm-7.144 0c0 .416-.31.75-.694.75-.384 0-.695-.334-.695-.75 0-.415.311-.75.695-.75.384 0 .694.335.694.75zm-7.144 0c0 .416-.309.75-.694.75-.383 0-.695-.334-.695-.75 0-.415.312-.75.695-.75.385 0 .694.335.694.75zm-7.144 0c0 .416-.309.75-.693.75-.384 0-.696-.334-.696-.75 0-.414.312-.75.696-.75.384 0 .693.336.693.75z" fill="#121212"/><g filter="url(#filter0_d)"><path d="M33 47.46a2 2 0 012-2h306a2 2 0 012 2v188.803c0 .791-.373 1.551-1.036 2.111-.664.561-1.564.876-2.503.878H36.546c-.94 0-1.843-.315-2.507-.876-.665-.56-1.039-1.321-1.039-2.113V47.461z" fill="#fff"/></g><path d="M35.658 29h304.684c.349 0 .695.05 1.017.147.323.097.616.239.863.418.246.18.442.392.576.626.133.234.202.485.202.739v13.783H33V30.93c0-.254.069-.505.202-.739.134-.234.33-.447.576-.626.247-.179.54-.321.863-.418A3.546 3.546 0 0135.658 29z" fill="#161616"/><path d="M33 44.713h310v.748H33v-.748z" fill="#F3F3F3"/><path d="M44.215 40.394c1.458 0 2.64-1.2 2.64-2.68 0-1.48-1.182-2.68-2.64-2.68-1.459 0-2.641 1.2-2.641 2.68 0 1.48 1.182 2.68 2.64 2.68z" fill="#DF463F"/><path d="M53.45 40.394c1.459 0 2.641-1.2 2.641-2.68 0-1.48-1.182-2.68-2.64-2.68-1.46 0-2.641 1.2-2.641 2.68 0 1.48 1.182 2.68 2.64 2.68z" fill="#F3B323"/><path d="M62.686 40.394c1.458 0 2.64-1.2 2.64-2.68 0-1.48-1.182-2.68-2.64-2.68-1.459 0-2.641 1.2-2.641 2.68 0 1.48 1.182 2.68 2.64 2.68z" fill="#8BCE22"/><path fill="#F8F9FA" d="M33 85.867h310V240H33z"/><path fill="#fff" stroke="#F3F3F3" stroke-width=".5" d="M58.02 89.108h261.461V239.75H58.02z"/><path d="M73.209 102.427c.5 0 .935.19 1.302.569.367.379.551.853.551 1.42 0 .585-.185 1.07-.555 1.456-.37.386-.818.579-1.344.579-.531 0-.978-.188-1.34-.565-.361-.376-.542-.863-.542-1.461 0-.611.209-1.11.627-1.496a1.85 1.85 0 011.3-.502zm-.055.207c-.345 0-.622.128-.83.383-.26.318-.39.784-.39 1.397 0 .628.134 1.111.404 1.45a1 1 0 00.82.386c.362 0 .661-.141.898-.423.236-.282.354-.727.354-1.334 0-.658-.13-1.149-.39-1.473-.209-.257-.497-.386-.865-.386zM76.228 102.908v.855h.61v.198h-.61v1.686c0 .168.025.282.073.34a.23.23 0 00.186.088.325.325 0 00.183-.058.377.377 0 00.136-.171h.111a.887.887 0 01-.282.418.608.608 0 01-.375.141.5.5 0 01-.257-.073.436.436 0 01-.185-.207c-.04-.09-.06-.228-.06-.416v-1.748h-.412v-.093c.104-.042.21-.113.32-.212.11-.099.206-.217.292-.353.043-.072.104-.204.182-.395h.088zm2.34 3.079c-.267.207-.435.326-.504.358a.776.776 0 01-.327.071.587.587 0 01-.446-.184.677.677 0 01-.175-.486c0-.127.029-.236.086-.329.078-.129.213-.25.405-.363.193-.114.513-.252.961-.415v-.102c0-.259-.041-.437-.124-.533-.082-.097-.202-.145-.36-.145a.402.402 0 00-.284.097.289.289 0 00-.109.221l.006.164c0 .088-.022.155-.067.202a.23.23 0 01-.175.071.223.223 0 01-.172-.074.287.287 0 01-.067-.201c0-.163.084-.313.25-.449.168-.136.402-.204.704-.204.231 0 .421.039.57.116a.538.538 0 01.247.276c.034.081.051.247.051.499v.883c0 .247.005.399.014.455.01.056.025.093.047.112a.112.112 0 00.076.029c.03 0 .057-.007.08-.02.04-.025.116-.094.23-.207v.158c-.213.284-.416.426-.61.426a.278.278 0 01-.221-.096c-.055-.065-.084-.174-.086-.33zm0-.184v-.99a5.35 5.35 0 00-.555.241.952.952 0 00-.322.261.504.504 0 00-.096.298c0 .136.04.249.122.339.082.09.176.135.282.135.144 0 .334-.095.57-.284zM80.448 102.327v2.588l.664-.605c.14-.128.222-.21.245-.244a.119.119 0 00.022-.068.127.127 0 00-.047-.098c-.031-.027-.083-.043-.155-.046v-.091h1.133v.091a1.048 1.048 0 00-.388.071 1.251 1.251 0 00-.34.232l-.67.616.67.843c.185.233.31.38.375.443a.78.78 0 00.24.173c.047.019.13.028.247.028v.102h-1.267v-.102c.072-.002.121-.013.147-.032a.1.1 0 00.038-.084c0-.044-.038-.114-.114-.21l-.8-1.019v.863c0 .168.012.279.036.332a.222.222 0 00.1.113c.045.023.14.035.286.037v.102h-1.327v-.102a.717.717 0 00.299-.048.205.205 0 00.091-.097.854.854 0 00.043-.323v-2.367c0-.301-.007-.485-.02-.552-.014-.067-.035-.113-.066-.139a.177.177 0 00-.12-.038c-.04 0-.099.016-.179.048l-.048-.099.774-.318h.131zm4.43 1.436v1.575c0 .301.007.485.022.552.014.067.036.114.068.14.031.027.068.04.11.04a.51.51 0 00.199-.048l.04.099-.78.321h-.129v-.551c-.224.242-.394.395-.512.457a.778.778 0 01-.373.094.593.593 0 01-.38-.127.652.652 0 01-.224-.324 1.965 1.965 0 01-.062-.562v-1.161a.567.567 0 00-.04-.255.265.265 0 00-.118-.11.706.706 0 00-.284-.035v-.105h.914v1.739c0 .243.043.402.127.477a.441.441 0 00.306.114.642.642 0 00.278-.077c.103-.051.226-.148.368-.292v-1.473c0-.148-.027-.247-.08-.3-.055-.052-.167-.079-.338-.083v-.105h.888zM86.147 103.684c.087 0 .162.03.223.092a.303.303 0 01.093.223c0 .087-.03.161-.093.223a.306.306 0 01-.223.092.306.306 0 01-.223-.092.305.305 0 01-.093-.223c0-.087.031-.162.093-.223a.303.303 0 01.223-.092zm-.006 2.125c.09 0 .165.032.227.094a.307.307 0 01.092.224.302.302 0 01-.094.223.311.311 0 01-.225.092.306.306 0 01-.223-.092.305.305 0 01-.092-.223c0-.087.03-.162.092-.224a.304.304 0 01.223-.094zM88.982 102.619v-.105h1.654v.105h-.14c-.157 0-.272.046-.344.139-.046.06-.069.206-.069.437v1.881c0 .29-.031.525-.095.704a1.09 1.09 0 01-.329.47.839.839 0 01-.563.2c-.179 0-.32-.044-.422-.132a.391.391 0 01-.154-.302c0-.093.024-.163.072-.21a.31.31 0 01.219-.088c.06 0 .115.02.164.059.048.04.11.146.183.318.044.102.1.153.168.153.051 0 .1-.031.144-.093.045-.063.067-.173.067-.332v-2.628c0-.195-.013-.324-.037-.386a.256.256 0 00-.12-.122.519.519 0 00-.259-.068h-.14zM92.33 105.987c-.267.206-.435.326-.503.358a.776.776 0 01-.328.071.588.588 0 01-.445-.185.675.675 0 01-.175-.485c0-.127.028-.236.085-.329.078-.129.213-.25.406-.363.193-.114.513-.252.96-.415v-.102c0-.259-.04-.437-.123-.533-.083-.097-.203-.145-.36-.145a.406.406 0 00-.285.096.29.29 0 00-.108.222l.006.164a.285.285 0 01-.067.202.23.23 0 01-.175.071.223.223 0 01-.172-.074.288.288 0 01-.068-.202c0-.162.084-.312.251-.448.167-.136.401-.204.703-.204.232 0 .422.038.57.116.112.059.194.15.247.275.035.082.052.248.052.5v.882c0 .248.004.4.014.456.01.056.025.093.047.112a.111.111 0 00.075.028c.03 0 .057-.006.08-.02.04-.024.117-.093.23-.207v.159c-.212.284-.415.426-.609.426a.275.275 0 01-.222-.097c-.055-.064-.083-.174-.085-.329zm0-.184v-.991a5.52 5.52 0 00-.554.242.953.953 0 00-.322.261.502.502 0 00-.097.298c0 .136.041.249.123.339.081.09.175.135.281.135.145 0 .335-.095.57-.284z" fill="#000"/><path d="M93.252 104.021l.803-.324h.108v.607c.135-.229.27-.389.406-.481a.758.758 0 01.429-.137c.262 0 .48.102.654.306.215.25.322.575.322.976 0 .449-.129.82-.387 1.113-.213.24-.48.36-.803.36-.14 0-.262-.02-.364-.059a.853.853 0 01-.257-.171v.792c0 .178.011.291.033.339.022.049.06.087.114.115.054.029.153.043.295.043v.105h-1.367v-.105h.072a.514.514 0 00.267-.06.204.204 0 00.084-.101c.02-.046.03-.164.03-.353v-2.457c0-.169-.008-.276-.023-.321a.188.188 0 00-.072-.102.234.234 0 00-.136-.034.524.524 0 00-.173.039l-.035-.09zm.912.451v.97c0 .21.008.348.025.415a.53.53 0 00.195.289.606.606 0 00.392.125c.19 0 .343-.074.46-.221.155-.193.231-.465.231-.815 0-.397-.087-.703-.261-.916a.545.545 0 00-.704-.154c-.068.034-.18.136-.338.307zM97.833 105.987c-.267.206-.435.326-.504.358a.776.776 0 01-.327.071.588.588 0 01-.446-.185.675.675 0 01-.175-.485c0-.127.029-.236.086-.329.078-.129.213-.25.405-.363.193-.114.513-.252.961-.415v-.102c0-.259-.041-.437-.124-.533-.082-.097-.202-.145-.36-.145a.406.406 0 00-.284.096.291.291 0 00-.109.222l.006.164a.285.285 0 01-.067.202.23.23 0 01-.175.071.223.223 0 01-.172-.074.288.288 0 01-.067-.202c0-.162.084-.312.25-.448.168-.136.402-.204.704-.204.231 0 .421.038.57.116.111.059.194.15.247.275.034.082.051.248.051.5v.882c0 .248.005.4.014.456.01.056.025.093.047.112a.111.111 0 00.076.028c.03 0 .057-.006.08-.02.04-.024.116-.093.23-.207v.159c-.213.284-.416.426-.61.426a.276.276 0 01-.221-.097c-.055-.064-.084-.174-.086-.329zm0-.184v-.991a5.515 5.515 0 00-.555.242.954.954 0 00-.322.261.502.502 0 00-.096.298c0 .136.04.249.122.339.082.09.176.135.282.135.144 0 .334-.095.57-.284zM99.703 104.236c.305-.367.597-.55.874-.55a.63.63 0 01.367.106.718.718 0 01.245.351c.041.113.062.287.062.522v1.109c0 .165.014.277.04.335a.236.236 0 00.101.111c.047.026.133.04.258.04v.102h-1.29v-.102h.054c.122 0 .207-.019.255-.056a.286.286 0 00.101-.163c.008-.028.012-.117.012-.267v-1.064c0-.236-.031-.408-.093-.515-.062-.107-.166-.16-.312-.16-.226 0-.45.123-.674.369v1.37c0 .176.01.285.03.327a.258.258 0 00.11.12c.047.026.141.039.284.039v.102h-1.29v-.102h.057c.133 0 .223-.034.27-.101.046-.067.069-.195.069-.385v-.965c0-.312-.007-.502-.022-.57-.014-.068-.036-.114-.065-.139a.176.176 0 00-.118-.037.537.537 0 00-.19.043l-.044-.102.786-.318h.123v.55zM102.353 103.896v-.133c.195-.115.328-.223.398-.323a.449.449 0 00.074-.259.226.226 0 00-.031-.13c-.023-.029-.048-.043-.074-.043a.25.25 0 00-.083.02.393.393 0 01-.122.026.283.283 0 01-.202-.086.28.28 0 01-.088-.212c0-.095.029-.169.088-.222a.408.408 0 01.284-.108c.127 0 .242.054.343.161.101.107.152.24.152.398a.882.882 0 01-.253.611 1.24 1.24 0 01-.486.3zM104.841 103.686v.885h-.094c-.072-.278-.164-.467-.277-.567a.624.624 0 00-.432-.151.475.475 0 00-.321.105c-.082.07-.123.148-.123.233 0 .106.031.197.091.272.059.078.179.16.359.247l.416.202c.385.187.578.434.578.74a.7.7 0 01-.269.572.935.935 0 01-.603.217c-.159 0-.341-.028-.546-.085a.554.554 0 00-.154-.028c-.044 0-.078.024-.102.074h-.094v-.928h.094c.053.264.154.464.304.598.15.135.318.202.504.202a.449.449 0 00.32-.115.364.364 0 00.124-.277.44.44 0 00-.138-.329c-.092-.089-.275-.201-.551-.338-.275-.136-.455-.259-.541-.369a.638.638 0 01-.128-.408c0-.214.074-.393.221-.537a.784.784 0 01.571-.215c.102 0 .227.021.373.065a.909.909 0 00.193.043.113.113 0 00.071-.02.275.275 0 00.06-.088h.094zM109.374 102.426v1.331h-.105a1.642 1.642 0 00-.184-.61.955.955 0 00-.377-.36 1.045 1.045 0 00-.507-.134c-.197 0-.36.06-.489.181a.547.547 0 00-.194.41c0 .117.041.224.123.32.117.142.397.331.839.568.361.193.607.341.739.444.132.103.234.225.305.365a.995.995 0 01-.234 1.193c-.226.211-.518.317-.875.317-.112 0-.217-.009-.316-.026a3.07 3.07 0 01-.366-.104 1.664 1.664 0 00-.352-.089.148.148 0 00-.112.043c-.028.028-.048.087-.061.176h-.106v-1.32h.106c.049.276.116.483.199.62a.96.96 0 00.383.342c.172.091.36.136.565.136.237 0 .425-.062.562-.187a.58.58 0 00.207-.443.589.589 0 00-.079-.286.845.845 0 00-.243-.27 7.053 7.053 0 00-.606-.362 5.79 5.79 0 01-.705-.441 1.202 1.202 0 01-.317-.363.947.947 0 01.21-1.151c.213-.2.483-.3.812-.3.205 0 .422.051.652.151a.676.676 0 00.225.071.173.173 0 00.121-.044c.031-.03.056-.089.075-.178h.105zM112.413 103.763v1.575c0 .301.007.485.022.552.014.067.037.114.068.14.031.027.068.04.11.04a.512.512 0 00.199-.048l.04.099-.78.321h-.128v-.551c-.224.242-.395.395-.513.457a.78.78 0 01-.373.094.593.593 0 01-.38-.127.647.647 0 01-.223-.324 1.952 1.952 0 01-.063-.562v-1.161a.56.56 0 00-.04-.255.263.263 0 00-.118-.11.706.706 0 00-.283-.035v-.105h.914v1.739c0 .243.042.402.126.477a.443.443 0 00.306.114.644.644 0 00.278-.077c.103-.051.226-.148.369-.292v-1.473c0-.148-.028-.247-.082-.3-.054-.052-.166-.079-.337-.083v-.105h.888zm1.344.448c.252-.35.525-.525.817-.525.268 0 .501.114.7.342.2.228.299.54.299.935 0 .462-.153.834-.461 1.116-.264.242-.558.363-.882.363-.152 0-.306-.028-.463-.083a2.124 2.124 0 01-.48-.246v-2.694c0-.295-.007-.476-.021-.544-.014-.069-.037-.115-.067-.14a.177.177 0 00-.114-.036.591.591 0 00-.199.045l-.04-.099.783-.318h.128v1.884zm0 .182v1.555c.097.095.197.166.3.214.104.048.21.073.318.073.173 0 .333-.095.482-.284.149-.189.224-.465.224-.826 0-.333-.075-.589-.224-.768-.149-.178-.318-.268-.508-.268-.1 0-.201.026-.302.077a1.326 1.326 0 00-.29.227zM118.172 105.374c-.07.343-.207.606-.412.791a.997.997 0 01-.681.276c-.296 0-.554-.124-.774-.371-.22-.248-.33-.583-.33-1.005 0-.409.122-.741.365-.996a1.17 1.17 0 01.879-.383c.256 0 .467.067.632.203.165.135.247.275.247.421 0 .072-.023.13-.069.175a.274.274 0 01-.195.066c-.112 0-.197-.036-.254-.108-.032-.039-.053-.115-.064-.227a.372.372 0 00-.115-.255.412.412 0 00-.276-.085c-.19 0-.343.07-.459.21-.153.185-.23.43-.23.735 0 .31.076.584.229.821.153.238.359.357.619.357a.75.75 0 00.501-.191c.105-.087.206-.245.305-.474l.082.04zM120.831 103.763v1.575c0 .301.007.485.021.552.014.067.037.114.068.14.032.027.068.04.11.04a.508.508 0 00.199-.048l.04.099-.78.321h-.128v-.551c-.224.242-.395.395-.512.457a.78.78 0 01-.373.094.596.596 0 01-.38-.126.656.656 0 01-.224-.325 1.952 1.952 0 01-.063-.562v-1.161a.578.578 0 00-.039-.255.265.265 0 00-.119-.11.703.703 0 00-.283-.035v-.105h.914v1.739c0 .243.042.402.127.477a.44.44 0 00.306.114.64.64 0 00.277-.077c.104-.051.227-.148.369-.292v-1.473c0-.148-.027-.247-.081-.299-.054-.052-.167-.08-.337-.084v-.105h.888zM122.356 102.327v3.448c0 .163.012.27.036.323.023.053.06.094.109.121.05.027.142.041.276.041v.102h-1.278v-.102c.12 0 .201-.012.245-.037a.237.237 0 00.102-.122c.025-.057.037-.165.037-.326v-2.361c0-.294-.006-.474-.02-.541-.013-.067-.034-.113-.064-.138a.17.17 0 00-.112-.036.54.54 0 00-.188.045l-.048-.099.777-.318h.128zm1.48.582v.854h.609v.198h-.609v1.686c0 .169.024.282.073.341.048.058.11.088.186.088.063 0 .124-.02.182-.059a.37.37 0 00.137-.171h.111a.88.88 0 01-.282.418.605.605 0 01-.375.141.51.51 0 01-.257-.072.446.446 0 01-.185-.208c-.04-.09-.06-.228-.06-.415v-1.749h-.412v-.093a1.08 1.08 0 00.32-.212 1.7 1.7 0 00.292-.353c.043-.072.104-.203.182-.394h.088zM126.983 103.762v1.575c0 .301.007.485.021.552.015.067.037.114.069.141.031.026.068.04.109.04a.516.516 0 00.2-.049l.04.1-.781.32h-.128v-.55c-.224.242-.394.394-.512.457a.79.79 0 01-.373.093.598.598 0 01-.38-.126.658.658 0 01-.224-.325 1.989 1.989 0 01-.062-.562v-1.161a.575.575 0 00-.04-.255.266.266 0 00-.118-.109c-.052-.026-.147-.038-.283-.036v-.105h.913v1.74c0 .242.043.401.127.477a.447.447 0 00.306.113.641.641 0 00.278-.076c.103-.051.226-.149.368-.293v-1.473c0-.147-.027-.247-.081-.299-.054-.052-.166-.08-.337-.084v-.105h.888zm1.392-.076v.584c.219-.389.442-.584.672-.584.105 0 .191.031.259.095a.289.289 0 01.103.22.261.261 0 01-.074.187.24.24 0 01-.177.077c-.066 0-.141-.033-.223-.098-.083-.066-.144-.098-.184-.098-.034 0-.071.019-.111.057a1.36 1.36 0 00-.265.383v1.246c0 .143.018.252.054.326a.3.3 0 00.131.128.58.58 0 00.271.051v.102h-1.335v-.102a.555.555 0 00.296-.063.241.241 0 00.099-.145c.01-.032.015-.123.015-.275v-1.007c0-.303-.007-.483-.019-.541a.207.207 0 00-.068-.126.192.192 0 00-.124-.04.55.55 0 00-.199.043l-.029-.102.789-.318h.119zM129.993 104.742c-.002.386.092.689.282.908.19.22.413.33.669.33a.728.728 0 00.446-.141c.126-.094.232-.254.317-.481l.088.057a1.35 1.35 0 01-.347.708.929.929 0 01-.72.319c-.314 0-.582-.121-.805-.364-.223-.244-.334-.57-.334-.981 0-.445.114-.791.343-1.04a1.12 1.12 0 01.861-.373c.292 0 .532.096.72.288.188.192.282.449.282.77h-1.802zm0-.164h1.207a1.074 1.074 0 00-.06-.352.564.564 0 00-.506-.341.587.587 0 00-.423.183c-.124.122-.197.292-.218.51zM135.076 105.987c-.268.206-.436.326-.504.358a.776.776 0 01-.327.071.588.588 0 01-.446-.185.673.673 0 01-.175-.485c0-.127.028-.236.085-.329.078-.129.213-.25.406-.363.193-.114.513-.252.961-.415v-.102c0-.259-.041-.437-.124-.533-.082-.097-.202-.145-.36-.145a.408.408 0 00-.285.096.291.291 0 00-.108.222l.006.164a.288.288 0 01-.067.202.231.231 0 01-.175.071.222.222 0 01-.172-.074.287.287 0 01-.067-.202c0-.162.083-.312.25-.448.167-.136.402-.204.703-.204.232 0 .422.038.57.116.112.059.194.15.247.275.035.082.052.248.052.5v.882c0 .248.004.4.014.456.009.056.025.093.047.112a.111.111 0 00.075.028.149.149 0 00.08-.02 1.68 1.68 0 00.231-.207v.159c-.213.284-.416.426-.61.426a.275.275 0 01-.222-.097c-.055-.064-.083-.174-.085-.329zm0-.184v-.991a5.407 5.407 0 00-.555.242.958.958 0 00-.322.261.505.505 0 00-.097.298c0 .136.041.249.123.339a.37.37 0 00.282.135c.144 0 .334-.095.569-.284zM136.945 104.237c.306-.367.597-.551.874-.551.143 0 .265.036.368.107a.708.708 0 01.244.35c.042.114.063.288.063.522v1.11c0 .164.013.276.04.335a.23.23 0 00.101.11c.046.027.132.04.258.04v.102h-1.29v-.102h.054c.121 0 .206-.018.255-.055a.292.292 0 00.101-.163c.007-.029.011-.118.011-.267v-1.064c0-.237-.031-.409-.092-.515-.062-.107-.166-.161-.312-.161-.226 0-.451.123-.675.369v1.371c0 .176.011.285.032.326a.264.264 0 00.109.121c.047.025.141.038.283.038v.102h-1.289v-.102h.057c.133 0 .222-.033.269-.101.046-.067.07-.195.07-.384v-.965c0-.312-.008-.502-.022-.57-.014-.069-.036-.115-.065-.14a.183.183 0 00-.118-.036.552.552 0 00-.191.042l-.043-.102.786-.318h.122v.551zm3.997 1.833a1.301 1.301 0 01-.373.285.896.896 0 01-.392.087c-.285 0-.534-.119-.746-.356-.213-.238-.319-.543-.319-.916 0-.372.117-.713.353-1.023.235-.309.538-.464.908-.464.23 0 .419.073.569.219v-.48c0-.297-.007-.479-.021-.547-.014-.069-.037-.115-.067-.14a.177.177 0 00-.114-.036.603.603 0 00-.196.045l-.037-.099.777-.318h.128v3.005c0 .305.007.491.021.558.015.067.037.114.069.14.031.027.068.04.109.04.052 0 .12-.016.205-.048l.032.099-.775.321h-.131v-.372zm0-.199v-1.339a.894.894 0 00-.102-.352.59.59 0 00-.501-.321c-.167 0-.316.075-.447.224-.173.197-.259.485-.259.863 0 .382.083.675.25.879.167.203.353.305.558.305.173 0 .34-.086.501-.259zM144.49 104.299h1.793v-1.101c0-.197-.012-.327-.037-.389a.257.257 0 00-.119-.122.52.52 0 00-.26-.068h-.136v-.105h1.651v.105h-.137a.55.55 0 00-.259.065.24.24 0 00-.124.138 1.407 1.407 0 00-.032.376v2.483c0 .195.012.323.037.386a.26.26 0 00.116.122.547.547 0 00.262.068h.137v.105h-1.651v-.105h.136c.158 0 .273-.046.345-.139.047-.061.071-.206.071-.437v-1.172h-1.793v1.172c0 .195.012.323.037.386a.253.253 0 00.119.122.53.53 0 00.259.068h.14v.105h-1.654v-.105h.136c.16 0 .275-.046.348-.139.045-.061.068-.206.068-.437v-2.483c0-.197-.012-.327-.037-.389a.257.257 0 00-.117-.122.533.533 0 00-.262-.068h-.136v-.105h1.654v.105h-.14a.55.55 0 00-.259.065.24.24 0 00-.122.138c-.023.061-.034.187-.034.376v1.101zM148.96 103.686c.395 0 .712.149.951.448.203.255.305.549.305.88 0 .233-.056.468-.168.706a1.218 1.218 0 01-.463.54 1.224 1.224 0 01-.656.181c-.393 0-.705-.156-.937-.468a1.45 1.45 0 01-.293-.885c0-.239.06-.476.178-.711.119-.236.275-.41.468-.522.194-.113.399-.169.615-.169zm-.088.184c-.1 0-.202.03-.303.09a.619.619 0 00-.246.313c-.063.15-.094.342-.094.576 0 .379.075.705.226.979.151.275.35.412.597.412a.557.557 0 00.455-.227c.12-.152.179-.412.179-.781 0-.461-.099-.825-.299-1.089a.614.614 0 00-.515-.273zM150.455 103.763h1.093v.105c-.1.007-.166.025-.198.054-.031.028-.047.069-.047.122 0 .058.017.129.049.213l.558 1.495.561-1.217-.148-.383a.462.462 0 00-.18-.236.518.518 0 00-.233-.048v-.105h1.241v.105c-.137.005-.233.03-.29.074-.038.03-.057.078-.057.144 0 .038.007.077.023.117l.592 1.492.549-1.438a.757.757 0 00.057-.244c0-.036-.018-.069-.055-.097-.037-.028-.11-.044-.218-.048v-.105h.823v.105c-.166.024-.287.136-.365.335l-.871 2.239h-.117l-.652-1.66-.76 1.66h-.105l-.837-2.185a.787.787 0 00-.162-.28.544.544 0 00-.251-.109v-.105zM158.434 102.514h1.346v.105h-.074a.847.847 0 00-.475.252 2.567 2.567 0 00-.288.398l-.931 1.461v.965c0 .237.027.384.08.443.072.079.186.119.342.119h.125v.105h-1.64v-.105h.137c.163 0 .279-.049.347-.148.042-.06.063-.198.063-.414v-.911l-1.06-1.612a3.628 3.628 0 00-.254-.355 1.005 1.005 0 00-.278-.17.38.38 0 00-.165-.028v-.105h1.651v.105h-.085a.505.505 0 00-.246.062.203.203 0 00-.113.188c0 .068.058.191.174.368l.805 1.241.758-1.187c.114-.177.171-.31.171-.397a.25.25 0 00-.042-.142.281.281 0 00-.118-.098.586.586 0 00-.23-.035v-.105z" fill="#000"/><path d="M160.157 103.686c.395 0 .712.149.951.448.203.255.305.549.305.88 0 .233-.056.468-.168.706a1.218 1.218 0 01-.463.54 1.224 1.224 0 01-.656.181c-.393 0-.705-.156-.937-.468a1.45 1.45 0 01-.293-.885c0-.239.059-.476.178-.711.119-.236.275-.41.468-.522.194-.113.399-.169.615-.169zm-.088.184a.589.589 0 00-.303.09.625.625 0 00-.247.313c-.062.15-.093.342-.093.576 0 .379.075.705.226.979.151.275.35.412.596.412a.559.559 0 00.456-.227c.119-.152.179-.412.179-.781 0-.461-.099-.825-.299-1.089a.616.616 0 00-.515-.273zm4.014-.108v1.575c0 .301.007.485.021.552.015.067.037.114.069.141.031.026.068.04.109.04a.516.516 0 00.2-.049l.04.1-.781.32h-.128v-.55c-.224.242-.394.394-.512.457a.79.79 0 01-.373.093.598.598 0 01-.38-.126.658.658 0 01-.224-.325 1.989 1.989 0 01-.062-.562v-1.161a.56.56 0 00-.04-.255.266.266 0 00-.118-.109c-.052-.026-.147-.038-.283-.036v-.105h.913v1.74c0 .242.043.401.127.477a.447.447 0 00.306.113.641.641 0 00.278-.076c.103-.051.226-.149.368-.293v-1.473c0-.147-.027-.247-.081-.299-.054-.052-.166-.08-.337-.084v-.105h.888zM165.469 102.908v.855h.61v.198h-.61v1.686c0 .168.025.282.073.34a.23.23 0 00.187.088.326.326 0 00.182-.058.373.373 0 00.136-.171h.111a.886.886 0 01-.281.418.61.61 0 01-.376.141.496.496 0 01-.441-.28c-.04-.09-.06-.228-.06-.416v-1.748h-.413v-.093a1.1 1.1 0 00.32-.212 1.67 1.67 0 00.292-.353c.044-.072.104-.204.182-.395h.088zM167.097 102.327v1.901c.211-.231.378-.379.501-.444a.788.788 0 01.37-.098c.148 0 .275.041.382.122a.723.723 0 01.236.383c.036.121.054.343.054.664v.92c0 .164.013.277.04.338a.218.218 0 00.097.107c.045.027.129.04.25.04v.102h-1.281v-.102h.06c.121 0 .206-.018.253-.055a.29.29 0 00.1-.163 2.15 2.15 0 00.009-.267v-.92c0-.283-.015-.47-.045-.559a.374.374 0 00-.141-.2.402.402 0 00-.233-.066.658.658 0 00-.29.073c-.101.05-.221.149-.362.298v1.374c0 .178.01.288.03.332.02.043.057.08.111.109a.641.641 0 00.28.044v.102h-1.292v-.102a.575.575 0 00.273-.054.2.2 0 00.091-.108c.023-.053.034-.16.034-.323v-2.353c0-.297-.007-.479-.021-.547-.014-.069-.036-.115-.065-.14a.184.184 0 00-.119-.036.704.704 0 00-.193.045l-.04-.099.78-.318h.131zm6.935.099l.088 1.308h-.088c-.117-.391-.285-.673-.504-.845a1.23 1.23 0 00-.785-.259c-.257 0-.488.065-.695.195-.207.129-.37.336-.488.62-.119.284-.178.637-.178 1.058 0 .349.056.65.168.906.112.255.28.451.505.587.225.136.482.205.77.205.251 0 .472-.054.663-.161.192-.107.403-.319.632-.637l.089.057c-.194.342-.42.593-.678.752a1.718 1.718 0 01-.919.238c-.64 0-1.135-.236-1.487-.709a2.029 2.029 0 01-.392-1.243c0-.384.086-.737.259-1.059a1.87 1.87 0 01.713-.748 1.94 1.94 0 01.992-.265c.279 0 .554.068.826.204a.44.44 0 00.17.063.187.187 0 00.134-.054.437.437 0 00.106-.213h.099zm1.324 1.26v.585c.218-.39.442-.585.672-.585.104 0 .191.032.259.095a.294.294 0 01.102.22.256.256 0 01-.074.187.233.233 0 01-.176.077c-.067 0-.141-.033-.224-.098-.082-.065-.143-.098-.183-.098-.034 0-.071.019-.111.057a1.354 1.354 0 00-.265.383v1.246c0 .144.018.253.054.326a.295.295 0 00.131.128.58.58 0 00.271.051v.102h-1.336v-.102a.56.56 0 00.296-.062.244.244 0 00.1-.145c.01-.032.014-.124.014-.275v-1.008c0-.302-.006-.483-.018-.54a.214.214 0 00-.069-.127.193.193 0 00-.123-.039.574.574 0 00-.2.042l-.028-.102.788-.318h.12zM176.973 104.742c-.002.386.092.688.282.908.19.219.413.329.669.329a.728.728 0 00.446-.141c.126-.093.232-.254.317-.481l.088.057a1.35 1.35 0 01-.347.708.93.93 0 01-.72.32c-.314 0-.582-.122-.805-.365-.223-.243-.334-.57-.334-.981 0-.444.114-.791.343-1.04a1.12 1.12 0 01.861-.373c.292 0 .532.096.72.288.188.192.282.449.282.771h-1.802zm0-.165h1.207a1.08 1.08 0 00-.06-.352.564.564 0 00-.506-.34.587.587 0 00-.423.183c-.124.122-.197.291-.218.509zm3.627 1.41c-.268.207-.436.326-.504.358a.776.776 0 01-.327.071.588.588 0 01-.446-.184.676.676 0 01-.175-.486c0-.127.028-.236.085-.329.078-.129.213-.25.406-.363.193-.114.513-.252.961-.415v-.102c0-.259-.041-.437-.124-.533-.082-.097-.203-.145-.36-.145a.402.402 0 00-.285.097.29.29 0 00-.108.221l.006.164a.284.284 0 01-.067.202.231.231 0 01-.175.071.222.222 0 01-.172-.074.286.286 0 01-.067-.201c0-.163.083-.313.25-.449.167-.136.402-.204.703-.204.232 0 .422.039.57.116a.536.536 0 01.247.276c.035.081.052.247.052.499v.883c0 .247.004.399.014.455.009.056.025.093.047.112a.112.112 0 00.075.029.158.158 0 00.08-.02c.04-.025.117-.094.231-.207v.158c-.213.284-.416.426-.61.426a.278.278 0 01-.222-.096c-.055-.065-.083-.174-.085-.33zm0-.184v-.99a5.253 5.253 0 00-.555.241.958.958 0 00-.322.261.507.507 0 00-.097.298c0 .136.041.249.123.339a.37.37 0 00.282.135c.144 0 .334-.095.569-.284zm1.867-2.895v.855h.61v.198h-.61v1.686c0 .168.025.282.073.34.048.059.11.088.186.088a.327.327 0 00.183-.058.38.38 0 00.136-.171h.111a.88.88 0 01-.282.418.605.605 0 01-.375.141.502.502 0 01-.257-.073.44.44 0 01-.185-.207c-.04-.09-.059-.228-.059-.416v-1.748h-.413v-.093a1.1 1.1 0 00.32-.212 1.7 1.7 0 00.292-.353c.044-.072.104-.204.182-.395h.088zm1.301 1.834c-.002.386.092.688.282.908.19.219.413.329.669.329a.728.728 0 00.446-.141c.126-.093.232-.254.317-.481l.088.057a1.35 1.35 0 01-.347.708.93.93 0 01-.72.32c-.313 0-.582-.122-.805-.365-.223-.243-.334-.57-.334-.981 0-.444.114-.791.343-1.04a1.12 1.12 0 01.861-.373c.292 0 .533.096.72.288.188.192.282.449.282.771h-1.802zm0-.165h1.207a1.08 1.08 0 00-.06-.352.564.564 0 00-.506-.34.587.587 0 00-.423.183c-.124.122-.197.291-.218.509zM187.599 103.686v.885h-.094c-.073-.278-.165-.467-.278-.567a.623.623 0 00-.431-.151.478.478 0 00-.322.105c-.082.07-.122.148-.122.233 0 .106.03.197.091.272.059.078.178.16.358.247l.416.202c.385.187.578.434.578.74a.7.7 0 01-.269.572.932.932 0 01-.602.217c-.16 0-.342-.028-.547-.085a.548.548 0 00-.154-.028c-.043 0-.077.024-.102.074h-.094v-.928h.094c.053.264.155.464.305.598.15.135.317.202.503.202a.453.453 0 00.321-.115.367.367 0 00.124-.277.44.44 0 00-.138-.329c-.093-.089-.276-.201-.551-.338-.276-.136-.456-.259-.541-.369a.632.632 0 01-.128-.408.72.72 0 01.22-.537.786.786 0 01.571-.215c.103 0 .227.021.373.065a.913.913 0 00.194.043c.03 0 .054-.007.071-.02a.292.292 0 00.06-.088h.094zM191.258 106.257v.105h-1.654v-.105h.137c.159 0 .275-.046.347-.139.046-.061.068-.206.068-.437v-2.486c0-.195-.012-.324-.037-.386a.26.26 0 00-.116-.122.536.536 0 00-.262-.068h-.137v-.105h1.654v.105h-.139c-.158 0-.273.046-.345.139-.047.06-.071.206-.071.437v2.486c0 .195.012.323.037.386a.255.255 0 00.12.122.525.525 0 00.259.068h.139zM192.34 102.908v.855h.609v.198h-.609v1.686c0 .168.024.282.072.34a.232.232 0 00.187.088.326.326 0 00.182-.058.381.381 0 00.137-.171h.111a.895.895 0 01-.282.418.61.61 0 01-.376.141.499.499 0 01-.256-.073.429.429 0 01-.185-.207c-.04-.09-.06-.228-.06-.416v-1.748h-.413v-.093a1.1 1.1 0 00.32-.212 1.67 1.67 0 00.292-.353c.044-.072.105-.204.182-.395h.089zM194.887 103.686v.885h-.094c-.072-.278-.165-.467-.278-.567a.623.623 0 00-.431-.151.478.478 0 00-.322.105c-.082.07-.122.148-.122.233 0 .106.03.197.091.272.059.078.178.16.358.247l.416.202c.385.187.578.434.578.74a.7.7 0 01-.269.572.932.932 0 01-.602.217c-.16 0-.342-.028-.547-.085a.548.548 0 00-.153-.028c-.044 0-.078.024-.103.074h-.094v-.928h.094c.053.264.155.464.305.598.15.135.318.202.504.202a.45.45 0 00.32-.115.367.367 0 00.124-.277.44.44 0 00-.138-.329c-.092-.089-.276-.201-.551-.338-.275-.136-.456-.259-.541-.369a.632.632 0 01-.128-.408.72.72 0 01.22-.537.786.786 0 01.571-.215c.103 0 .227.021.373.065a.913.913 0 00.194.043c.03 0 .054-.007.071-.02a.292.292 0 00.06-.088h.094z" fill="#000"/><path stroke="#161616" stroke-width=".5" d="M199.134 98.585v11.223"/><path d="M285.381 58.18h4.898c.512 0 .929.41.929.915v2.952a.923.923 0 01-.925.915v1.34l-1.955-1.34h-2.947a.922.922 0 01-.928-.915v-2.952c0-.504.416-.915.928-.915zm.88 3.431h3.139v-.39h-3.139v.39zm0-.831h3.139v-.39h-3.139v.39zm0-.832h3.139v-.39h-3.139v.39z" fill="#000"/><path d="M145.189 59.175l-1.817 1.503.634 2.392-2.075-1.357-2.006 1.243.536-2.341-1.895-1.61 2.426-.105.868-2.26.932 2.3 2.397.235zm-3.924.103l-1.703.073 1.329 1.13-.379 1.648 1.412-.875 1.458.952-.446-1.68 1.282-1.06-1.69-.161-.654-1.615-.609 1.588z" fill="#CECECE"/><path d="M154.319 58.77h-2.439l-.485-.564a.077.077 0 00-.059-.026h-1.962a.528.528 0 00-.53.523v3.445c0 .286.236.519.53.521h4.945a.529.529 0 00.53-.521V59.29a.529.529 0 00-.53-.522z" fill="#000"/><g clip-path="url(#clip0)"><path d="M56.34 56.848l-2.464-.702-.703-2.455h-4.926c-.583 0-1.056.471-1.056 1.052v9.867c0 .582.473 1.053 1.056 1.053h7.037c.583 0 1.055-.471 1.055-1.052v-7.763z" fill="#FFBC0B"/><path d="M56.34 56.848v7.763c0 .58-.473 1.052-1.056 1.052h-3.518V53.69h1.407l.704 2.455 2.463.702z" fill="#E2A400"/><path d="M56.34 56.848h-2.464a.705.705 0 01-.703-.702v-2.455a.33.33 0 01.246.105l2.815 2.806c.07.063.105.154.105.246z" fill="#FFBC0B"/><path d="M53.876 59.326h-4.222a.351.351 0 110-.701h4.222a.351.351 0 110 .701zM53.876 60.73h-4.222a.351.351 0 110-.702h4.222a.351.351 0 110 .701zM53.876 62.132h-4.222a.351.351 0 110-.701h4.222a.351.351 0 110 .701zM52.469 63.535h-2.815a.351.351 0 110-.701h2.815a.351.351 0 110 .701z" fill="#FFF5F5"/><path d="M51.766 63.535h.703a.35.35 0 100-.702h-.703v.702zM51.766 62.132h2.11a.351.351 0 100-.702h-2.11v.702zM51.766 60.73h2.11a.351.351 0 100-.702h-2.11v.701zM51.766 59.326h2.11a.351.351 0 100-.701h-2.11v.701z" fill="#E3E7EA"/></g><path fill-rule="evenodd" clip-rule="evenodd" d="M85.058 79.395l-2.933 2.924-1.386-1.841.6-.45.867 1.152 2.321-2.314.53.53z" fill="#161616"/><path d="M81.61 79.879l-.375-1.038h-1.434l-.367 1.038h-.646l1.403-3.755h.667l1.403 3.755h-.651zm-.537-1.565l-.351-1.018a6.883 6.883 0 01-.2-.645 5.71 5.71 0 01-.203.688l-.338.975h1.093zM185.902 77.851h1.38v1.877a4.001 4.001 0 01-1.324.202c-.568 0-1.006-.167-1.314-.5-.307-.337-.461-.81-.461-1.42 0-.602.173-1.073.52-1.412.348-.341.826-.511 1.435-.511.391 0 .762.075 1.113.225l-.215.508a2.175 2.175 0 00-.914-.21c-.4 0-.716.126-.949.377-.233.25-.349.593-.349 1.028 0 .457.104.805.313 1.043.21.237.512.356.906.356.198 0 .41-.025.636-.075v-.964h-.777v-.524zM189.36 79.93c-.441 0-.787-.128-1.037-.383-.248-.258-.372-.611-.372-1.062 0-.462.116-.825.347-1.09.231-.263.548-.395.952-.395.374 0 .67.113.887.34.217.226.326.538.326.936v.324h-1.891c.009.275.083.486.223.635.141.146.338.22.593.22.168 0 .323-.016.467-.046.145-.033.301-.086.467-.159v.489a1.86 1.86 0 01-.446.148 2.754 2.754 0 01-.516.043zm-.11-2.475a.61.61 0 00-.462.181c-.115.121-.183.298-.205.53h1.287c-.003-.234-.059-.41-.169-.53a.577.577 0 00-.451-.181zM193.665 78.46c0 .462-.119.822-.357 1.082-.237.259-.568.388-.993.388-.265 0-.499-.06-.703-.179-.203-.12-.36-.29-.469-.514a1.739 1.739 0 01-.164-.777c0-.459.118-.817.354-1.074.236-.258.568-.386.998-.386.41 0 .735.132.975.396.239.263.359.617.359 1.064zm-2.065 0c0 .653.242.98.726.98.479 0 .718-.327.718-.98 0-.646-.241-.97-.723-.97-.254 0-.437.084-.552.251-.113.167-.169.407-.169.719zM195.799 77c.122 0 .222.008.301.025l-.059.56a1.148 1.148 0 00-.267-.03.78.78 0 00-.588.235c-.149.157-.223.36-.223.611v1.478h-.603v-2.828h.472l.08.498h.031c.094-.168.216-.302.366-.401a.886.886 0 01.49-.148zM199.024 77.05v.33l-.485.09a.867.867 0 01.154.496c0 .292-.101.521-.302.688-.202.167-.48.25-.834.25a1.34 1.34 0 01-.246-.02c-.13.08-.195.174-.195.282 0 .064.029.113.089.145.062.033.174.049.336.049h.496c.313 0 .55.067.713.2.162.132.244.324.244.575 0 .32-.133.568-.398.741-.265.174-.648.261-1.15.261-.386 0-.681-.068-.885-.204a.662.662 0 01-.305-.583c0-.174.055-.32.164-.44a.9.9 0 01.465-.246.46.46 0 01-.2-.163.421.421 0 01-.077-.24.41.41 0 01.089-.27 1.04 1.04 0 01.267-.217.798.798 0 01-.359-.306.914.914 0 01-.136-.502c0-.307.097-.544.29-.713.195-.17.472-.254.831-.254.081 0 .164.007.252.018.089.01.155.022.2.034h.982zm-2.229 3.269c0 .13.058.23.174.3.118.07.283.104.495.104.329 0 .573-.047.734-.14.161-.094.241-.219.241-.374 0-.123-.044-.21-.133-.263-.087-.052-.251-.077-.49-.077h-.457c-.172 0-.31.04-.413.12a.402.402 0 00-.151.33zm.259-2.353c0 .178.045.314.136.41.092.095.224.143.395.143.349 0 .523-.186.523-.558 0-.184-.043-.326-.13-.424-.086-.101-.217-.151-.393-.151-.174 0-.307.05-.398.148-.089.099-.133.243-.133.432zM200.156 79.88h-.603v-2.83h.603v2.83zm-.639-3.579c0-.107.029-.19.087-.248a.351.351 0 01.254-.087c.106 0 .188.03.246.087.06.058.09.14.09.248 0 .103-.03.184-.09.243-.058.058-.14.087-.246.087a.351.351 0 01-.254-.087.334.334 0 01-.087-.243zM202.796 79.88l-.121-.395h-.02c-.137.172-.275.29-.414.353a1.321 1.321 0 01-.533.092c-.279 0-.497-.075-.654-.225-.156-.15-.234-.362-.234-.636 0-.292.109-.512.326-.66.217-.149.548-.23.993-.243l.49-.016V78c0-.181-.043-.316-.128-.405-.084-.09-.215-.135-.393-.135-.145 0-.285.021-.418.064a3.11 3.11 0 00-.385.15l-.195-.429c.154-.08.322-.14.505-.182a2.3 2.3 0 01.519-.064c.361 0 .633.079.816.236.184.157.277.403.277.739v1.905h-.431zm-.898-.41c.219 0 .394-.06.526-.182.133-.122.2-.294.2-.514v-.245l-.365.015c-.283.01-.49.058-.62.143-.129.084-.193.213-.193.387 0 .126.038.224.113.294.075.068.188.102.339.102zM221.902 79.879h-.602v-2.415c0-.288.006-.516.02-.685-.039.04-.088.086-.146.136-.057.049-.248.206-.575.47l-.303-.381 1.104-.864h.502v3.739zM225.81 79.063h-.506v.816h-.587v-.816h-1.714V78.6l1.714-2.47h.587v2.434h.506v.499zm-1.093-.499v-.938c0-.335.008-.608.025-.821h-.02a2.873 2.873 0 01-.226.409l-.931 1.35h1.152zM140.954 79.879h-.751l-1.845-2.98h-.02l.012.167c.024.317.036.607.036.87v1.943h-.556v-3.74h.744l1.839 2.965h.015c-.003-.04-.01-.182-.02-.427-.01-.247-.015-.44-.015-.578v-1.96h.561v3.74zM144.397 78.46c0 .461-.118.822-.356 1.081-.238.26-.569.389-.993.389-.265 0-.5-.06-.703-.18-.204-.118-.36-.29-.47-.513a1.752 1.752 0 01-.164-.778c0-.458.118-.816.354-1.074.236-.257.569-.386.998-.386.411 0 .736.132.975.397.24.262.359.617.359 1.063zm-2.065 0c0 .652.242.979.726.979.479 0 .719-.327.719-.98 0-.646-.242-.969-.724-.969-.253 0-.437.084-.552.25-.112.168-.169.407-.169.72zM146.532 77c.121 0 .221.008.3.025l-.059.56a1.135 1.135 0 00-.267-.03.776.776 0 00-.587.234c-.149.157-.223.36-.223.612v1.478h-.603V77.05h.472l.079.499h.031c.094-.169.216-.303.367-.402a.881.881 0 01.49-.148zM149.752 79.879h-.606v-1.744c0-.217-.041-.378-.123-.484-.082-.107-.21-.16-.385-.16-.232 0-.403.075-.513.227-.108.15-.162.4-.162.752v1.409h-.602V77.05h.472l.084.371h.031a.792.792 0 01.341-.312c.151-.073.316-.11.495-.11.437 0 .726.148.868.445h.041a.855.855 0 01.354-.327c.152-.079.326-.118.523-.118.339 0 .585.085.739.256.156.17.233.43.233.78v1.844h-.602v-1.744c0-.217-.042-.378-.126-.484-.082-.107-.211-.16-.385-.16-.234 0-.406.072-.516.22-.107.144-.161.367-.161.67v1.498zM154.159 79.879l-.12-.394h-.021c-.137.172-.274.29-.413.353a1.323 1.323 0 01-.534.092c-.278 0-.496-.075-.654-.225-.155-.15-.233-.362-.233-.637 0-.291.108-.511.326-.66.217-.148.548-.23.993-.243l.49-.015V78c0-.182-.043-.316-.129-.405-.084-.09-.214-.136-.392-.136a1.36 1.36 0 00-.418.064 3.11 3.11 0 00-.385.151l-.195-.43c.154-.08.322-.14.505-.181.183-.043.356-.064.518-.064.361 0 .633.079.816.235.185.157.277.404.277.74v1.905h-.431zm-.898-.41c.219 0 .395-.06.526-.181.134-.123.2-.294.2-.514v-.246l-.364.016c-.284.01-.491.058-.621.143-.128.084-.192.212-.192.386a.38.38 0 00.113.294c.075.069.188.103.338.103zM156.035 79.879h-.603v-3.98h.603v3.98zM159.321 79.444c.147 0 .294-.023.441-.07v.454a1.161 1.161 0 01-.259.071c-.104.02-.213.03-.326.03-.571 0-.856-.3-.856-.9v-1.523h-.388v-.266l.416-.22.205-.599h.372v.63h.808v.454h-.808v1.514c0 .145.036.253.108.323a.404.404 0 00.287.102zM161.571 79.93c-.441 0-.787-.128-1.036-.384-.248-.257-.372-.61-.372-1.061 0-.462.115-.825.346-1.09.231-.264.548-.396.952-.396.374 0 .67.114.888.34.217.227.325.539.325.936v.325h-1.89c.008.275.082.486.223.634.14.147.338.22.592.22.168 0 .324-.015.467-.046a2.51 2.51 0 00.467-.158v.488a1.86 1.86 0 01-.446.148 2.754 2.754 0 01-.516.044zm-.11-2.476a.61.61 0 00-.462.182c-.115.121-.183.297-.205.53h1.288c-.004-.234-.06-.41-.17-.53a.577.577 0 00-.451-.182zM163.99 78.434l-.951-1.384h.687l.647.99.651-.99h.683l-.955 1.384 1.004 1.445h-.683l-.7-1.059-.698 1.059h-.683l.998-1.445zM167.31 79.444c.147 0 .294-.023.442-.07v.454a1.188 1.188 0 01-.26.071c-.104.02-.213.03-.325.03-.572 0-.857-.3-.857-.9v-1.523h-.388v-.266l.416-.22.205-.599h.372v.63h.808v.454h-.808v1.514c0 .145.036.253.108.323a.404.404 0 00.287.102zM107.811 79.879h-.603v-2.414c0-.288.007-.517.02-.686-.039.041-.088.086-.146.136-.056.05-.248.206-.575.47l-.302-.38 1.103-.865h.503v3.739zM111.585 78.01c0 .649-.106 1.131-.316 1.447-.209.315-.529.473-.96.473-.417 0-.733-.163-.949-.489-.215-.325-.323-.803-.323-1.432 0-.66.104-1.145.313-1.457.21-.314.53-.47.959-.47.42 0 .737.163.952.49.216.327.324.806.324 1.437zm-1.937 0c0 .51.052.873.156 1.091.106.219.275.328.505.328.231 0 .4-.111.506-.333.108-.221.162-.584.162-1.087 0-.5-.054-.863-.162-1.087-.106-.225-.275-.337-.506-.337-.23 0-.399.11-.505.33-.104.22-.156.585-.156 1.094zM114.586 78.01c0 .649-.105 1.131-.315 1.447-.209.315-.529.473-.96.473-.417 0-.734-.163-.949-.489-.216-.325-.323-.803-.323-1.432 0-.66.104-1.145.313-1.457.21-.314.53-.47.959-.47.419 0 .736.163.952.49.215.327.323.806.323 1.437zm-1.937 0c0 .51.052.873.157 1.091.106.219.274.328.505.328.231 0 .4-.111.506-.333.107-.221.161-.584.161-1.087 0-.5-.054-.863-.161-1.087-.106-.225-.275-.337-.506-.337-.231 0-.399.11-.505.33-.105.22-.157.585-.157 1.094zM115.53 77.26c0 .254.025.443.075.568.049.124.131.186.243.186.226 0 .339-.251.339-.754s-.113-.754-.339-.754c-.112 0-.194.062-.243.186-.05.125-.075.314-.075.568zm1.155-.005c0 .392-.071.687-.213.885-.14.196-.348.294-.624.294a.699.699 0 01-.605-.305c-.142-.204-.213-.496-.213-.874 0-.78.273-1.169.818-1.169.269 0 .475.102.619.305.145.2.218.489.218.864zm1.288 1.499c0 .254.025.444.074.57.051.126.134.19.246.19.224 0 .337-.254.337-.76 0-.5-.113-.75-.337-.75-.112 0-.195.062-.246.184-.049.123-.074.311-.074.566zm1.154 0c0 .392-.071.686-.213.882-.142.196-.349.294-.621.294a.7.7 0 01-.605-.302c-.144-.203-.216-.494-.216-.874 0-.78.274-1.17.821-1.17.264 0 .468.101.614.303.147.2.22.49.22.867zm-.762-2.614l-2.08 3.739h-.498l2.081-3.74h.497z" fill="#161616"/><path stroke="#F3F3F3" stroke-width=".5" d="M291.458 74.642v6.734M240.417 74.642v6.734M214.147 74.642v6.734M178.117 74.642v6.734M131.58 74.642v6.734M100.805 74.642v6.734"/><path d="M232.661 79.505l-1.501-1.497h3.003l-1.502 1.497zM206.39 79.505l-1.501-1.497h3.003l-1.502 1.497zM170.361 79.505l-1.501-1.497h3.002l-1.501 1.497zM123.824 79.505l-1.501-1.497h3.002l-1.501 1.497zM64.308 79.658l-2.123.007 2.115-2.123.008 2.116z" fill="#161616"/><path fill-rule="evenodd" clip-rule="evenodd" d="M61.829 78.009c.925-.004 1.723.4 2.184.778l-.476.578a2.798 2.798 0 00-1.705-.608c-.688.003-1.502.305-2.257 1.342h-.937c.117-.594 1.384-2.09 3.19-2.09z" fill="#161616"/><path d="M49.187 79.658l2.123.007-2.116-2.123-.007 2.116z" fill="#161616"/><path fill-rule="evenodd" clip-rule="evenodd" d="M51.666 78.009a3.549 3.549 0 00-2.184.778l.476.578a2.798 2.798 0 011.705-.608c.689.003 1.502.305 2.257 1.342h.937c-.117-.594-1.384-2.09-3.19-2.09z" fill="#161616"/><path d="M257.555 81.217l.027-.237c.213.005.377-.008.492-.038a.158.158 0 00.062-.03.364.364 0 00.086-.148c.025-.066.084-.354.175-.864l.324-1.817c.117-.67.175-1.078.175-1.224 0-.055-.016-.096-.048-.123-.03-.03-.087-.048-.172-.055a13.444 13.444 0 00-.437-.02l.038-.24c.355.013.687.02.994.02.206 0 .626-.007 1.259-.02l-.042.24c-.261 0-.42.008-.478.027a.263.263 0 00-.093.055.283.283 0 00-.061.123c-.042.121-.123.527-.245 1.217-.156.887-.262 1.5-.32 1.838-.077.45-.116.731-.116.843 0 .053.011.094.034.124.025.03.071.052.138.068.066.016.235.024.505.024l-.031.237a43.518 43.518 0 00-1.09-.028c-.112 0-.505.01-1.176.028zM247.961 76.442c.465 0 .843.103 1.134.31.292.2.437.542.437 1.024a.94.94 0 01-.127.485c-.08.14-.185.262-.317.365.216.112.392.264.529.456.14.192.211.436.211.73 0 .44-.155.784-.465 1.032-.305.249-.714.373-1.226.373h-1.965v-4.775h1.789zm-.133.759h-.747v1.186h.676c.254 0 .451-.047.592-.14.145-.099.218-.25.218-.457 0-.224-.066-.379-.197-.463-.132-.084-.312-.126-.542-.126zm.302 1.923h-1.049v1.341h.986c.244 0 .439-.056.585-.168a.561.561 0 00.225-.478c0-.224-.068-.395-.204-.512-.136-.122-.317-.183-.543-.183zM269.24 76.442v2.97c0 .398.096.688.289.871.192.178.441.267.746.267.31 0 .559-.094.747-.281.193-.187.289-.473.289-.857v-2.97h.923v3.04c0 .515-.179.946-.536 1.292-.352.347-.831.52-1.437.52-.596 0-1.07-.173-1.422-.52-.348-.346-.522-.777-.522-1.291v-3.04h.923zM282.721 77.692l-.627 1.664h1.268l-.641-1.664zm.409-1.25l1.859 4.648-.916.127-.429-1.124h-1.817l-.423 1.124h-.916l1.867-4.775h.775z" fill="#161616"/><path fill-rule="evenodd" clip-rule="evenodd" d="M272.346 82.667h-4.226v-.749h4.226v.749zM285.024 82.667h-4.226v-.749h4.226v.749z" fill="#161616"/><path d="M327.555 77.737c0 .463-.171.917-.521 1.266l-.48.478a.236.236 0 01-.341 0 .234.234 0 010-.34l.48-.479a1.32 1.32 0 000-1.85 1.33 1.33 0 00-1.856 0l-.48.48a.236.236 0 01-.341 0 .234.234 0 010-.341l.48-.48a1.8 1.8 0 012.538 0c.35.35.521.804.521 1.266zM325.391 80.544a.236.236 0 01-.073.17l-.48.479c-.7.697-1.839.697-2.539 0-.7-.698-.7-1.834 0-2.531l.48-.479a.237.237 0 01.342 0 .236.236 0 010 .341l-.48.479a1.318 1.318 0 000 1.849 1.329 1.329 0 001.855 0l.48-.479a.237.237 0 01.342 0 .236.236 0 01.073.17z" fill="#161616" stroke="#000" stroke-width=".2"/><path d="M325.529 78.216a.232.232 0 01-.073.17l-1.237 1.233a.237.237 0 01-.342 0 .236.236 0 010-.34l1.237-1.234a.237.237 0 01.342 0 .232.232 0 01.073.17z" fill="#161616" stroke="#000" stroke-width=".2"/><path fill="#161616" d="M299.585 75.951h4.93v1.053h-4.93zM311.559 75.951h4.93v1.053h-4.93zM299.585 78.408h4.93v1.053h-4.93zM311.559 78.408h4.93v1.053h-4.93zM299.585 80.865h4.93v1.053h-4.93zM311.559 80.865h4.93v1.053h-4.93zM297.863 77.355V75.9h-.301v-.3c.204 0 .33-.07.377-.21h.304v1.965h-.38zM297.295 79.812c0-.27.061-.49.183-.66.122-.172.29-.315.504-.43a.857.857 0 00.206-.143.235.235 0 00.076-.177c0-.073-.023-.129-.07-.168a.265.265 0 00-.186-.062.352.352 0 00-.341.222l-.341-.154a.68.68 0 01.265-.312.75.75 0 01.408-.115c.197 0 .354.055.471.165a.544.544 0 01.174.416.562.562 0 01-.109.365c-.074.09-.187.178-.341.264-.137.079-.24.149-.307.21a.49.49 0 00-.141.214h.915v.365h-1.366zM297.945 82.303a.738.738 0 01-.428-.124.734.734 0 01-.267-.337l.343-.137c.083.159.204.239.364.239a.327.327 0 00.214-.068.225.225 0 00.084-.185.248.248 0 00-.076-.188c-.05-.05-.127-.073-.228-.073h-.192v-.363h.192c.071 0 .129-.02.172-.059a.207.207 0 00.065-.16.209.209 0 00-.065-.157c-.041-.041-.101-.062-.178-.062-.124 0-.219.06-.287.18l-.344-.132a.678.678 0 01.637-.407c.18 0 .328.052.442.157a.494.494 0 01.175.387c0 .186-.08.326-.239.422.09.035.163.093.219.174.059.08.088.174.088.28a.565.565 0 01-.189.453c-.126.107-.293.16-.502.16z"/><ellipse cx="309.975" cy="76.477" rx=".528" ry=".527" fill="#161616"/><ellipse cx="309.975" cy="78.935" rx=".528" ry=".527" fill="#161616"/><ellipse cx="309.975" cy="81.392" rx=".528" ry=".527" fill="#161616"/><path d="M65.558 59.226c0 .596-.195 1.053-.586 1.37-.39.318-.946.477-1.668.477h-.594v2.137h-.933v-5.711h1.644c.714 0 1.248.146 1.602.438.357.291.535.72.535 1.289zm-2.848 1.062h.496c.48 0 .831-.083 1.055-.25.224-.167.336-.427.336-.781 0-.328-.1-.573-.3-.734-.201-.162-.514-.243-.938-.243h-.649v2.008zm6.594 2.922l-.183-.602h-.032c-.208.263-.418.443-.629.54-.21.093-.481.14-.812.14-.424 0-.757-.114-.996-.344-.237-.229-.356-.553-.356-.972 0-.446.166-.782.496-1.008.331-.227.835-.35 1.512-.371l.746-.024v-.23c0-.276-.065-.482-.195-.617-.128-.138-.327-.207-.598-.207-.221 0-.433.032-.636.097a4.796 4.796 0 00-.586.23l-.297-.655c.234-.123.49-.215.77-.278.278-.065.541-.097.788-.097.55 0 .964.12 1.243.359.28.24.421.616.421 1.129v2.91h-.656zm-1.367-.625c.333 0 .6-.093.8-.277.204-.188.306-.45.306-.785v-.376l-.555.024c-.433.016-.748.088-.945.219-.196.127-.294.324-.294.59 0 .192.058.342.172.449.115.104.287.156.516.156zm5.496.703c-.547 0-.971-.196-1.273-.59h-.055c.036.365.055.586.055.664v1.77h-.918V58.89h.742c.02.08.064.273.129.578h.047c.286-.438.716-.657 1.289-.657.539 0 .958.196 1.258.587.302.39.453.938.453 1.644s-.154 1.256-.461 1.652c-.305.396-.727.594-1.266.594zm-.223-3.726c-.364 0-.631.106-.8.32-.167.213-.25.555-.25 1.023v.137c0 .526.083.907.25 1.145.166.234.439.351.816.351.318 0 .563-.13.734-.39.172-.261.258-.632.258-1.114 0-.484-.086-.85-.258-1.097-.169-.25-.419-.375-.75-.375zm4.903 3.726c-.672 0-1.198-.195-1.578-.586-.378-.393-.567-.933-.567-1.62 0-.707.176-1.261.528-1.665.351-.404.834-.605 1.449-.605.57 0 1.02.173 1.351.52.331.345.496.822.496 1.429v.496h-2.878c.013.42.126.742.34.969.213.224.514.336.902.336.255 0 .492-.024.71-.07.222-.05.459-.131.712-.243v.746c-.224.107-.45.182-.68.227-.23.044-.49.066-.785.066zm-.168-3.781c-.292 0-.526.092-.703.277-.175.185-.279.455-.313.809h1.961c-.005-.357-.091-.627-.258-.809-.166-.185-.395-.277-.687-.277zm5.082-.695c.185 0 .337.013.457.039l-.09.855a1.732 1.732 0 00-.406-.047c-.367 0-.666.12-.895.36-.226.24-.34.55-.34.933v2.258h-.918v-4.32h.72l.12.761h.047c.143-.257.33-.462.559-.613a1.34 1.34 0 01.746-.226zm4.258 4.398h-.918v-4.32h.918v4.32zm-.973-5.465c0-.164.044-.29.133-.379.091-.088.22-.133.387-.133.161 0 .286.045.375.133.09.089.136.215.136.38 0 .155-.045.28-.136.37-.089.089-.214.133-.375.133-.167 0-.296-.044-.387-.133a.51.51 0 01-.133-.37zm6.09 5.465h-.922v-2.656c0-.334-.068-.582-.203-.746-.133-.164-.345-.246-.637-.246-.388 0-.672.114-.851.343-.18.23-.27.614-.27 1.153v2.152h-.918v-4.32h.719l.129.566h.047c.13-.206.315-.364.554-.477.24-.111.505-.167.797-.167 1.037 0 1.555.527 1.555 1.582v2.816zm3.453 0v-5.711h.934v4.91h2.418v.801h-3.352zm5.156 0h-.918v-4.32h.918v4.32zm-.972-5.465c0-.164.044-.29.132-.379.092-.088.22-.133.387-.133.162 0 .287.045.375.133.091.089.137.215.137.38 0 .155-.046.28-.137.37-.088.089-.213.133-.375.133-.167 0-.295-.044-.387-.133a.512.512 0 01-.132-.37zm3.898 4.8c.224 0 .448-.034.672-.105v.692c-.102.044-.233.08-.395.11a2.553 2.553 0 01-.496.046c-.87 0-1.304-.458-1.304-1.375v-2.328h-.59v-.406l.633-.336.312-.914h.566v.96h1.231v.696h-1.231v2.313c0 .22.055.385.165.492a.613.613 0 00.437.156zm3.426.743c-.672 0-1.198-.195-1.578-.586-.378-.393-.567-.933-.567-1.62 0-.707.176-1.261.528-1.665.351-.404.834-.605 1.449-.605.57 0 1.021.173 1.351.52.331.345.496.822.496 1.429v.496h-2.878c.013.42.126.742.339.969.214.224.515.336.903.336.255 0 .492-.024.711-.07.221-.05.458-.131.711-.243v.746a2.824 2.824 0 01-.68.227 4.164 4.164 0 01-.785.066zm-.168-3.781c-.292 0-.526.092-.703.277-.175.185-.279.455-.313.809h1.961c-.005-.357-.091-.627-.258-.809-.166-.185-.396-.277-.687-.277zm5.082-.695c.185 0 .337.013.457.039l-.09.855a1.733 1.733 0 00-.406-.047c-.367 0-.666.12-.895.36-.226.24-.34.55-.34.933v2.258h-.918v-4.32h.719l.121.761h.047c.143-.257.33-.462.559-.613a1.34 1.34 0 01.746-.226zm3.965 4.398l-.184-.602h-.031c-.208.263-.418.443-.629.54-.211.093-.482.14-.813.14-.424 0-.756-.114-.996-.344-.237-.229-.355-.553-.355-.972 0-.446.165-.782.496-1.008.331-.227.835-.35 1.512-.371l.746-.024v-.23c0-.276-.065-.482-.196-.617-.127-.138-.326-.207-.597-.207-.222 0-.434.032-.637.097a4.836 4.836 0 00-.586.23l-.297-.655c.235-.123.491-.215.77-.278.278-.065.541-.097.789-.097.549 0 .963.12 1.242.359.281.24.422.616.422 1.129v2.91h-.656zm-1.367-.625c.333 0 .6-.093.8-.277.203-.188.305-.45.305-.785v-.376l-.555.024c-.432.016-.747.088-.945.219-.195.127-.293.324-.293.59 0 .192.057.342.172.449.114.104.286.156.516.156zm4.914-.04c.224 0 .447-.034.671-.105v.692c-.101.044-.233.08-.394.11a2.56 2.56 0 01-.496.046c-.87 0-1.305-.458-1.305-1.375v-2.328h-.59v-.406l.633-.336.313-.914h.566v.96h1.23v.696h-1.23v2.313c0 .22.055.385.164.492a.617.617 0 00.438.156zm4.586.665l-.129-.566h-.047c-.128.2-.31.358-.547.472a1.813 1.813 0 01-.805.172c-.523 0-.914-.13-1.172-.39-.258-.261-.386-.656-.386-1.184V58.89h.925v2.664c0 .33.068.58.203.746.136.164.348.246.637.246.386 0 .668-.115.848-.344.182-.232.273-.618.273-1.16V58.89h.922v4.32h-.722zm4.222-4.398c.185 0 .337.013.457.039l-.09.855a1.727 1.727 0 00-.406-.047c-.367 0-.665.12-.894.36-.227.24-.34.55-.34.933v2.258h-.918v-4.32h.719l.121.761h.046c.144-.257.33-.462.559-.613.232-.151.481-.226.746-.226zm3.149 4.476c-.672 0-1.198-.195-1.579-.586-.377-.393-.566-.933-.566-1.62 0-.707.176-1.261.527-1.665.352-.404.835-.605 1.45-.605.57 0 1.02.173 1.351.52.331.345.496.822.496 1.429v.496h-2.879c.013.42.127.742.34.969.214.224.515.336.903.336.255 0 .492-.024.711-.07.221-.05.458-.131.71-.243v.746c-.224.107-.45.182-.679.227a4.164 4.164 0 01-.785.066zm-.168-3.781c-.292 0-.526.092-.703.277-.175.185-.279.455-.313.809h1.961c-.005-.357-.091-.627-.258-.809-.167-.185-.396-.277-.687-.277zM73.633 76.213H70.18v1.147h3.453v-1.147zM73.92 77.647h-4.028a.862.862 0 00-.863.86v1.721h1.151v1.147h3.453v-1.147h1.15v-1.72a.862.862 0 00-.863-.861zm-.863 3.155h-2.302v-1.434h2.302v1.434zm.863-2.008a.286.286 0 110-.573.286.286 0 110 .573z" fill="#161616"/><path fill-rule="evenodd" clip-rule="evenodd" d="M93.424 77.635h-.75v-.749h1.501v2.619h-2.627v1.87h-.75v-2.618h2.626v-1.123z" fill="#161616"/><path fill="#161616" d="M89.296 76.138h3.753v2.245h-3.753z"/><path d="M42.007 71.649l291.986-.187M33 85.865h310" stroke="#F3F3F3" stroke-width=".5"/><rect x="297.213" y="53.691" width="31.525" height="12.72" rx="2" fill="#FFBC0B"/><path d="M307.006 60.761c0 .38-.138.679-.413.895-.276.216-.656.324-1.141.324s-.881-.075-1.19-.225v-.66c.195.091.402.163.621.216.221.053.426.079.616.079.278 0 .482-.053.613-.158a.512.512 0 00.199-.424c0-.16-.06-.295-.182-.406-.121-.111-.371-.243-.75-.395-.391-.157-.667-.338-.827-.54a1.143 1.143 0 01-.24-.731c0-.356.127-.637.381-.842.254-.204.595-.307 1.023-.307.411 0 .819.09 1.226.27l-.223.57c-.381-.16-.722-.24-1.021-.24-.226 0-.398.05-.516.149a.48.48 0 00-.176.388c0 .111.024.207.071.287a.728.728 0 00.231.222c.108.07.301.163.581.278.315.13.545.252.692.365.147.113.254.24.322.383.069.142.103.31.103.502zM310.615 61.922h-.691v-1.988c0-.249-.051-.435-.153-.558-.1-.123-.259-.184-.478-.184-.289 0-.502.087-.639.26-.135.172-.202.46-.202.865v1.605h-.689v-4.548h.689v1.154c0 .186-.012.383-.036.594h.044a.96.96 0 01.39-.363c.168-.085.364-.128.587-.128.786 0 1.178.394 1.178 1.184v2.107zM313.603 61.922l-.138-.45h-.023c-.156.197-.314.331-.472.403-.158.07-.362.105-.61.105-.319 0-.568-.085-.748-.257-.178-.171-.266-.414-.266-.728 0-.333.124-.584.372-.754.248-.17.626-.262 1.135-.277l.56-.018v-.172c0-.207-.049-.36-.147-.462-.096-.103-.245-.155-.449-.155-.166 0-.325.024-.477.073-.153.049-.3.106-.44.172l-.223-.49c.176-.092.368-.161.577-.208.21-.049.407-.073.593-.073.412 0 .723.09.932.269.211.179.317.46.317.844v2.178h-.493zm-1.026-.468c.25 0 .451-.069.601-.207.153-.14.229-.336.229-.588v-.28l-.417.017c-.324.012-.561.066-.709.164-.147.095-.22.242-.22.441 0 .144.043.256.129.336.086.078.215.117.387.117zM316.702 58.63c.139 0 .254.01.343.03l-.067.64a1.305 1.305 0 00-.305-.035.887.887 0 00-.671.269c-.17.18-.255.412-.255.699v1.689h-.689v-3.233h.539l.091.57h.035c.108-.193.247-.346.419-.459a1.01 1.01 0 01.56-.17zM319.066 61.98c-.505 0-.9-.146-1.185-.438-.283-.294-.425-.699-.425-1.213 0-.528.132-.943.396-1.245.264-.302.626-.453 1.088-.453.428 0 .766.13 1.014.389s.372.615.372 1.07v.37h-2.16c.009.314.094.556.255.725.16.168.386.252.677.252.191 0 .369-.018.534-.053a2.87 2.87 0 00.533-.181v.558c-.168.08-.338.136-.51.17-.172.033-.368.05-.589.05zm-.126-2.829a.699.699 0 00-.528.208c-.131.138-.209.34-.235.605h1.472c-.004-.267-.068-.469-.193-.605-.125-.139-.298-.208-.516-.208z" fill="#fff"/><defs><clipPath id="clip0"><path fill="#fff" transform="translate(45.76 53.691)" d="M0 0h12.01v11.972H0z"/></clipPath><filter id="filter0_d" x="13" y="29.461" width="350" height="233.791" filterUnits="userSpaceOnUse" color-interpolation-filters="sRGB"><feFlood flood-opacity="0" result="BackgroundImageFix"/><feColorMatrix in="SourceAlpha" values="0 0 0 0 0 0 0 0 0 0 0 0 0 0 0 0 0 0 127 0"/><feOffset dy="4"/><feGaussianBlur stdDeviation="10"/><feColorMatrix values="0 0 0 0 0 0 0 0 0 0 0 0 0 0 0 0 0 0 0.1 0"/><feBlend in2="BackgroundImageFix" result="effect1_dropShadow"/><feBlend in="SourceGraphic" in2="effect1_dropShadow" result="shape"/></filter></defs></svg>