<svg width="238" height="179" fill="none" xmlns="http://www.w3.org/2000/svg"><path fill-rule="evenodd" clip-rule="evenodd" d="M83.014 151.605c-1.482.08-2.976.121-4.48.121C35.161 151.726 0 117.761 0 75.863 0 33.965 35.161 0 78.534 0c25.542 0 48.235 11.778 62.578 30.018 9.2-5.492 19.956-8.648 31.449-8.648C206.493 21.37 234 48.877 234 82.808c0 33.932-27.507 61.439-61.439 61.439a61.407 61.407 0 0 1-18.911-2.966c-1.984 18.487-17.636 32.883-36.65 32.883-15.287 0-28.4-9.304-33.986-22.559Z" fill="#E9E9E9"/><path fill="#fff" d="M49 133h46v44H49z"/><path fill-rule="evenodd" clip-rule="evenodd" d="M181 125.728a1 1 0 1 1 1-1c0 .555-.448 1-1 1m0-9.526a1 1 0 1 1 0-2 1 1 0 0 1 0 2m0-9.521a1 1 0 0 1-1-1.004 1 1 0 1 1 2 0c0 .555-.448 1.004-1 1.004m0-9.529a1 1 0 1 1-.001-2.001 1 1 0 0 1 .001 2.001m0-9.526a1 1 0 1 1 0-2 1 1 0 0 1 0 2m0-9.525a.998.998 0 1 1 0-1.997.998.998 0 1 1 0 1.997m0-9.525a1 1 0 1 1-.001-2.001 1 1 0 0 1 .001 2.001m0-9.526a1 1 0 1 1 0-2 1 1 0 0 1 0 2m0-9.525a1 1 0 1 1 0-2 1 1 0 0 1 0 2M181 40a1 1 0 1 1 0-2 1 1 0 0 1 0 2M192.008 125.58c-.552 0-1-.412-1-.926 0-.511.448-.926 1-.926.551 0 1 .415 1 .926 0 .514-.449.926-1 .926m0-9.525c-.552 0-1-.413-1-.926 0-.511.448-.927 1-.927.551 0 1 .416 1 .927 0 .513-.449.926-1 .926m0-9.522c-.552 0-1-.416-1-.93 0-.51.448-.926 1-.926.551 0 1 .416 1 .926 0 .514-.449.93-1 .93m0-9.529c-.552 0-1-.412-1-.926 0-.51.448-.926 1-.926.551 0 1 .416 1 .926 0 .514-.449.926-1 .926m0-9.526c-.552 0-1-.412-1-.925 0-.511.448-.927 1-.927.551 0 1 .416 1 .927 0 .513-.449.925-1 .925m0-9.525c-.552 0-1-.412-1-.926 0-.51.448-.923 1-.923.551 0 1 .413 1 .923 0 .514-.449.926-1 .926m0-9.525c-.552 0-1-.412-1-.926 0-.51.448-.926 1-.926.551 0 1 .416 1 .926 0 .514-.449.926-1 .926m0-9.525c-.552 0-1-.413-1-.926 0-.511.448-.927 1-.927.551 0 1 .416 1 .927 0 .513-.449.926-1 .926m0-9.526c-.552 0-1-.412-1-.925 0-.511.448-.927 1-.927.551 0 1 .416 1 .927 0 .513-.449.925-1 .925m0-9.525c-.552 0-1-.412-1-.923 0-.513.448-.929 1-.929.551 0 1 .416 1 .929 0 .51-.449.923-1 .923M203.019 125.58c-.555 0-1.001-.412-1.001-.926 0-.511.446-.926 1.001-.926.552 0 .999.415.999.926 0 .514-.447.926-.999.926m0-9.525c-.555 0-1.001-.413-1.001-.926 0-.511.446-.927 1.001-.927.552 0 .999.416.999.927 0 .513-.447.926-.999.926m0-9.522c-.555 0-1.001-.416-1.001-.93 0-.51.446-.926 1.001-.926.552 0 .999.416.999.926 0 .514-.447.93-.999.93m0-9.529c-.555 0-1.001-.412-1.001-.926 0-.51.446-.926 1.001-.926.552 0 .999.416.999.926 0 .514-.447.926-.999.926m0-9.526c-.555 0-1.001-.412-1.001-.925 0-.511.446-.927 1.001-.927.552 0 .999.416.999.927 0 .513-.447.925-.999.925m0-9.525c-.555 0-1.001-.412-1.001-.926 0-.51.446-.923 1.001-.923.552 0 .999.413.999.923 0 .514-.447.926-.999.926m0-9.525c-.555 0-1.001-.412-1.001-.926 0-.51.446-.926 1.001-.926.552 0 .999.416.999.926 0 .514-.447.926-.999.926m0-9.525c-.555 0-1.001-.413-1.001-.926 0-.511.446-.927 1.001-.927.552 0 .999.416.999.927 0 .513-.447.926-.999.926m0-9.526c-.555 0-1.001-.412-1.001-.925 0-.511.446-.927 1.001-.927.552 0 .999.416.999.927 0 .513-.447.925-.999.925m0-9.525c-.555 0-1.001-.412-1.001-.923 0-.513.446-.929 1.001-.929.552 0 .999.416.999.929 0 .51-.447.923-.999.923M214 125.728a1 1 0 1 1 1-1c0 .555-.448 1-1 1m0-9.526a1 1 0 1 1 0-2 1 1 0 0 1 0 2m0-9.521a1 1 0 0 1-1-1.004 1 1 0 1 1 2 0c0 .555-.448 1.004-1 1.004m0-9.529a1 1 0 1 1-.001-2.001 1 1 0 0 1 .001 2.001m0-9.526a1 1 0 1 1 0-2 1 1 0 0 1 0 2m0-9.525a.998.998 0 1 1 0-1.997.998.998 0 1 1 0 1.997m0-9.525a1 1 0 1 1-.001-2.001 1 1 0 0 1 .001 2.001m0-9.526a1 1 0 1 1 0-2 1 1 0 0 1 0 2m0-9.525a1 1 0 1 1 0-2 1 1 0 0 1 0 2M214 40a1 1 0 1 1 0-2 1 1 0 0 1 0 2M225.008 125.58c-.552 0-1-.412-1-.926 0-.511.448-.926 1-.926.551 0 1 .415 1 .926 0 .514-.449.926-1 .926m0-9.525c-.552 0-1-.413-1-.926 0-.511.448-.927 1-.927.551 0 1 .416 1 .927 0 .513-.449.926-1 .926m0-9.522c-.552 0-1-.416-1-.93 0-.51.448-.926 1-.926.551 0 1 .416 1 .926 0 .514-.449.93-1 .93m0-9.529c-.552 0-1-.412-1-.926 0-.51.448-.926 1-.926.551 0 1 .416 1 .926 0 .514-.449.926-1 .926m0-9.526c-.552 0-1-.412-1-.925 0-.511.448-.927 1-.927.551 0 1 .416 1 .927 0 .513-.449.925-1 .925m0-9.525c-.552 0-1-.412-1-.926 0-.51.448-.923 1-.923.551 0 1 .413 1 .923 0 .514-.449.926-1 .926m0-9.525c-.552 0-1-.412-1-.926 0-.51.448-.926 1-.926.551 0 1 .416 1 .926 0 .514-.449.926-1 .926m0-9.525c-.552 0-1-.413-1-.926 0-.511.448-.927 1-.927.551 0 1 .416 1 .927 0 .513-.449.926-1 .926m0-9.526c-.552 0-1-.412-1-.925 0-.511.448-.927 1-.927.551 0 1 .416 1 .927 0 .513-.449.925-1 .925m0-9.525c-.552 0-1-.412-1-.923 0-.513.448-.929 1-.929.551 0 1 .416 1 .929 0 .51-.449.923-1 .923M236.019 125.58c-.555 0-1.001-.412-1.001-.926 0-.511.446-.926 1.001-.926.552 0 .999.415.999.926 0 .514-.447.926-.999.926m0-9.525c-.555 0-1.001-.413-1.001-.926 0-.511.446-.927 1.001-.927.552 0 .999.416.999.927 0 .513-.447.926-.999.926m0-9.522c-.555 0-1.001-.416-1.001-.93 0-.51.446-.926 1.001-.926.552 0 .999.416.999.926 0 .514-.447.93-.999.93m0-9.529c-.555 0-1.001-.412-1.001-.926 0-.51.446-.926 1.001-.926.552 0 .999.416.999.926 0 .514-.447.926-.999.926m0-9.526c-.555 0-1.001-.412-1.001-.925 0-.511.446-.927 1.001-.927.552 0 .999.416.999.927 0 .513-.447.925-.999.925m0-9.525c-.555 0-1.001-.412-1.001-.926 0-.51.446-.923 1.001-.923.552 0 .999.413.999.923 0 .514-.447.926-.999.926m0-9.525c-.555 0-1.001-.412-1.001-.926 0-.51.446-.926 1.001-.926.552 0 .999.416.999.926 0 .514-.447.926-.999.926m0-9.525c-.555 0-1.001-.413-1.001-.926 0-.511.446-.927 1.001-.927.552 0 .999.416.999.927 0 .513-.447.926-.999.926m0-9.526c-.555 0-1.001-.412-1.001-.925 0-.511.446-.927 1.001-.927.552 0 .999.416.999.927 0 .513-.447.925-.999.925m0-9.525c-.555 0-1.001-.412-1.001-.923 0-.513.446-.929 1.001-.929.552 0 .999.416.999.929 0 .51-.447.923-.999.923" fill="#121212"/><mask id="a" fill="#fff"><rect x="135" y="56" width="84.411" height="99.37" rx="1"/></mask><rect x="135" y="56" width="84.411" height="99.37" rx="1" fill="#fff" stroke="#161616" stroke-width="2.8" mask="url(#a)"/><path fill-rule="evenodd" clip-rule="evenodd" d="M192.602 102.192h-33.123v-3h33.123v3Z" fill="#000"/><path fill="#000" d="M151 99h3v3h-3z"/><path fill-rule="evenodd" clip-rule="evenodd" d="M203.821 113.309h-44.342v-3h44.342v3Z" fill="#000"/><path fill="#000" d="M151 110h3v3h-3z"/><path fill-rule="evenodd" clip-rule="evenodd" d="M203.821 89.801h-44.342v-3h44.342v3Z" fill="#000"/><path fill="#000" d="M151 87h3v3h-3z"/><circle cx="178.179" cy="150.466" r="15.862" fill="#fff" stroke="#000" stroke-width="1.4"/><path d="M177.462 154.885a1.32 1.32 0 0 1-1.872 0l-2.9-2.918a1.338 1.338 0 0 1 0-1.882 1.318 1.318 0 0 1 1.872 0l1.728 1.738c.13.131.342.131.473 0l4.678-4.707a1.319 1.319 0 0 1 1.871 0 1.334 1.334 0 0 1 0 1.883l-5.85 5.886Z" fill="#161616" stroke="#fff" stroke-width=".4"/><path d="M39.394 36.239a43.12 43.12 0 0 1 18.211-17.18 42.562 42.562 0 0 1 8.731-3.203l.005-.002c3.249-.825 6.63-1.239 10.147-1.263h.21c6.407 0 12.477 1.395 17.922 3.926l.004.001a42.814 42.814 0 0 1 19.164 17.383l.004.006c3.173 5.34 5.16 11.429 5.705 17.962l.181 3.333v69.707l-85.784-18.574.026-54.484c.546-6.373 2.457-12.353 5.474-17.612Z" fill="#161616" stroke="#161616" stroke-width="1.4"/><path d="M48 77.706a9.226 9.226 0 1 1-18.452 0 9.226 9.226 0 0 1 18.452 0ZM122.053 77.706a9.226 9.226 0 0 1-9.227 9.226 9.226 9.226 0 0 1 0-18.452 9.226 9.226 0 0 1 9.227 9.226ZM58.836 96.91h-.7V132c0 9.847 7.927 17.84 17.714 17.84 9.788 0 17.715-7.993 17.715-17.84V96.91H58.835Z" fill="#fff" stroke="#000" stroke-width="1.4"/><path d="M76.284 122.385c-19.797 0-35.844-16.049-35.844-35.844V61.948c0-19.797 16.05-35.844 35.844-35.844 19.797 0 35.844 16.05 35.844 35.844v24.593c0 19.797-16.046 35.844-35.844 35.844Z" fill="#fff" stroke="#000" stroke-width="1.4"/><path d="m78.44 91.387-3.72-.317a3.885 3.885 0 0 1-2.947-1.753 3.865 3.865 0 0 1-.432-3.378c1-2.979 2.195-7.38 2.233-11.496h2.058c-.037 4.382-1.288 9.012-2.343 12.152a1.838 1.838 0 0 0 .201 1.594c.315.48.828.782 1.399.832l3.721.317-.17 2.049Z" fill="#161616" stroke="#fff" stroke-width=".4"/><path d="M58.769 77.73a3.622 3.622 0 1 0 0-7.244 3.622 3.622 0 0 0 0 7.245ZM93.667 77.73a3.622 3.622 0 1 0 0-7.245 3.622 3.622 0 0 0 0 7.245Z" fill="#161616"/><path d="M79.02 107.749c-1.073 0-1.875-.056-2.244-.086l.21-2.047c.78.059 3.709.219 6.815-.353 3.514-.648 7.35-2.254 8.446-6.113l1.995.508c-.98 3.541-3.626 5.558-6.605 6.696-3.036 1.159-6.396 1.395-8.618 1.395ZM52.653 65.176h12.234v2.058H52.653v-2.058Z" fill="#161616" stroke="#fff" stroke-width=".4"/><path d="M18.727 170.13c0-19.591 17.17-35.573 38.494-35.63v43.679H18.727v-8.049ZM94.483 178.179V134.5c21.323.057 38.494 16.039 38.494 35.63v8.049H94.483Z" fill="#fff" stroke="#000" stroke-width="1.4"/><path d="m94.618 18.519.004.002a42.812 42.812 0 0 1 19.164 17.382l.003.006c3.174 5.34 5.161 11.43 5.706 17.963l.183 3.33v3.022c-5.676 3.354-12.41 5.288-19.592 5.288-20.471 0-37-15.635-37-34.82 0-5.338 1.284-10.38 3.56-14.912 3.154-.774 6.433-1.163 9.84-1.187h.209c6.407 0 12.477 1.396 17.923 3.926Z" fill="#161616" stroke="#161616" stroke-width="1.4"/><path d="M112.14 110.987h-2.078v13.784h2.078v-13.784Z" fill="#161616"/><path stroke="#000" stroke-width="1.4" d="M54.945 178.191h39.863"/></svg>