<svg width="229" height="182" fill="none" xmlns="http://www.w3.org/2000/svg"><path fill-rule="evenodd" clip-rule="evenodd" d="M97.424 31.066a76.916 76.916 0 0 0-14.412-2.302C42.21 26.153 7.09 55.988 4.568 95.402c-2.522 39.414 28.51 73.483 69.312 76.094 20.155 1.29 38.925-5.338 53.063-17.127 8.764 5.943 19.182 9.696 30.514 10.421 33.862 2.167 63.069-23.527 65.236-57.389 1.698-26.528-13.704-50.199-36.736-60.25-4.191-20.962-22.021-37.343-44.368-38.773-18.392-1.177-35.04 8.08-44.164 22.688Z" fill="#E9E9E9"/><path fill-rule="evenodd" clip-rule="evenodd" d="M87.132 120.016a1 1 0 1 0 .002-2.001 1 1 0 0 0-.002 2.001m0-9.526a1 1 0 1 0 0-2 1 1 0 0 0 0 2m0-9.522a1 1 0 0 0 1-1.003 1 1 0 0 0-2 0c0 .555.449 1.003 1 1.003m0-9.528a1 1 0 1 0 .001-2 1 1 0 0 0 0 2m0-9.526a1 1 0 1 0 0-2 1 1 0 0 0 0 2m0-9.526a.998.998 0 1 0 0-1.996.998.998 0 1 0 0 1.996m0-9.524a1 1 0 1 0 .001-2 1 1 0 0 0-.002 2m0-9.526a1 1 0 1 0 0-2 1 1 0 0 0 0 2m0-9.525a1 1 0 1 0 0-2 1 1 0 0 0 0 2m0-9.525a1 1 0 1 0 0-1.999 1 1 0 0 0 0 1.999M76.125 119.868c.551 0 1-.413 1-.926 0-.511-.449-.926-1-.926-.552 0-1 .415-1 .926 0 .513.448.926 1 .926m0-9.526c.551 0 1-.412 1-.926 0-.51-.449-.926-1-.926-.552 0-1 .416-1 .926 0 .514.448.926 1 .926m0-9.522c.551 0 1-.415 1-.93 0-.51-.449-.925-1-.925-.552 0-1 .416-1 .926 0 .514.448.929 1 .929m0-9.528c.551 0 1-.413 1-.926 0-.51-.449-.926-1-.926-.552 0-1 .416-1 .926 0 .513.448.926 1 .926m0-9.526c.551 0 1-.413 1-.926 0-.51-.449-.926-1-.926-.552 0-1 .416-1 .926 0 .513.448.926 1 .926m0-9.525c.551 0 1-.413 1-.927 0-.51-.449-.922-1-.922-.552 0-1 .412-1 .922 0 .514.448.927 1 .927m0-9.525c.551 0 1-.413 1-.927 0-.51-.449-.925-1-.925-.552 0-1 .415-1 .925 0 .514.448.927 1 .927m0-9.526c.551 0 1-.413 1-.926 0-.51-.449-.926-1-.926-.552 0-1 .416-1 .926 0 .513.448.926 1 .926m0-9.525c.551 0 1-.413 1-.926 0-.51-.449-.926-1-.926-.552 0-1 .415-1 .926 0 .513.448.926 1 .926m0-9.525c.551 0 1-.413 1-.924 0-.513-.449-.928-1-.928-.551 0-1 .415-1 .928 0 .511.449.924 1 .924M65.114 119.868c.555 0 1.001-.413 1.001-.926 0-.511-.446-.926-1.001-.926-.553 0-.999.415-.999.926 0 .513.447.926.999.926m0-9.526c.555 0 1.001-.412 1.001-.926 0-.51-.446-.926-1.001-.926-.553 0-.999.416-.999.926 0 .514.447.926.999.926m0-9.522c.555 0 1.001-.415 1.001-.93 0-.51-.446-.925-1.001-.925-.553 0-.999.416-.999.926 0 .514.447.929.999.929m0-9.528c.555 0 1.001-.413 1.001-.926 0-.51-.446-.926-1.001-.926-.553 0-.999.416-.999.926 0 .513.447.926.999.926m0-9.526c.555 0 1.001-.413 1.001-.926 0-.51-.446-.926-1.001-.926-.553 0-.999.416-.999.926 0 .513.447.926.999.926m0-9.525c.555 0 1.001-.413 1.001-.927 0-.51-.446-.922-1.001-.922-.553 0-.999.412-.999.922 0 .514.447.927.999.927m0-9.525c.555 0 1.001-.413 1.001-.927 0-.51-.446-.925-1.001-.925-.553 0-.999.415-.999.925 0 .514.447.927.999.927m0-9.526c.555 0 1.001-.413 1.001-.926 0-.51-.446-.926-1.001-.926-.553 0-.999.416-.999.926 0 .513.447.926.999.926m0-9.525c.555 0 1.001-.413 1.001-.926 0-.51-.446-.926-1.001-.926-.553 0-.999.415-.999.926 0 .513.447.926.999.926m0-9.525c.555 0 1.001-.413 1.001-.924 0-.513-.446-.928-1.001-.928-.553 0-.999.415-.999.928 0 .511.447.924.999.924M54.132 120.016a1 1 0 1 0 .002-2.001 1 1 0 0 0-.002 2.001m0-9.526a1 1 0 1 0 0-2 1 1 0 0 0 0 2m0-9.522a1 1 0 0 0 1-1.003 1 1 0 0 0-2 0c0 .555.449 1.003 1 1.003m0-9.528a1 1 0 1 0 .001-2 1 1 0 0 0 0 2m0-9.526a1 1 0 1 0 0-2 1 1 0 0 0 0 2m0-9.526a.998.998 0 1 0 0-1.996.998.998 0 1 0 0 1.996m0-9.524a1 1 0 1 0 .001-2 1 1 0 0 0-.002 2m0-9.526a1 1 0 1 0 0-2 1 1 0 0 0 0 2m0-9.525a1 1 0 1 0 0-2 1 1 0 0 0 0 2m0-9.525a1 1 0 1 0 0-1.999 1 1 0 0 0 0 1.999M43.125 119.868c.551 0 1-.413 1-.926 0-.511-.449-.926-1-.926-.551 0-1 .415-1 .926 0 .513.449.926 1 .926m0-9.526c.551 0 1-.412 1-.926 0-.51-.449-.926-1-.926-.551 0-1 .416-1 .926 0 .514.449.926 1 .926m0-9.522c.551 0 1-.415 1-.93 0-.51-.449-.925-1-.925-.551 0-1 .416-1 .926 0 .514.449.929 1 .929m0-9.528c.551 0 1-.413 1-.926 0-.51-.449-.926-1-.926-.551 0-1 .416-1 .926 0 .513.449.926 1 .926m0-9.526c.551 0 1-.413 1-.926 0-.51-.449-.926-1-.926-.551 0-1 .416-1 .926 0 .513.449.926 1 .926m0-9.525c.551 0 1-.413 1-.927 0-.51-.449-.922-1-.922-.551 0-1 .412-1 .922 0 .514.449.927 1 .927m0-9.525c.551 0 1-.413 1-.927 0-.51-.449-.925-1-.925-.551 0-1 .415-1 .925 0 .514.449.927 1 .927m0-9.526c.551 0 1-.413 1-.926 0-.51-.449-.926-1-.926-.551 0-1 .416-1 .926 0 .513.449.926 1 .926m0-9.525c.551 0 1-.413 1-.926 0-.51-.449-.926-1-.926-.551 0-1 .415-1 .926 0 .513.449.926 1 .926m0-9.525c.551 0 1-.413 1-.924 0-.513-.449-.928-1-.928-.551 0-1 .415-1 .928 0 .511.449.924 1 .924M32.114 119.868c.555 0 1.001-.413 1.001-.926 0-.511-.446-.926-1.001-.926-.552 0-.999.415-.999.926 0 .513.447.926.999.926m0-9.526c.555 0 1.001-.412 1.001-.926 0-.51-.446-.926-1.001-.926-.552 0-.999.416-.999.926 0 .514.447.926.999.926m0-9.522c.555 0 1.001-.415 1.001-.93 0-.51-.446-.925-1.001-.925-.552 0-.999.416-.999.926 0 .514.447.929.999.929m0-9.528c.555 0 1.001-.413 1.001-.926 0-.51-.446-.926-1.001-.926-.552 0-.999.416-.999.926 0 .513.447.926.999.926m0-9.526c.555 0 1.001-.413 1.001-.926 0-.51-.446-.926-1.001-.926-.552 0-.999.416-.999.926 0 .513.447.926.999.926m0-9.525c.555 0 1.001-.413 1.001-.927 0-.51-.446-.922-1.001-.922-.552 0-.999.412-.999.922 0 .514.447.927.999.927m0-9.525c.555 0 1.001-.413 1.001-.927 0-.51-.446-.925-1.001-.925-.552 0-.999.415-.999.925 0 .514.447.927.999.927m0-9.526c.555 0 1.001-.413 1.001-.926 0-.51-.446-.926-1.001-.926-.552 0-.999.416-.999.926 0 .513.447.926.999.926m0-9.525c.555 0 1.001-.413 1.001-.926 0-.51-.446-.926-1.001-.926-.552 0-.999.415-.999.926 0 .513.447.926.999.926m0-9.525c.555 0 1.001-.413 1.001-.924 0-.513-.446-.928-1.001-.928-.552 0-.999.415-.999.928 0 .511.447.924.999.924" fill="#121212"/><path d="M193.615 56.787c0-8.41-6.56-18.102-14.99-18.102H68.821c-8.408 0-15.245 6.816-15.245 15.246V180.47c0 .209.168.398.399.398h109.027a.398.398 0 0 0 .398-.398V56.787h30.215Z" fill="#fff"/><path d="M162.939 181.287H53.912a.796.796 0 0 1-.797-.797V53.932c0-8.62 7.025-15.644 15.644-15.644h109.803a.398.398 0 1 1 0 .797H68.759c-8.178 0-14.847 6.647-14.847 14.847v126.537l109.006-.021-.021-33.7a.399.399 0 0 1 .797 0v33.721a.744.744 0 0 1-.755.818Z" fill="#161616" stroke="#161616" stroke-width=".5"/><path d="M163.51 143.287c-.229 0-.395-.227-.395-.48V57.126c0-10.38 6.961-18.839 15.5-18.839 8.54 0 15.5 8.46 15.5 18.839v.48h-30.21v85.176c0 .278-.187.505-.395.505Zm.395-86.641h29.4c-.208-9.621-6.732-17.374-14.69-17.374-7.978 0-14.482 7.753-14.71 17.374Z" fill="#161616" stroke="#161616" stroke-width=".5"/><path d="M151.3 120.438h-18.873a.399.399 0 1 1 0-.797H151.3c.231 0 .399.189.399.399a.413.413 0 0 1-.399.398ZM151.691 144.594h-18.874a.398.398 0 1 1 0-.797h18.874c.231 0 .398.189.398.399 0 .21-.188.398-.398.398ZM123.786 120.438H66.222a.398.398 0 1 1 0-.797h57.564a.399.399 0 1 1 0 .797ZM124.177 144.594H66.612a.398.398 0 0 1 0-.797h57.565a.398.398 0 1 1 0 .797ZM148.382 112.126H66.391c-.329 0-.568-.189-.568-.399 0-.231.27-.398.568-.398h81.991c.329 0 .568.188.568.398 0 .21-.239.399-.568.399ZM148.773 136.281H66.781c-.328 0-.567-.188-.567-.398 0-.231.269-.399.567-.399h81.992c.328 0 .567.189.567.399 0 .21-.239.398-.567.398ZM130.691 103.813H66.269c-.258 0-.446-.189-.446-.398 0-.231.212-.399.446-.399h64.422c.258 0 .446.189.446.399 0 .209-.188.398-.446.398ZM131.082 127.969H66.66c-.258 0-.446-.189-.446-.399 0-.23.211-.398.446-.398h64.422c.258 0 .445.189.445.398 0 .21-.187.399-.445.399Z" fill="#161616" stroke="#161616" stroke-width=".4"/><path d="M122.352 63.678v-3H65.278v3h57.074Z" fill="#161616"/><path d="M95.867 152.784h-29.36a.398.398 0 1 1 0-.797h29.36c.23 0 .398.189.398.399 0 .23-.167.398-.398.398ZM82.571 165.157H66.508a.398.398 0 1 1 0-.797h16.084c.231 0 .399.189.399.399 0 .21-.189.398-.42.398ZM95.615 165.157H85.192a.398.398 0 1 1 0-.797h10.423c.23 0 .398.189.398.399.021.21-.168.398-.398.398ZM95.72 159.118H67.114a.398.398 0 0 1 0-.797h28.583c.231 0 .399.189.399.398.02.231-.147.399-.378.399ZM135.921 152.784h-6.878a.398.398 0 1 1 0-.797h6.878c.231 0 .399.189.399.399.021.23-.168.398-.399.398ZM125.561 152.784h-18.622a.398.398 0 0 1 0-.797h18.622a.399.399 0 1 1 0 .797ZM116.859 165.157h-9.94a.398.398 0 1 1 0-.797h9.94a.399.399 0 1 1 0 .797ZM135.104 165.157H119.48a.398.398 0 1 1 0-.797h15.624c.23 0 .398.189.398.399.021.21-.168.398-.398.398ZM122.521 159.26h-15.624a.399.399 0 0 1 0-.797h15.624c.23 0 .398.189.398.398.021.21-.168.399-.398.399ZM151.3 82.54h-48.883a.398.398 0 1 1 0-.798H151.3a.398.398 0 1 1 0 .797ZM93.777 82.54H66.222a.398.398 0 1 1 0-.798h27.576c.23 0 .399.189.399.399 0 .23-.19.398-.42.398ZM151.3 88.956H66.222a.398.398 0 1 1 0-.797H151.3c.231 0 .398.189.398.399 0 .21-.188.398-.398.398ZM151.3 95.52h-29.254a.398.398 0 1 1 0-.797H151.3c.231 0 .399.189.399.399 0 .21-.189.398-.399.398ZM116.363 95.52H66.222a.398.398 0 1 1 0-.797h50.141a.398.398 0 0 1 0 .797Z" fill="#161616" stroke="#161616" stroke-width=".4"/><circle cx="176.459" cy="82.631" r="17.644" fill="#fff" stroke="#000" stroke-width="1.4"/><path d="M171.615 78.975h-5.5l.5 10.5 4.5.312 1-1.312 3.5 1h8c1.2 0 1.167-1.667 1-2.5 1.2 0 .834-1.667.5-2.5.8 0 1-2.334 1-3.5.8-1.2-.333-2.167-1-2.5h-4.5c.334-1 .9-3.3.5-4.5-.5-1.5-1.5-2-2-1.5s-1.5 3.812-2 4.312c-.4.4-3.666 2.688-5 3.688l-.5-1.5Z" fill="#000"/><path d="m186.112 81.678.202-.21a1.71 1.71 0 0 0-1.245-2.888h-4.214l.257-.463c.568-.967.86-2.072.844-3.194v-.217a2.425 2.425 0 0 0-2.383-2.419 1.078 1.078 0 0 0-1.068.962c-.301 3.642-3.987 5.433-5.756 6.292l-.452.22v-.84a.333.333 0 0 0-.334-.334h-5.507a.335.335 0 0 0-.334.334v11.014a.336.336 0 0 0 .334.337h4.119a1.708 1.708 0 0 0 1.531-.95l.132-.265.272.118c2.35 1.02 4.405 1.101 6.472 1.101h4.674a1.707 1.707 0 0 0 1.474-.862 1.709 1.709 0 0 0-.006-1.708l-.158-.264.265-.162a1.705 1.705 0 0 0 .584-2.33l-.158-.269.26-.158a1.7 1.7 0 0 0 .802-1.222 1.7 1.7 0 0 0-.435-1.395l-.172-.228Zm-14.483 6.895a1.038 1.038 0 0 1-1.054 1.043h-1.035v-2.424a.333.333 0 0 0-.57-.236.333.333 0 0 0-.098.236v2.423h-2.089v-10.36h4.846v9.318Zm13.418-4.48h-1.354a.336.336 0 0 0-.335.335.336.336 0 0 0 .335.334h.664a1.048 1.048 0 0 1 .7 1.762 1.048 1.048 0 0 1-.7.327h-.69a.333.333 0 0 0-.236.57.332.332 0 0 0 .236.098 1.047 1.047 0 1 1 0 2.089h-4.699c-2.343 0-4.222-.136-6.48-1.186l-.18-.084v-7.842l.367-.184a17.968 17.968 0 0 0 3.932-2.364c1.557-1.318 2.419-2.882 2.57-4.644a.404.404 0 0 1 .389-.349 1.761 1.761 0 0 1 1.726 1.751v.217c0 1.468-.397 2.36-1.131 3.51l-.092.147h-1.204a.332.332 0 0 0-.334.334.333.333 0 0 0 .334.334h6.204a1.046 1.046 0 1 1 0 2.089h-1.376a.336.336 0 0 0-.335.334.337.337 0 0 0 .335.334h1.354a1.046 1.046 0 0 1 0 2.089Z" fill="#000" stroke="#000" stroke-width=".5"/><circle cx="203.043" cy="118.076" r="17.644" fill="#161616" stroke="#161616" stroke-width="1.4"/><path d="M203.577 122.172c-.517.52-1.355.52-1.872 0l-2.899-2.917a1.337 1.337 0 0 1 0-1.883 1.317 1.317 0 0 1 1.871 0l1.728 1.738c.13.131.342.131.473 0l4.678-4.706a1.318 1.318 0 0 1 1.872 0 1.334 1.334 0 0 1 0 1.882l-5.851 5.886Z" fill="#fff" stroke="#161616" stroke-width=".4"/><circle cx="176.459" cy="153.519" r="17.644" fill="#fff" stroke="#000" stroke-width="1.4"/><path d="M168.115 147.042c2.952-.212 5.04-1.379 7.354-3.227a1.034 1.034 0 0 1 1.292 0c2.315 1.848 4.402 3.015 7.355 3.227.551.039 1.001.492.987 1.044-.344 14.157-7.907 15.866-8.884 16.028a.6.6 0 0 1-.207 0c-.977-.162-8.541-1.871-8.885-16.028-.013-.552.437-1.005.988-1.044Z" fill="#161616"/><path d="m172.8 153.708 2.368 2.369 4.737-4.737" stroke="#fff" stroke-width="1.5" stroke-linecap="round" stroke-linejoin="round"/></svg>