<svg width="241" height="183" fill="none" xmlns="http://www.w3.org/2000/svg"><path fill-rule="evenodd" clip-rule="evenodd" d="M83.014 151.605c-1.482.08-2.976.121-4.48.121C35.161 151.726 0 117.761 0 75.863 0 33.965 35.161 0 78.534 0c25.542 0 48.235 11.778 62.578 30.018 9.2-5.492 19.956-8.648 31.449-8.648C206.493 21.37 234 48.877 234 82.808c0 33.932-27.507 61.439-61.439 61.439a61.407 61.407 0 0 1-18.911-2.966c-1.984 18.487-17.636 32.883-36.65 32.883-15.287 0-28.4-9.304-33.986-22.559Z" fill="#E9E9E9"/><path fill-rule="evenodd" clip-rule="evenodd" d="M181 125.728a1 1 0 1 1 1-1c0 .555-.448 1-1 1m0-9.526a1 1 0 1 1 0-2 1 1 0 0 1 0 2m0-9.521a1 1 0 0 1-1-1.004 1 1 0 1 1 2 0c0 .555-.448 1.004-1 1.004m0-9.529a1 1 0 1 1-.001-2.001 1 1 0 0 1 .001 2.001m0-9.526a1 1 0 1 1 0-2 1 1 0 0 1 0 2m0-9.525a.998.998 0 1 1 0-1.997.998.998 0 1 1 0 1.997m0-9.525a1 1 0 1 1-.001-2.001 1 1 0 0 1 .001 2.001m0-9.526a1 1 0 1 1 0-2 1 1 0 0 1 0 2m0-9.525a1 1 0 1 1 0-2 1 1 0 0 1 0 2M181 40a1 1 0 1 1 0-2 1 1 0 0 1 0 2M192.008 125.58c-.552 0-1-.412-1-.926 0-.511.448-.926 1-.926.551 0 1 .415 1 .926 0 .514-.449.926-1 .926m0-9.525c-.552 0-1-.413-1-.926 0-.511.448-.927 1-.927.551 0 1 .416 1 .927 0 .513-.449.926-1 .926m0-9.522c-.552 0-1-.416-1-.93 0-.51.448-.926 1-.926.551 0 1 .416 1 .926 0 .514-.449.93-1 .93m0-9.529c-.552 0-1-.412-1-.926 0-.51.448-.926 1-.926.551 0 1 .416 1 .926 0 .514-.449.926-1 .926m0-9.526c-.552 0-1-.412-1-.925 0-.511.448-.927 1-.927.551 0 1 .416 1 .927 0 .513-.449.925-1 .925m0-9.525c-.552 0-1-.412-1-.926 0-.51.448-.923 1-.923.551 0 1 .413 1 .923 0 .514-.449.926-1 .926m0-9.525c-.552 0-1-.412-1-.926 0-.51.448-.926 1-.926.551 0 1 .416 1 .926 0 .514-.449.926-1 .926m0-9.525c-.552 0-1-.413-1-.926 0-.511.448-.927 1-.927.551 0 1 .416 1 .927 0 .513-.449.926-1 .926m0-9.526c-.552 0-1-.412-1-.925 0-.511.448-.927 1-.927.551 0 1 .416 1 .927 0 .513-.449.925-1 .925m0-9.525c-.552 0-1-.412-1-.923 0-.513.448-.929 1-.929.551 0 1 .416 1 .929 0 .51-.449.923-1 .923M203.019 125.58c-.555 0-1.001-.412-1.001-.926 0-.511.446-.926 1.001-.926.552 0 .999.415.999.926 0 .514-.447.926-.999.926m0-9.525c-.555 0-1.001-.413-1.001-.926 0-.511.446-.927 1.001-.927.552 0 .999.416.999.927 0 .513-.447.926-.999.926m0-9.522c-.555 0-1.001-.416-1.001-.93 0-.51.446-.926 1.001-.926.552 0 .999.416.999.926 0 .514-.447.93-.999.93m0-9.529c-.555 0-1.001-.412-1.001-.926 0-.51.446-.926 1.001-.926.552 0 .999.416.999.926 0 .514-.447.926-.999.926m0-9.526c-.555 0-1.001-.412-1.001-.925 0-.511.446-.927 1.001-.927.552 0 .999.416.999.927 0 .513-.447.925-.999.925m0-9.525c-.555 0-1.001-.412-1.001-.926 0-.51.446-.923 1.001-.923.552 0 .999.413.999.923 0 .514-.447.926-.999.926m0-9.525c-.555 0-1.001-.412-1.001-.926 0-.51.446-.926 1.001-.926.552 0 .999.416.999.926 0 .514-.447.926-.999.926m0-9.525c-.555 0-1.001-.413-1.001-.926 0-.511.446-.927 1.001-.927.552 0 .999.416.999.927 0 .513-.447.926-.999.926m0-9.526c-.555 0-1.001-.412-1.001-.925 0-.511.446-.927 1.001-.927.552 0 .999.416.999.927 0 .513-.447.925-.999.925m0-9.525c-.555 0-1.001-.412-1.001-.923 0-.513.446-.929 1.001-.929.552 0 .999.416.999.929 0 .51-.447.923-.999.923M214 125.728a1 1 0 1 1 1-1c0 .555-.448 1-1 1m0-9.526a1 1 0 1 1 0-2 1 1 0 0 1 0 2m0-9.521a1 1 0 0 1-1-1.004 1 1 0 1 1 2 0c0 .555-.448 1.004-1 1.004m0-9.529a1 1 0 1 1-.001-2.001 1 1 0 0 1 .001 2.001m0-9.526a1 1 0 1 1 0-2 1 1 0 0 1 0 2m0-9.525a.998.998 0 1 1 0-1.997.998.998 0 1 1 0 1.997m0-9.525a1 1 0 1 1-.001-2.001 1 1 0 0 1 .001 2.001m0-9.526a1 1 0 1 1 0-2 1 1 0 0 1 0 2m0-9.525a1 1 0 1 1 0-2 1 1 0 0 1 0 2M214 40a1 1 0 1 1 0-2 1 1 0 0 1 0 2M225.008 125.58c-.552 0-1-.412-1-.926 0-.511.448-.926 1-.926.551 0 1 .415 1 .926 0 .514-.449.926-1 .926m0-9.525c-.552 0-1-.413-1-.926 0-.511.448-.927 1-.927.551 0 1 .416 1 .927 0 .513-.449.926-1 .926m0-9.522c-.552 0-1-.416-1-.93 0-.51.448-.926 1-.926.551 0 1 .416 1 .926 0 .514-.449.93-1 .93m0-9.529c-.552 0-1-.412-1-.926 0-.51.448-.926 1-.926.551 0 1 .416 1 .926 0 .514-.449.926-1 .926m0-9.526c-.552 0-1-.412-1-.925 0-.511.448-.927 1-.927.551 0 1 .416 1 .927 0 .513-.449.925-1 .925m0-9.525c-.552 0-1-.412-1-.926 0-.51.448-.923 1-.923.551 0 1 .413 1 .923 0 .514-.449.926-1 .926m0-9.525c-.552 0-1-.412-1-.926 0-.51.448-.926 1-.926.551 0 1 .416 1 .926 0 .514-.449.926-1 .926m0-9.525c-.552 0-1-.413-1-.926 0-.511.448-.927 1-.927.551 0 1 .416 1 .927 0 .513-.449.926-1 .926m0-9.526c-.552 0-1-.412-1-.925 0-.511.448-.927 1-.927.551 0 1 .416 1 .927 0 .513-.449.925-1 .925m0-9.525c-.552 0-1-.412-1-.923 0-.513.448-.929 1-.929.551 0 1 .416 1 .929 0 .51-.449.923-1 .923M236.019 125.58c-.555 0-1.001-.412-1.001-.926 0-.511.446-.926 1.001-.926.552 0 .999.415.999.926 0 .514-.447.926-.999.926m0-9.525c-.555 0-1.001-.413-1.001-.926 0-.511.446-.927 1.001-.927.552 0 .999.416.999.927 0 .513-.447.926-.999.926m0-9.522c-.555 0-1.001-.416-1.001-.93 0-.51.446-.926 1.001-.926.552 0 .999.416.999.926 0 .514-.447.93-.999.93m0-9.529c-.555 0-1.001-.412-1.001-.926 0-.51.446-.926 1.001-.926.552 0 .999.416.999.926 0 .514-.447.926-.999.926m0-9.526c-.555 0-1.001-.412-1.001-.925 0-.511.446-.927 1.001-.927.552 0 .999.416.999.927 0 .513-.447.925-.999.925m0-9.525c-.555 0-1.001-.412-1.001-.926 0-.51.446-.923 1.001-.923.552 0 .999.413.999.923 0 .514-.447.926-.999.926m0-9.525c-.555 0-1.001-.412-1.001-.926 0-.51.446-.926 1.001-.926.552 0 .999.416.999.926 0 .514-.447.926-.999.926m0-9.525c-.555 0-1.001-.413-1.001-.926 0-.511.446-.927 1.001-.927.552 0 .999.416.999.927 0 .513-.447.926-.999.926m0-9.526c-.555 0-1.001-.412-1.001-.925 0-.511.446-.927 1.001-.927.552 0 .999.416.999.927 0 .513-.447.925-.999.925m0-9.525c-.555 0-1.001-.412-1.001-.923 0-.513.446-.929 1.001-.929.552 0 .999.416.999.929 0 .51-.447.923-.999.923" fill="#121212"/><path d="M141 176v-43c4.5 8.5 7.5 15 19.5 15.5 9.6.4 16-10.167 18-15.5v43H141Z" fill="#fff"/><path d="M130.972 75.816a9.226 9.226 0 1 1-18.451 0 9.226 9.226 0 0 1 18.451 0ZM205.025 75.816a9.226 9.226 0 1 1-18.451 0 9.226 9.226 0 0 1 18.451 0ZM141.809 95.02h-.7v35.09c0 9.847 7.926 17.839 17.714 17.839 9.788 0 17.714-7.992 17.714-17.839V95.02h-34.728Z" fill="#fff" stroke="#000" stroke-width="1.4"/><path d="M159.257 120.494c-19.798 0-35.844-16.049-35.844-35.844V60.058c0-19.798 16.049-35.844 35.844-35.844 19.797 0 35.844 16.049 35.844 35.844V84.65c0 19.798-16.047 35.844-35.844 35.844Z" fill="#fff" stroke="#000" stroke-width="1.4"/><path d="M136.987 23.296c-29.768 18.523-16.498 44.252-13.099 49.586 0 0-.513-16.56 5.695-19.653 7.48-3.704 8.733-9.595 11.296-17.226 0 0 8.904-4.26 19.498 5.89a28.68 28.68 0 0 0 13.298 7.16 29.16 29.16 0 0 0 15.179-.528c4.063-1.556 4.424.852 3.911 2.74-1.898 6.706 0 18.783 2.221 23.507.152.37.665.259.798-.112 20.389-56.958-38.73-63.904-58.797-51.364Z" fill="#161616"/><path d="m161.412 89.496-3.72-.317a3.884 3.884 0 0 1-2.946-1.753 3.862 3.862 0 0 1-.433-3.378c1.001-2.979 2.196-7.379 2.234-11.496h2.058c-.038 4.382-1.288 9.012-2.344 12.152v.001a1.841 1.841 0 0 0 .202 1.593c.314.48.827.783 1.399.832l3.721.317-.171 2.05Z" fill="#161616" stroke="#fff" stroke-width=".4"/><path d="M141.742 75.84a3.622 3.622 0 1 0 0-7.245 3.622 3.622 0 0 0 0 7.245ZM176.64 75.84a3.622 3.622 0 1 0 0-7.244 3.622 3.622 0 0 0 0 7.244Z" fill="#161616"/><path d="M166.583 103.231a28.429 28.429 0 0 0 2.064-.881l-.928-1.837c-.708.333-3.386 1.53-6.491 2.106-3.514.651-7.67.522-10.073-2.69l-1.681 1.188c2.181 2.957 5.372 3.895 8.561 3.892 3.251-.002 6.473-.984 8.548-1.778ZM135.626 63.285h12.234v2.058h-12.234v-2.058ZM170.2 63.285h12.234v2.058H170.2v-2.058Z" fill="#161616" stroke="#fff" stroke-width=".4"/><path d="M101.7 168.239c0-19.591 17.17-35.572 38.494-35.63v43.679H101.7v-8.049ZM177.456 176.288v-43.679c21.323.058 38.493 16.039 38.493 35.63v8.049h-38.493Z" fill="#fff" stroke="#000" stroke-width="1.4"/><path stroke="#000" stroke-width="1.4" d="M137.918 176.3h39.862"/><path d="M52 176v-43c4.5 8.5 7.5 15 19.5 15.5 9.6.4 16-10.167 18-15.5v43H52Z" fill="#fff"/><path d="M139.507 91.266c0-4.107-4.429-.448-4.429-9.182 0-6.008-1.973-6.008-6.115-8.285-5.542-3.031.699-7.174-3.085-10.76-3.784-3.587-7.855-7.658-7.855-15.083 0-7.424-2.69-9.271-8.967-16.14-5.218-5.667-10.473-9.558-14.131-10.975a44.295 44.295 0 0 0-47.506 4.627 53.403 53.403 0 0 0-11.083 9.487c-6.313 6.886-8.967 8.751-8.967 16.14 0 7.389-4.088 11.585-7.872 15.064-3.784 3.48 1.65 6.33-3.067 10.76-4.717 4.43-8.967-.43-8.967 8.285 0 8.716-2.188-.304-5.739 8.447-2.994 7.407 4.358 10.922 2.906 18.167-.79 3.927 1.632 9.2 9.935 7.424 9.128-1.955 5.9 5.775 15.62 2.69 9.182-2.905 7.675 2.583 17.27-1.56a17.93 17.93 0 0 1 16.947.323c6.205 3.282 6.725-6.151 17.288-.969 5.38 2.619 16.66 1.794 18.543 1.094 3.802-1.381 3.802-5.021 6.241-5.021 5.38 0 5.38 4.16 10.168 4.16 6.223 0 4.197-4.268 13.486-4.268 8.626 0 8.572-6.42 7.389-12.553-.897-4.358 1.99-5.13 1.99-11.872Z" fill="#161616"/><path d="M41.972 75.816a9.226 9.226 0 1 1-18.452 0 9.226 9.226 0 0 1 18.452 0ZM116.025 75.816a9.226 9.226 0 1 1-18.451 0 9.226 9.226 0 0 1 18.451 0ZM52.809 95.02h-.7v35.09c0 9.847 7.926 17.839 17.714 17.839 9.788 0 17.714-7.992 17.714-17.839V95.02H52.81Z" fill="#fff" stroke="#000" stroke-width="1.4"/><path d="M70.257 120.494c-19.798 0-35.844-16.049-35.844-35.844V60.058c0-19.798 16.049-35.844 35.844-35.844 19.797 0 35.844 16.049 35.844 35.844V84.65c0 19.798-16.047 35.844-35.844 35.844Z" fill="#fff" stroke="#000" stroke-width="1.4"/><path d="M32.5 65.5c9.6-1.6 22.5-19.167 26.5-24l-.93-18c-20.8 7.2-26.236 34.833-25.57 42Z" fill="#161616"/><path d="m89.251 21.38.005.002c8.037 3.436 14.752 9.17 19.162 16.272l.003.006a37.387 37.387 0 0 1 5.696 16.789l.183 3.115v2.79c-5.675 3.136-12.41 4.946-19.595 4.946-20.52 0-37.005-14.667-37.005-32.566 0-4.98 1.277-9.686 3.546-13.92 3.159-.727 6.443-1.092 9.855-1.114h.21c6.414 0 12.491 1.308 17.94 3.68Z" fill="#161616" stroke="#161616" stroke-width="1.4"/><path d="m72.412 89.496-3.72-.317a3.885 3.885 0 0 1-2.946-1.753 3.865 3.865 0 0 1-.433-3.378c1.001-2.979 2.196-7.379 2.234-11.496h2.058c-.038 4.382-1.288 9.012-2.344 12.152v.001a1.838 1.838 0 0 0 .202 1.593c.314.48.827.783 1.399.832l3.72.317-.17 2.05Z" fill="#161616" stroke="#fff" stroke-width=".4"/><path d="M52.742 75.84a3.622 3.622 0 1 0 0-7.245 3.622 3.622 0 0 0 0 7.245ZM87.64 75.84a3.622 3.622 0 1 0 0-7.245 3.622 3.622 0 0 0 0 7.245Z" fill="#161616"/><path d="M72.992 105.858c-1.072 0-1.874-.055-2.243-.085l.21-2.048c.78.059 3.709.219 6.814-.353 3.515-.648 7.35-2.254 8.447-6.113l1.994.508c-.98 3.542-3.625 5.558-6.604 6.696-3.037 1.16-6.397 1.395-8.618 1.395ZM46.626 63.285H58.86v2.058H46.626v-2.058Z" fill="#161616" stroke="#fff" stroke-width=".4"/><path d="M12.7 168.239c0-19.591 17.17-35.572 38.494-35.63v43.679H12.7v-8.049ZM88.456 176.288v-43.679c21.323.058 38.493 16.039 38.493 35.63v8.049H88.456Z" fill="#fff" stroke="#000" stroke-width="1.4"/><path stroke="#000" stroke-width="1.4" d="M48.918 176.3H88.78"/><circle cx="223.562" cy="47.562" r="15.862" fill="#fff" stroke="#000" stroke-width="1.4"/><path d="M228.733 48.331a.863.863 0 0 0-.255.766l.711 3.884c.06.329-.08.662-.36.852a.889.889 0 0 1-.935.063l-3.543-1.823a.913.913 0 0 0-.4-.104h-.217a.654.654 0 0 0-.216.071l-3.543 1.833a.878.878 0 0 1-1.28-.916l.712-3.885a.875.875 0 0 0-.256-.773l-2.888-2.763a.844.844 0 0 1-.215-.892.895.895 0 0 1 .711-.592l3.975-.569a.889.889 0 0 0 .704-.48l1.752-3.545a.827.827 0 0 1 .16-.213l.072-.055a.545.545 0 0 1 .129-.103l.087-.032.136-.055h.337c.301.03.565.208.704.474l1.775 3.528a.887.887 0 0 0 .664.481l3.975.57a.904.904 0 0 1 .728.591.85.85 0 0 1-.232.892l-2.992 2.795Z" fill="#161616"/><circle cx="17.562" cy="165.562" r="15.862" fill="#fff" stroke="#000" stroke-width="1.4"/><path d="M22.733 166.331a.862.862 0 0 0-.255.766l.711 3.884a.847.847 0 0 1-.36.852.889.889 0 0 1-.936.063l-3.542-1.823a.912.912 0 0 0-.4-.104h-.217a.661.661 0 0 0-.216.071l-3.543 1.833a.95.95 0 0 1-.568.087.88.88 0 0 1-.712-1.004l.712-3.884a.878.878 0 0 0-.255-.773l-2.889-2.763a.844.844 0 0 1-.215-.892.897.897 0 0 1 .711-.592l3.976-.569a.889.889 0 0 0 .703-.481l1.752-3.544a.81.81 0 0 1 .16-.213l.072-.056a.52.52 0 0 1 .129-.102l.087-.032.136-.055h.337c.3.031.565.208.704.474l1.775 3.528a.885.885 0 0 0 .664.481l3.975.569a.906.906 0 0 1 .728.592.85.85 0 0 1-.232.892l-2.992 2.795Z" fill="#161616"/></svg>